<?xml version="1.0" encoding="utf-8" standalone="no"?>
<!DOCTYPE svg PUBLIC "-//W3C//DTD SVG 1.1//EN"
  "http://www.w3.org/Graphics/SVG/1.1/DTD/svg11.dtd">
<svg xmlns:xlink="http://www.w3.org/1999/xlink" width="499.482187pt" height="400.603125pt" viewBox="0 0 499.482187 400.603125" xmlns="http://www.w3.org/2000/svg" version="1.1">
 <metadata>
  <rdf:RDF xmlns:dc="http://purl.org/dc/elements/1.1/" xmlns:cc="http://creativecommons.org/ns#" xmlns:rdf="http://www.w3.org/1999/02/22-rdf-syntax-ns#">
   <cc:Work>
    <dc:type rdf:resource="http://purl.org/dc/dcmitype/StillImage"/>
    <dc:date>2025-08-20T02:16:53.939783</dc:date>
    <dc:format>image/svg+xml</dc:format>
    <dc:creator>
     <cc:Agent>
      <dc:title>Matplotlib v3.8.4, https://matplotlib.org/</dc:title>
     </cc:Agent>
    </dc:creator>
   </cc:Work>
  </rdf:RDF>
 </metadata>
 <defs>
  <style type="text/css">*{stroke-linejoin: round; stroke-linecap: butt}</style>
 </defs>
 <g id="figure_1">
  <g id="patch_1">
   <path d="M 0 400.603125 
L 499.482187 400.603125 
L 499.482187 0 
L 0 0 
z
" style="fill: #ffffff"/>
  </g>
  <g id="axes_1">
   <g id="patch_2">
    <path d="M 45.882188 348.48 
L 492.282187 348.48 
L 492.282187 15.84 
L 45.882188 15.84 
z
" style="fill: #ffffff"/>
   </g>
   <g id="patch_3">
    <path d="M 66.173097 348.48 
L 76.318551 348.48 
L 76.318551 348.48 
L 66.173097 348.48 
z
" clip-path="url(#p6ce8e8607e)" style="fill: #4169e1; opacity: 0.6"/>
   </g>
   <g id="patch_4">
    <path d="M 76.318551 348.48 
L 86.464006 348.48 
L 86.464006 348.48 
L 76.318551 348.48 
z
" clip-path="url(#p6ce8e8607e)" style="fill: #4169e1; opacity: 0.6"/>
   </g>
   <g id="patch_5">
    <path d="M 86.464006 348.48 
L 96.60946 348.48 
L 96.60946 88.605 
L 86.464006 88.605 
z
" clip-path="url(#p6ce8e8607e)" style="fill: #4169e1; opacity: 0.6"/>
   </g>
   <g id="patch_6">
    <path d="M 96.60946 348.48 
L 106.754915 348.48 
L 106.754915 218.5425 
L 96.60946 218.5425 
z
" clip-path="url(#p6ce8e8607e)" style="fill: #4169e1; opacity: 0.6"/>
   </g>
   <g id="patch_7">
    <path d="M 106.754915 348.48 
L 116.900369 348.48 
L 116.900369 218.5425 
L 106.754915 218.5425 
z
" clip-path="url(#p6ce8e8607e)" style="fill: #4169e1; opacity: 0.6"/>
   </g>
   <g id="patch_8">
    <path d="M 116.900369 348.48 
L 127.045824 348.48 
L 127.045824 88.605 
L 116.900369 88.605 
z
" clip-path="url(#p6ce8e8607e)" style="fill: #4169e1; opacity: 0.6"/>
   </g>
   <g id="patch_9">
    <path d="M 127.045824 348.48 
L 137.191278 348.48 
L 137.191278 88.605 
L 127.045824 88.605 
z
" clip-path="url(#p6ce8e8607e)" style="fill: #4169e1; opacity: 0.6"/>
   </g>
   <g id="patch_10">
    <path d="M 137.191278 348.48 
L 147.336733 348.48 
L 147.336733 88.605 
L 137.191278 88.605 
z
" clip-path="url(#p6ce8e8607e)" style="fill: #4169e1; opacity: 0.6"/>
   </g>
   <g id="patch_11">
    <path d="M 147.336733 348.48 
L 157.482188 348.48 
L 157.482188 348.48 
L 147.336733 348.48 
z
" clip-path="url(#p6ce8e8607e)" style="fill: #4169e1; opacity: 0.6"/>
   </g>
   <g id="patch_12">
    <path d="M 157.482188 348.48 
L 167.627642 348.48 
L 167.627642 348.48 
L 157.482188 348.48 
z
" clip-path="url(#p6ce8e8607e)" style="fill: #4169e1; opacity: 0.6"/>
   </g>
   <g id="patch_13">
    <path d="M 167.627642 348.48 
L 177.773097 348.48 
L 177.773097 348.48 
L 167.627642 348.48 
z
" clip-path="url(#p6ce8e8607e)" style="fill: #4169e1; opacity: 0.6"/>
   </g>
   <g id="patch_14">
    <path d="M 177.773097 348.48 
L 187.918551 348.48 
L 187.918551 348.48 
L 177.773097 348.48 
z
" clip-path="url(#p6ce8e8607e)" style="fill: #4169e1; opacity: 0.6"/>
   </g>
   <g id="patch_15">
    <path d="M 187.918551 348.48 
L 198.064006 348.48 
L 198.064006 348.48 
L 187.918551 348.48 
z
" clip-path="url(#p6ce8e8607e)" style="fill: #4169e1; opacity: 0.6"/>
   </g>
   <g id="patch_16">
    <path d="M 198.064006 348.48 
L 208.20946 348.48 
L 208.20946 348.48 
L 198.064006 348.48 
z
" clip-path="url(#p6ce8e8607e)" style="fill: #4169e1; opacity: 0.6"/>
   </g>
   <g id="patch_17">
    <path d="M 208.20946 348.48 
L 218.354915 348.48 
L 218.354915 88.605 
L 208.20946 88.605 
z
" clip-path="url(#p6ce8e8607e)" style="fill: #4169e1; opacity: 0.6"/>
   </g>
   <g id="patch_18">
    <path d="M 218.354915 348.48 
L 228.500369 348.48 
L 228.500369 218.5425 
L 218.354915 218.5425 
z
" clip-path="url(#p6ce8e8607e)" style="fill: #4169e1; opacity: 0.6"/>
   </g>
   <g id="patch_19">
    <path d="M 228.500369 348.48 
L 238.645824 348.48 
L 238.645824 348.48 
L 228.500369 348.48 
z
" clip-path="url(#p6ce8e8607e)" style="fill: #4169e1; opacity: 0.6"/>
   </g>
   <g id="patch_20">
    <path d="M 238.645824 348.48 
L 248.791278 348.48 
L 248.791278 348.48 
L 238.645824 348.48 
z
" clip-path="url(#p6ce8e8607e)" style="fill: #4169e1; opacity: 0.6"/>
   </g>
   <g id="patch_21">
    <path d="M 248.791278 348.48 
L 258.936733 348.48 
L 258.936733 348.48 
L 248.791278 348.48 
z
" clip-path="url(#p6ce8e8607e)" style="fill: #4169e1; opacity: 0.6"/>
   </g>
   <g id="patch_22">
    <path d="M 258.936733 348.48 
L 269.082188 348.48 
L 269.082188 348.48 
L 258.936733 348.48 
z
" clip-path="url(#p6ce8e8607e)" style="fill: #4169e1; opacity: 0.6"/>
   </g>
   <g id="patch_23">
    <path d="M 269.082187 348.48 
L 279.227642 348.48 
L 279.227642 348.48 
L 269.082187 348.48 
z
" clip-path="url(#p6ce8e8607e)" style="fill: #4169e1; opacity: 0.6"/>
   </g>
   <g id="patch_24">
    <path d="M 279.227642 348.48 
L 289.373097 348.48 
L 289.373097 348.48 
L 279.227642 348.48 
z
" clip-path="url(#p6ce8e8607e)" style="fill: #4169e1; opacity: 0.6"/>
   </g>
   <g id="patch_25">
    <path d="M 289.373097 348.48 
L 299.518551 348.48 
L 299.518551 88.605 
L 289.373097 88.605 
z
" clip-path="url(#p6ce8e8607e)" style="fill: #4169e1; opacity: 0.6"/>
   </g>
   <g id="patch_26">
    <path d="M 299.518551 348.48 
L 309.664006 348.48 
L 309.664006 218.5425 
L 299.518551 218.5425 
z
" clip-path="url(#p6ce8e8607e)" style="fill: #4169e1; opacity: 0.6"/>
   </g>
   <g id="patch_27">
    <path d="M 309.664006 348.48 
L 319.80946 348.48 
L 319.80946 218.5425 
L 309.664006 218.5425 
z
" clip-path="url(#p6ce8e8607e)" style="fill: #4169e1; opacity: 0.6"/>
   </g>
   <g id="patch_28">
    <path d="M 319.80946 348.48 
L 329.954915 348.48 
L 329.954915 88.605 
L 319.80946 88.605 
z
" clip-path="url(#p6ce8e8607e)" style="fill: #4169e1; opacity: 0.6"/>
   </g>
   <g id="patch_29">
    <path d="M 329.954915 348.48 
L 340.100369 348.48 
L 340.100369 88.605 
L 329.954915 88.605 
z
" clip-path="url(#p6ce8e8607e)" style="fill: #4169e1; opacity: 0.6"/>
   </g>
   <g id="patch_30">
    <path d="M 340.100369 348.48 
L 350.245824 348.48 
L 350.245824 88.605 
L 340.100369 88.605 
z
" clip-path="url(#p6ce8e8607e)" style="fill: #4169e1; opacity: 0.6"/>
   </g>
   <g id="patch_31">
    <path d="M 350.245824 348.48 
L 360.391278 348.48 
L 360.391278 348.48 
L 350.245824 348.48 
z
" clip-path="url(#p6ce8e8607e)" style="fill: #4169e1; opacity: 0.6"/>
   </g>
   <g id="patch_32">
    <path d="M 360.391278 348.48 
L 370.536733 348.48 
L 370.536733 348.48 
L 360.391278 348.48 
z
" clip-path="url(#p6ce8e8607e)" style="fill: #4169e1; opacity: 0.6"/>
   </g>
   <g id="patch_33">
    <path d="M 370.536733 348.48 
L 380.682187 348.48 
L 380.682187 348.48 
L 370.536733 348.48 
z
" clip-path="url(#p6ce8e8607e)" style="fill: #4169e1; opacity: 0.6"/>
   </g>
   <g id="patch_34">
    <path d="M 380.682187 348.48 
L 390.827642 348.48 
L 390.827642 348.48 
L 380.682187 348.48 
z
" clip-path="url(#p6ce8e8607e)" style="fill: #4169e1; opacity: 0.6"/>
   </g>
   <g id="patch_35">
    <path d="M 390.827642 348.48 
L 400.973097 348.48 
L 400.973097 348.48 
L 390.827642 348.48 
z
" clip-path="url(#p6ce8e8607e)" style="fill: #4169e1; opacity: 0.6"/>
   </g>
   <g id="patch_36">
    <path d="M 400.973097 348.48 
L 411.118551 348.48 
L 411.118551 348.48 
L 400.973097 348.48 
z
" clip-path="url(#p6ce8e8607e)" style="fill: #4169e1; opacity: 0.6"/>
   </g>
   <g id="patch_37">
    <path d="M 411.118551 348.48 
L 421.264006 348.48 
L 421.264006 88.605 
L 411.118551 88.605 
z
" clip-path="url(#p6ce8e8607e)" style="fill: #4169e1; opacity: 0.6"/>
   </g>
   <g id="patch_38">
    <path d="M 421.264006 348.48 
L 431.40946 348.48 
L 431.40946 218.5425 
L 421.264006 218.5425 
z
" clip-path="url(#p6ce8e8607e)" style="fill: #4169e1; opacity: 0.6"/>
   </g>
   <g id="patch_39">
    <path d="M 431.40946 348.48 
L 441.554915 348.48 
L 441.554915 348.48 
L 431.40946 348.48 
z
" clip-path="url(#p6ce8e8607e)" style="fill: #4169e1; opacity: 0.6"/>
   </g>
   <g id="patch_40">
    <path d="M 441.554915 348.48 
L 451.700369 348.48 
L 451.700369 348.48 
L 441.554915 348.48 
z
" clip-path="url(#p6ce8e8607e)" style="fill: #4169e1; opacity: 0.6"/>
   </g>
   <g id="patch_41">
    <path d="M 451.700369 348.48 
L 461.845824 348.48 
L 461.845824 348.48 
L 451.700369 348.48 
z
" clip-path="url(#p6ce8e8607e)" style="fill: #4169e1; opacity: 0.6"/>
   </g>
   <g id="patch_42">
    <path d="M 461.845824 348.48 
L 471.991278 348.48 
L 471.991278 348.48 
L 461.845824 348.48 
z
" clip-path="url(#p6ce8e8607e)" style="fill: #4169e1; opacity: 0.6"/>
   </g>
   <g id="matplotlib.axis_1">
    <g id="xtick_1">
     <g id="line2d_1">
      <path d="M 66.173097 348.48 
L 66.173097 15.84 
" clip-path="url(#p6ce8e8607e)" style="fill: none; stroke-dasharray: 7.4,3.2; stroke-dashoffset: 0; stroke: #d3d3d3; stroke-opacity: 0.3; stroke-width: 2"/>
     </g>
     <g id="line2d_2">
      <defs>
       <path id="mca8ffa3bbf" d="M 0 0 
L 0 -10 
" style="stroke: #000000; stroke-width: 2"/>
      </defs>
      <g>
       <use xlink:href="#mca8ffa3bbf" x="66.173097" y="348.48" style="stroke: #000000; stroke-width: 2"/>
      </g>
     </g>
     <g id="line2d_3">
      <defs>
       <path id="m436abd0930" d="M 0 0 
L 0 10 
" style="stroke: #000000; stroke-width: 2"/>
      </defs>
      <g>
       <use xlink:href="#m436abd0930" x="66.173097" y="15.84" style="stroke: #000000; stroke-width: 2"/>
      </g>
     </g>
     <g id="text_1">
      <!-- 0.0 -->
      <g transform="translate(53.663097 369.364062) scale(0.18 -0.18)">
       <defs>
        <path id="ArialMT-30" d="M 266 2259 
Q 266 3072 433 3567 
Q 600 4063 929 4331 
Q 1259 4600 1759 4600 
Q 2128 4600 2406 4451 
Q 2684 4303 2865 4023 
Q 3047 3744 3150 3342 
Q 3253 2941 3253 2259 
Q 3253 1453 3087 958 
Q 2922 463 2592 192 
Q 2263 -78 1759 -78 
Q 1097 -78 719 397 
Q 266 969 266 2259 
z
M 844 2259 
Q 844 1131 1108 757 
Q 1372 384 1759 384 
Q 2147 384 2411 759 
Q 2675 1134 2675 2259 
Q 2675 3391 2411 3762 
Q 2147 4134 1753 4134 
Q 1366 4134 1134 3806 
Q 844 3388 844 2259 
z
" transform="scale(0.015625)"/>
        <path id="ArialMT-2e" d="M 581 0 
L 581 641 
L 1222 641 
L 1222 0 
L 581 0 
z
" transform="scale(0.015625)"/>
       </defs>
       <use xlink:href="#ArialMT-30"/>
       <use xlink:href="#ArialMT-2e" x="55.615234"/>
       <use xlink:href="#ArialMT-30" x="83.398438"/>
      </g>
     </g>
    </g>
    <g id="xtick_2">
     <g id="line2d_4">
      <path d="M 167.627642 348.48 
L 167.627642 15.84 
" clip-path="url(#p6ce8e8607e)" style="fill: none; stroke-dasharray: 7.4,3.2; stroke-dashoffset: 0; stroke: #d3d3d3; stroke-opacity: 0.3; stroke-width: 2"/>
     </g>
     <g id="line2d_5">
      <g>
       <use xlink:href="#mca8ffa3bbf" x="167.627642" y="348.48" style="stroke: #000000; stroke-width: 2"/>
      </g>
     </g>
     <g id="line2d_6">
      <g>
       <use xlink:href="#m436abd0930" x="167.627642" y="15.84" style="stroke: #000000; stroke-width: 2"/>
      </g>
     </g>
     <g id="text_2">
      <!-- 0.5 -->
      <g transform="translate(155.117642 369.364062) scale(0.18 -0.18)">
       <defs>
        <path id="ArialMT-35" d="M 266 1200 
L 856 1250 
Q 922 819 1161 601 
Q 1400 384 1738 384 
Q 2144 384 2425 690 
Q 2706 997 2706 1503 
Q 2706 1984 2436 2262 
Q 2166 2541 1728 2541 
Q 1456 2541 1237 2417 
Q 1019 2294 894 2097 
L 366 2166 
L 809 4519 
L 3088 4519 
L 3088 3981 
L 1259 3981 
L 1013 2750 
Q 1425 3038 1878 3038 
Q 2478 3038 2890 2622 
Q 3303 2206 3303 1553 
Q 3303 931 2941 478 
Q 2500 -78 1738 -78 
Q 1113 -78 717 272 
Q 322 622 266 1200 
z
" transform="scale(0.015625)"/>
       </defs>
       <use xlink:href="#ArialMT-30"/>
       <use xlink:href="#ArialMT-2e" x="55.615234"/>
       <use xlink:href="#ArialMT-35" x="83.398438"/>
      </g>
     </g>
    </g>
    <g id="xtick_3">
     <g id="line2d_7">
      <path d="M 269.082187 348.48 
L 269.082187 15.84 
" clip-path="url(#p6ce8e8607e)" style="fill: none; stroke-dasharray: 7.4,3.2; stroke-dashoffset: 0; stroke: #d3d3d3; stroke-opacity: 0.3; stroke-width: 2"/>
     </g>
     <g id="line2d_8">
      <g>
       <use xlink:href="#mca8ffa3bbf" x="269.082187" y="348.48" style="stroke: #000000; stroke-width: 2"/>
      </g>
     </g>
     <g id="line2d_9">
      <g>
       <use xlink:href="#m436abd0930" x="269.082187" y="15.84" style="stroke: #000000; stroke-width: 2"/>
      </g>
     </g>
     <g id="text_3">
      <!-- 1.0 -->
      <g transform="translate(256.572187 369.364062) scale(0.18 -0.18)">
       <defs>
        <path id="ArialMT-31" d="M 2384 0 
L 1822 0 
L 1822 3584 
Q 1619 3391 1289 3197 
Q 959 3003 697 2906 
L 697 3450 
Q 1169 3672 1522 3987 
Q 1875 4303 2022 4600 
L 2384 4600 
L 2384 0 
z
" transform="scale(0.015625)"/>
       </defs>
       <use xlink:href="#ArialMT-31"/>
       <use xlink:href="#ArialMT-2e" x="55.615234"/>
       <use xlink:href="#ArialMT-30" x="83.398438"/>
      </g>
     </g>
    </g>
    <g id="xtick_4">
     <g id="line2d_10">
      <path d="M 370.536733 348.48 
L 370.536733 15.84 
" clip-path="url(#p6ce8e8607e)" style="fill: none; stroke-dasharray: 7.4,3.2; stroke-dashoffset: 0; stroke: #d3d3d3; stroke-opacity: 0.3; stroke-width: 2"/>
     </g>
     <g id="line2d_11">
      <g>
       <use xlink:href="#mca8ffa3bbf" x="370.536733" y="348.48" style="stroke: #000000; stroke-width: 2"/>
      </g>
     </g>
     <g id="line2d_12">
      <g>
       <use xlink:href="#m436abd0930" x="370.536733" y="15.84" style="stroke: #000000; stroke-width: 2"/>
      </g>
     </g>
     <g id="text_4">
      <!-- 1.5 -->
      <g transform="translate(358.026733 369.364062) scale(0.18 -0.18)">
       <use xlink:href="#ArialMT-31"/>
       <use xlink:href="#ArialMT-2e" x="55.615234"/>
       <use xlink:href="#ArialMT-35" x="83.398438"/>
      </g>
     </g>
    </g>
    <g id="xtick_5">
     <g id="line2d_13">
      <path d="M 471.991278 348.48 
L 471.991278 15.84 
" clip-path="url(#p6ce8e8607e)" style="fill: none; stroke-dasharray: 7.4,3.2; stroke-dashoffset: 0; stroke: #d3d3d3; stroke-opacity: 0.3; stroke-width: 2"/>
     </g>
     <g id="line2d_14">
      <g>
       <use xlink:href="#mca8ffa3bbf" x="471.991278" y="348.48" style="stroke: #000000; stroke-width: 2"/>
      </g>
     </g>
     <g id="line2d_15">
      <g>
       <use xlink:href="#m436abd0930" x="471.991278" y="15.84" style="stroke: #000000; stroke-width: 2"/>
      </g>
     </g>
     <g id="text_5">
      <!-- 2.0 -->
      <g transform="translate(459.481278 369.364062) scale(0.18 -0.18)">
       <defs>
        <path id="ArialMT-32" d="M 3222 541 
L 3222 0 
L 194 0 
Q 188 203 259 391 
Q 375 700 629 1000 
Q 884 1300 1366 1694 
Q 2113 2306 2375 2664 
Q 2638 3022 2638 3341 
Q 2638 3675 2398 3904 
Q 2159 4134 1775 4134 
Q 1369 4134 1125 3890 
Q 881 3647 878 3216 
L 300 3275 
Q 359 3922 746 4261 
Q 1134 4600 1788 4600 
Q 2447 4600 2831 4234 
Q 3216 3869 3216 3328 
Q 3216 3053 3103 2787 
Q 2991 2522 2730 2228 
Q 2469 1934 1863 1422 
Q 1356 997 1212 845 
Q 1069 694 975 541 
L 3222 541 
z
" transform="scale(0.015625)"/>
       </defs>
       <use xlink:href="#ArialMT-32"/>
       <use xlink:href="#ArialMT-2e" x="55.615234"/>
       <use xlink:href="#ArialMT-30" x="83.398438"/>
      </g>
     </g>
    </g>
    <g id="xtick_6">
     <g id="line2d_16">
      <defs>
       <path id="mb05e774fa3" d="M 0 0 
L 0 -5 
" style="stroke: #000000"/>
      </defs>
      <g>
       <use xlink:href="#mb05e774fa3" x="45.882188" y="348.48" style="stroke: #000000"/>
      </g>
     </g>
     <g id="line2d_17">
      <defs>
       <path id="m4309bd7e44" d="M 0 0 
L 0 5 
" style="stroke: #000000"/>
      </defs>
      <g>
       <use xlink:href="#m4309bd7e44" x="45.882188" y="15.84" style="stroke: #000000"/>
      </g>
     </g>
    </g>
    <g id="xtick_7">
     <g id="line2d_18">
      <g>
       <use xlink:href="#mb05e774fa3" x="86.464006" y="348.48" style="stroke: #000000"/>
      </g>
     </g>
     <g id="line2d_19">
      <g>
       <use xlink:href="#m4309bd7e44" x="86.464006" y="15.84" style="stroke: #000000"/>
      </g>
     </g>
    </g>
    <g id="xtick_8">
     <g id="line2d_20">
      <g>
       <use xlink:href="#mb05e774fa3" x="106.754915" y="348.48" style="stroke: #000000"/>
      </g>
     </g>
     <g id="line2d_21">
      <g>
       <use xlink:href="#m4309bd7e44" x="106.754915" y="15.84" style="stroke: #000000"/>
      </g>
     </g>
    </g>
    <g id="xtick_9">
     <g id="line2d_22">
      <g>
       <use xlink:href="#mb05e774fa3" x="127.045824" y="348.48" style="stroke: #000000"/>
      </g>
     </g>
     <g id="line2d_23">
      <g>
       <use xlink:href="#m4309bd7e44" x="127.045824" y="15.84" style="stroke: #000000"/>
      </g>
     </g>
    </g>
    <g id="xtick_10">
     <g id="line2d_24">
      <g>
       <use xlink:href="#mb05e774fa3" x="147.336733" y="348.48" style="stroke: #000000"/>
      </g>
     </g>
     <g id="line2d_25">
      <g>
       <use xlink:href="#m4309bd7e44" x="147.336733" y="15.84" style="stroke: #000000"/>
      </g>
     </g>
    </g>
    <g id="xtick_11">
     <g id="line2d_26">
      <g>
       <use xlink:href="#mb05e774fa3" x="187.918551" y="348.48" style="stroke: #000000"/>
      </g>
     </g>
     <g id="line2d_27">
      <g>
       <use xlink:href="#m4309bd7e44" x="187.918551" y="15.84" style="stroke: #000000"/>
      </g>
     </g>
    </g>
    <g id="xtick_12">
     <g id="line2d_28">
      <g>
       <use xlink:href="#mb05e774fa3" x="208.20946" y="348.48" style="stroke: #000000"/>
      </g>
     </g>
     <g id="line2d_29">
      <g>
       <use xlink:href="#m4309bd7e44" x="208.20946" y="15.84" style="stroke: #000000"/>
      </g>
     </g>
    </g>
    <g id="xtick_13">
     <g id="line2d_30">
      <g>
       <use xlink:href="#mb05e774fa3" x="228.500369" y="348.48" style="stroke: #000000"/>
      </g>
     </g>
     <g id="line2d_31">
      <g>
       <use xlink:href="#m4309bd7e44" x="228.500369" y="15.84" style="stroke: #000000"/>
      </g>
     </g>
    </g>
    <g id="xtick_14">
     <g id="line2d_32">
      <g>
       <use xlink:href="#mb05e774fa3" x="248.791278" y="348.48" style="stroke: #000000"/>
      </g>
     </g>
     <g id="line2d_33">
      <g>
       <use xlink:href="#m4309bd7e44" x="248.791278" y="15.84" style="stroke: #000000"/>
      </g>
     </g>
    </g>
    <g id="xtick_15">
     <g id="line2d_34">
      <g>
       <use xlink:href="#mb05e774fa3" x="289.373097" y="348.48" style="stroke: #000000"/>
      </g>
     </g>
     <g id="line2d_35">
      <g>
       <use xlink:href="#m4309bd7e44" x="289.373097" y="15.84" style="stroke: #000000"/>
      </g>
     </g>
    </g>
    <g id="xtick_16">
     <g id="line2d_36">
      <g>
       <use xlink:href="#mb05e774fa3" x="309.664006" y="348.48" style="stroke: #000000"/>
      </g>
     </g>
     <g id="line2d_37">
      <g>
       <use xlink:href="#m4309bd7e44" x="309.664006" y="15.84" style="stroke: #000000"/>
      </g>
     </g>
    </g>
    <g id="xtick_17">
     <g id="line2d_38">
      <g>
       <use xlink:href="#mb05e774fa3" x="329.954915" y="348.48" style="stroke: #000000"/>
      </g>
     </g>
     <g id="line2d_39">
      <g>
       <use xlink:href="#m4309bd7e44" x="329.954915" y="15.84" style="stroke: #000000"/>
      </g>
     </g>
    </g>
    <g id="xtick_18">
     <g id="line2d_40">
      <g>
       <use xlink:href="#mb05e774fa3" x="350.245824" y="348.48" style="stroke: #000000"/>
      </g>
     </g>
     <g id="line2d_41">
      <g>
       <use xlink:href="#m4309bd7e44" x="350.245824" y="15.84" style="stroke: #000000"/>
      </g>
     </g>
    </g>
    <g id="xtick_19">
     <g id="line2d_42">
      <g>
       <use xlink:href="#mb05e774fa3" x="390.827642" y="348.48" style="stroke: #000000"/>
      </g>
     </g>
     <g id="line2d_43">
      <g>
       <use xlink:href="#m4309bd7e44" x="390.827642" y="15.84" style="stroke: #000000"/>
      </g>
     </g>
    </g>
    <g id="xtick_20">
     <g id="line2d_44">
      <g>
       <use xlink:href="#mb05e774fa3" x="411.118551" y="348.48" style="stroke: #000000"/>
      </g>
     </g>
     <g id="line2d_45">
      <g>
       <use xlink:href="#m4309bd7e44" x="411.118551" y="15.84" style="stroke: #000000"/>
      </g>
     </g>
    </g>
    <g id="xtick_21">
     <g id="line2d_46">
      <g>
       <use xlink:href="#mb05e774fa3" x="431.40946" y="348.48" style="stroke: #000000"/>
      </g>
     </g>
     <g id="line2d_47">
      <g>
       <use xlink:href="#m4309bd7e44" x="431.40946" y="15.84" style="stroke: #000000"/>
      </g>
     </g>
    </g>
    <g id="xtick_22">
     <g id="line2d_48">
      <g>
       <use xlink:href="#mb05e774fa3" x="451.700369" y="348.48" style="stroke: #000000"/>
      </g>
     </g>
     <g id="line2d_49">
      <g>
       <use xlink:href="#m4309bd7e44" x="451.700369" y="15.84" style="stroke: #000000"/>
      </g>
     </g>
    </g>
    <g id="xtick_23">
     <g id="line2d_50">
      <g>
       <use xlink:href="#mb05e774fa3" x="492.282187" y="348.48" style="stroke: #000000"/>
      </g>
     </g>
     <g id="line2d_51">
      <g>
       <use xlink:href="#m4309bd7e44" x="492.282187" y="15.84" style="stroke: #000000"/>
      </g>
     </g>
    </g>
    <g id="text_6">
     <!-- Phase -->
     <g transform="translate(243.564375 389.825625) scale(0.18 -0.18)">
      <defs>
       <path id="ArialMT-50" d="M 494 0 
L 494 4581 
L 2222 4581 
Q 2678 4581 2919 4538 
Q 3256 4481 3484 4323 
Q 3713 4166 3852 3881 
Q 3991 3597 3991 3256 
Q 3991 2672 3619 2267 
Q 3247 1863 2275 1863 
L 1100 1863 
L 1100 0 
L 494 0 
z
M 1100 2403 
L 2284 2403 
Q 2872 2403 3119 2622 
Q 3366 2841 3366 3238 
Q 3366 3525 3220 3729 
Q 3075 3934 2838 4000 
Q 2684 4041 2272 4041 
L 1100 4041 
L 1100 2403 
z
" transform="scale(0.015625)"/>
       <path id="ArialMT-68" d="M 422 0 
L 422 4581 
L 984 4581 
L 984 2938 
Q 1378 3394 1978 3394 
Q 2347 3394 2619 3248 
Q 2891 3103 3008 2847 
Q 3125 2591 3125 2103 
L 3125 0 
L 2563 0 
L 2563 2103 
Q 2563 2525 2380 2717 
Q 2197 2909 1863 2909 
Q 1613 2909 1392 2779 
Q 1172 2650 1078 2428 
Q 984 2206 984 1816 
L 984 0 
L 422 0 
z
" transform="scale(0.015625)"/>
       <path id="ArialMT-61" d="M 2588 409 
Q 2275 144 1986 34 
Q 1697 -75 1366 -75 
Q 819 -75 525 192 
Q 231 459 231 875 
Q 231 1119 342 1320 
Q 453 1522 633 1644 
Q 813 1766 1038 1828 
Q 1203 1872 1538 1913 
Q 2219 1994 2541 2106 
Q 2544 2222 2544 2253 
Q 2544 2597 2384 2738 
Q 2169 2928 1744 2928 
Q 1347 2928 1158 2789 
Q 969 2650 878 2297 
L 328 2372 
Q 403 2725 575 2942 
Q 747 3159 1072 3276 
Q 1397 3394 1825 3394 
Q 2250 3394 2515 3294 
Q 2781 3194 2906 3042 
Q 3031 2891 3081 2659 
Q 3109 2516 3109 2141 
L 3109 1391 
Q 3109 606 3145 398 
Q 3181 191 3288 0 
L 2700 0 
Q 2613 175 2588 409 
z
M 2541 1666 
Q 2234 1541 1622 1453 
Q 1275 1403 1131 1340 
Q 988 1278 909 1158 
Q 831 1038 831 891 
Q 831 666 1001 516 
Q 1172 366 1500 366 
Q 1825 366 2078 508 
Q 2331 650 2450 897 
Q 2541 1088 2541 1459 
L 2541 1666 
z
" transform="scale(0.015625)"/>
       <path id="ArialMT-73" d="M 197 991 
L 753 1078 
Q 800 744 1014 566 
Q 1228 388 1613 388 
Q 2000 388 2187 545 
Q 2375 703 2375 916 
Q 2375 1106 2209 1216 
Q 2094 1291 1634 1406 
Q 1016 1563 777 1677 
Q 538 1791 414 1992 
Q 291 2194 291 2438 
Q 291 2659 392 2848 
Q 494 3038 669 3163 
Q 800 3259 1026 3326 
Q 1253 3394 1513 3394 
Q 1903 3394 2198 3281 
Q 2494 3169 2634 2976 
Q 2775 2784 2828 2463 
L 2278 2388 
Q 2241 2644 2061 2787 
Q 1881 2931 1553 2931 
Q 1166 2931 1000 2803 
Q 834 2675 834 2503 
Q 834 2394 903 2306 
Q 972 2216 1119 2156 
Q 1203 2125 1616 2013 
Q 2213 1853 2448 1751 
Q 2684 1650 2818 1456 
Q 2953 1263 2953 975 
Q 2953 694 2789 445 
Q 2625 197 2315 61 
Q 2006 -75 1616 -75 
Q 969 -75 630 194 
Q 291 463 197 991 
z
" transform="scale(0.015625)"/>
       <path id="ArialMT-65" d="M 2694 1069 
L 3275 997 
Q 3138 488 2766 206 
Q 2394 -75 1816 -75 
Q 1088 -75 661 373 
Q 234 822 234 1631 
Q 234 2469 665 2931 
Q 1097 3394 1784 3394 
Q 2450 3394 2872 2941 
Q 3294 2488 3294 1666 
Q 3294 1616 3291 1516 
L 816 1516 
Q 847 969 1125 678 
Q 1403 388 1819 388 
Q 2128 388 2347 550 
Q 2566 713 2694 1069 
z
M 847 1978 
L 2700 1978 
Q 2663 2397 2488 2606 
Q 2219 2931 1791 2931 
Q 1403 2931 1139 2672 
Q 875 2413 847 1978 
z
" transform="scale(0.015625)"/>
      </defs>
      <use xlink:href="#ArialMT-50"/>
      <use xlink:href="#ArialMT-68" x="66.699219"/>
      <use xlink:href="#ArialMT-61" x="122.314453"/>
      <use xlink:href="#ArialMT-73" x="177.929688"/>
      <use xlink:href="#ArialMT-65" x="227.929688"/>
     </g>
    </g>
   </g>
   <g id="matplotlib.axis_2">
    <g id="ytick_1">
     <g id="line2d_52">
      <path d="M 45.882188 348.48 
L 492.282187 348.48 
" clip-path="url(#p6ce8e8607e)" style="fill: none; stroke-dasharray: 7.4,3.2; stroke-dashoffset: 0; stroke: #d3d3d3; stroke-opacity: 0.3; stroke-width: 2"/>
     </g>
     <g id="line2d_53">
      <defs>
       <path id="m4385f90c6e" d="M 0 0 
L 10 0 
" style="stroke: #000000; stroke-width: 2"/>
      </defs>
      <g>
       <use xlink:href="#m4385f90c6e" x="45.882188" y="348.48" style="stroke: #000000; stroke-width: 2"/>
      </g>
     </g>
     <g id="line2d_54">
      <defs>
       <path id="ma3918939f2" d="M 0 0 
L -10 0 
" style="stroke: #000000; stroke-width: 2"/>
      </defs>
      <g>
       <use xlink:href="#ma3918939f2" x="492.282187" y="348.48" style="stroke: #000000; stroke-width: 2"/>
      </g>
     </g>
     <g id="text_7">
      <!-- 0 -->
      <g transform="translate(27.8725 354.922031) scale(0.18 -0.18)">
       <use xlink:href="#ArialMT-30"/>
      </g>
     </g>
    </g>
    <g id="ytick_2">
     <g id="line2d_55">
      <path d="M 45.882188 264.020625 
L 492.282187 264.020625 
" clip-path="url(#p6ce8e8607e)" style="fill: none; stroke-dasharray: 7.4,3.2; stroke-dashoffset: 0; stroke: #d3d3d3; stroke-opacity: 0.3; stroke-width: 2"/>
     </g>
     <g id="line2d_56">
      <g>
       <use xlink:href="#m4385f90c6e" x="45.882188" y="264.020625" style="stroke: #000000; stroke-width: 2"/>
      </g>
     </g>
     <g id="line2d_57">
      <g>
       <use xlink:href="#ma3918939f2" x="492.282187" y="264.020625" style="stroke: #000000; stroke-width: 2"/>
      </g>
     </g>
     <g id="text_8">
      <!-- 1 -->
      <g transform="translate(27.8725 270.462656) scale(0.18 -0.18)">
       <use xlink:href="#ArialMT-31"/>
      </g>
     </g>
    </g>
    <g id="ytick_3">
     <g id="line2d_58">
      <path d="M 45.882188 179.56125 
L 492.282187 179.56125 
" clip-path="url(#p6ce8e8607e)" style="fill: none; stroke-dasharray: 7.4,3.2; stroke-dashoffset: 0; stroke: #d3d3d3; stroke-opacity: 0.3; stroke-width: 2"/>
     </g>
     <g id="line2d_59">
      <g>
       <use xlink:href="#m4385f90c6e" x="45.882188" y="179.56125" style="stroke: #000000; stroke-width: 2"/>
      </g>
     </g>
     <g id="line2d_60">
      <g>
       <use xlink:href="#ma3918939f2" x="492.282187" y="179.56125" style="stroke: #000000; stroke-width: 2"/>
      </g>
     </g>
     <g id="text_9">
      <!-- 2 -->
      <g transform="translate(27.8725 186.003281) scale(0.18 -0.18)">
       <use xlink:href="#ArialMT-32"/>
      </g>
     </g>
    </g>
    <g id="ytick_4">
     <g id="line2d_61">
      <path d="M 45.882188 95.101875 
L 492.282187 95.101875 
" clip-path="url(#p6ce8e8607e)" style="fill: none; stroke-dasharray: 7.4,3.2; stroke-dashoffset: 0; stroke: #d3d3d3; stroke-opacity: 0.3; stroke-width: 2"/>
     </g>
     <g id="line2d_62">
      <g>
       <use xlink:href="#m4385f90c6e" x="45.882188" y="95.101875" style="stroke: #000000; stroke-width: 2"/>
      </g>
     </g>
     <g id="line2d_63">
      <g>
       <use xlink:href="#ma3918939f2" x="492.282187" y="95.101875" style="stroke: #000000; stroke-width: 2"/>
      </g>
     </g>
     <g id="text_10">
      <!-- 3 -->
      <g transform="translate(27.8725 101.543906) scale(0.18 -0.18)">
       <defs>
        <path id="ArialMT-33" d="M 269 1209 
L 831 1284 
Q 928 806 1161 595 
Q 1394 384 1728 384 
Q 2125 384 2398 659 
Q 2672 934 2672 1341 
Q 2672 1728 2419 1979 
Q 2166 2231 1775 2231 
Q 1616 2231 1378 2169 
L 1441 2663 
Q 1497 2656 1531 2656 
Q 1891 2656 2178 2843 
Q 2466 3031 2466 3422 
Q 2466 3731 2256 3934 
Q 2047 4138 1716 4138 
Q 1388 4138 1169 3931 
Q 950 3725 888 3313 
L 325 3413 
Q 428 3978 793 4289 
Q 1159 4600 1703 4600 
Q 2078 4600 2393 4439 
Q 2709 4278 2876 4000 
Q 3044 3722 3044 3409 
Q 3044 3113 2884 2869 
Q 2725 2625 2413 2481 
Q 2819 2388 3044 2092 
Q 3269 1797 3269 1353 
Q 3269 753 2831 336 
Q 2394 -81 1725 -81 
Q 1122 -81 723 278 
Q 325 638 269 1209 
z
" transform="scale(0.015625)"/>
       </defs>
       <use xlink:href="#ArialMT-33"/>
      </g>
     </g>
    </g>
    <g id="ytick_5">
     <g id="line2d_64">
      <defs>
       <path id="mc24f5f3e53" d="M 0 0 
L 5 0 
" style="stroke: #000000"/>
      </defs>
      <g>
       <use xlink:href="#mc24f5f3e53" x="45.882188" y="331.588125" style="stroke: #000000"/>
      </g>
     </g>
     <g id="line2d_65">
      <defs>
       <path id="m7d3a04479a" d="M 0 0 
L -5 0 
" style="stroke: #000000"/>
      </defs>
      <g>
       <use xlink:href="#m7d3a04479a" x="492.282187" y="331.588125" style="stroke: #000000"/>
      </g>
     </g>
    </g>
    <g id="ytick_6">
     <g id="line2d_66">
      <g>
       <use xlink:href="#mc24f5f3e53" x="45.882188" y="314.69625" style="stroke: #000000"/>
      </g>
     </g>
     <g id="line2d_67">
      <g>
       <use xlink:href="#m7d3a04479a" x="492.282187" y="314.69625" style="stroke: #000000"/>
      </g>
     </g>
    </g>
    <g id="ytick_7">
     <g id="line2d_68">
      <g>
       <use xlink:href="#mc24f5f3e53" x="45.882188" y="297.804375" style="stroke: #000000"/>
      </g>
     </g>
     <g id="line2d_69">
      <g>
       <use xlink:href="#m7d3a04479a" x="492.282187" y="297.804375" style="stroke: #000000"/>
      </g>
     </g>
    </g>
    <g id="ytick_8">
     <g id="line2d_70">
      <g>
       <use xlink:href="#mc24f5f3e53" x="45.882188" y="280.9125" style="stroke: #000000"/>
      </g>
     </g>
     <g id="line2d_71">
      <g>
       <use xlink:href="#m7d3a04479a" x="492.282187" y="280.9125" style="stroke: #000000"/>
      </g>
     </g>
    </g>
    <g id="ytick_9">
     <g id="line2d_72">
      <g>
       <use xlink:href="#mc24f5f3e53" x="45.882188" y="247.12875" style="stroke: #000000"/>
      </g>
     </g>
     <g id="line2d_73">
      <g>
       <use xlink:href="#m7d3a04479a" x="492.282187" y="247.12875" style="stroke: #000000"/>
      </g>
     </g>
    </g>
    <g id="ytick_10">
     <g id="line2d_74">
      <g>
       <use xlink:href="#mc24f5f3e53" x="45.882188" y="230.236875" style="stroke: #000000"/>
      </g>
     </g>
     <g id="line2d_75">
      <g>
       <use xlink:href="#m7d3a04479a" x="492.282187" y="230.236875" style="stroke: #000000"/>
      </g>
     </g>
    </g>
    <g id="ytick_11">
     <g id="line2d_76">
      <g>
       <use xlink:href="#mc24f5f3e53" x="45.882188" y="213.345" style="stroke: #000000"/>
      </g>
     </g>
     <g id="line2d_77">
      <g>
       <use xlink:href="#m7d3a04479a" x="492.282187" y="213.345" style="stroke: #000000"/>
      </g>
     </g>
    </g>
    <g id="ytick_12">
     <g id="line2d_78">
      <g>
       <use xlink:href="#mc24f5f3e53" x="45.882188" y="196.453125" style="stroke: #000000"/>
      </g>
     </g>
     <g id="line2d_79">
      <g>
       <use xlink:href="#m7d3a04479a" x="492.282187" y="196.453125" style="stroke: #000000"/>
      </g>
     </g>
    </g>
    <g id="ytick_13">
     <g id="line2d_80">
      <g>
       <use xlink:href="#mc24f5f3e53" x="45.882188" y="162.669375" style="stroke: #000000"/>
      </g>
     </g>
     <g id="line2d_81">
      <g>
       <use xlink:href="#m7d3a04479a" x="492.282187" y="162.669375" style="stroke: #000000"/>
      </g>
     </g>
    </g>
    <g id="ytick_14">
     <g id="line2d_82">
      <g>
       <use xlink:href="#mc24f5f3e53" x="45.882188" y="145.7775" style="stroke: #000000"/>
      </g>
     </g>
     <g id="line2d_83">
      <g>
       <use xlink:href="#m7d3a04479a" x="492.282187" y="145.7775" style="stroke: #000000"/>
      </g>
     </g>
    </g>
    <g id="ytick_15">
     <g id="line2d_84">
      <g>
       <use xlink:href="#mc24f5f3e53" x="45.882188" y="128.885625" style="stroke: #000000"/>
      </g>
     </g>
     <g id="line2d_85">
      <g>
       <use xlink:href="#m7d3a04479a" x="492.282187" y="128.885625" style="stroke: #000000"/>
      </g>
     </g>
    </g>
    <g id="ytick_16">
     <g id="line2d_86">
      <g>
       <use xlink:href="#mc24f5f3e53" x="45.882188" y="111.99375" style="stroke: #000000"/>
      </g>
     </g>
     <g id="line2d_87">
      <g>
       <use xlink:href="#m7d3a04479a" x="492.282187" y="111.99375" style="stroke: #000000"/>
      </g>
     </g>
    </g>
    <g id="ytick_17">
     <g id="line2d_88">
      <g>
       <use xlink:href="#mc24f5f3e53" x="45.882188" y="78.21" style="stroke: #000000"/>
      </g>
     </g>
     <g id="line2d_89">
      <g>
       <use xlink:href="#m7d3a04479a" x="492.282187" y="78.21" style="stroke: #000000"/>
      </g>
     </g>
    </g>
    <g id="ytick_18">
     <g id="line2d_90">
      <g>
       <use xlink:href="#mc24f5f3e53" x="45.882188" y="61.318125" style="stroke: #000000"/>
      </g>
     </g>
     <g id="line2d_91">
      <g>
       <use xlink:href="#m7d3a04479a" x="492.282187" y="61.318125" style="stroke: #000000"/>
      </g>
     </g>
    </g>
    <g id="ytick_19">
     <g id="line2d_92">
      <g>
       <use xlink:href="#mc24f5f3e53" x="45.882188" y="44.42625" style="stroke: #000000"/>
      </g>
     </g>
     <g id="line2d_93">
      <g>
       <use xlink:href="#m7d3a04479a" x="492.282187" y="44.42625" style="stroke: #000000"/>
      </g>
     </g>
    </g>
    <g id="ytick_20">
     <g id="line2d_94">
      <g>
       <use xlink:href="#mc24f5f3e53" x="45.882188" y="27.534375" style="stroke: #000000"/>
      </g>
     </g>
     <g id="line2d_95">
      <g>
       <use xlink:href="#m7d3a04479a" x="492.282187" y="27.534375" style="stroke: #000000"/>
      </g>
     </g>
    </g>
    <g id="text_11">
     <!-- Density -->
     <g transform="translate(20.084062 212.169375) rotate(-90) scale(0.18 -0.18)">
      <defs>
       <path id="ArialMT-44" d="M 494 0 
L 494 4581 
L 2072 4581 
Q 2606 4581 2888 4516 
Q 3281 4425 3559 4188 
Q 3922 3881 4101 3404 
Q 4281 2928 4281 2316 
Q 4281 1794 4159 1391 
Q 4038 988 3847 723 
Q 3656 459 3429 307 
Q 3203 156 2883 78 
Q 2563 0 2147 0 
L 494 0 
z
M 1100 541 
L 2078 541 
Q 2531 541 2789 625 
Q 3047 709 3200 863 
Q 3416 1078 3536 1442 
Q 3656 1806 3656 2325 
Q 3656 3044 3420 3430 
Q 3184 3816 2847 3947 
Q 2603 4041 2063 4041 
L 1100 4041 
L 1100 541 
z
" transform="scale(0.015625)"/>
       <path id="ArialMT-6e" d="M 422 0 
L 422 3319 
L 928 3319 
L 928 2847 
Q 1294 3394 1984 3394 
Q 2284 3394 2536 3286 
Q 2788 3178 2913 3003 
Q 3038 2828 3088 2588 
Q 3119 2431 3119 2041 
L 3119 0 
L 2556 0 
L 2556 2019 
Q 2556 2363 2490 2533 
Q 2425 2703 2258 2804 
Q 2091 2906 1866 2906 
Q 1506 2906 1245 2678 
Q 984 2450 984 1813 
L 984 0 
L 422 0 
z
" transform="scale(0.015625)"/>
       <path id="ArialMT-69" d="M 425 3934 
L 425 4581 
L 988 4581 
L 988 3934 
L 425 3934 
z
M 425 0 
L 425 3319 
L 988 3319 
L 988 0 
L 425 0 
z
" transform="scale(0.015625)"/>
       <path id="ArialMT-74" d="M 1650 503 
L 1731 6 
Q 1494 -44 1306 -44 
Q 1000 -44 831 53 
Q 663 150 594 308 
Q 525 466 525 972 
L 525 2881 
L 113 2881 
L 113 3319 
L 525 3319 
L 525 4141 
L 1084 4478 
L 1084 3319 
L 1650 3319 
L 1650 2881 
L 1084 2881 
L 1084 941 
Q 1084 700 1114 631 
Q 1144 563 1211 522 
Q 1278 481 1403 481 
Q 1497 481 1650 503 
z
" transform="scale(0.015625)"/>
       <path id="ArialMT-79" d="M 397 -1278 
L 334 -750 
Q 519 -800 656 -800 
Q 844 -800 956 -737 
Q 1069 -675 1141 -563 
Q 1194 -478 1313 -144 
Q 1328 -97 1363 -6 
L 103 3319 
L 709 3319 
L 1400 1397 
Q 1534 1031 1641 628 
Q 1738 1016 1872 1384 
L 2581 3319 
L 3144 3319 
L 1881 -56 
Q 1678 -603 1566 -809 
Q 1416 -1088 1222 -1217 
Q 1028 -1347 759 -1347 
Q 597 -1347 397 -1278 
z
" transform="scale(0.015625)"/>
      </defs>
      <use xlink:href="#ArialMT-44"/>
      <use xlink:href="#ArialMT-65" x="72.216797"/>
      <use xlink:href="#ArialMT-6e" x="127.832031"/>
      <use xlink:href="#ArialMT-73" x="183.447266"/>
      <use xlink:href="#ArialMT-69" x="233.447266"/>
      <use xlink:href="#ArialMT-74" x="255.664062"/>
      <use xlink:href="#ArialMT-79" x="283.447266"/>
     </g>
    </g>
   </g>
   <g id="line2d_96">
    <path d="M 66.173097 264.020625 
L 471.991278 264.020625 
" clip-path="url(#p6ce8e8607e)" style="fill: none; stroke-dasharray: 2,3.3; stroke-dashoffset: 0; stroke: #808080; stroke-width: 2"/>
   </g>
   <g id="line2d_97">
    <path d="M 66.173097 288.286033 
L 69.019517 283.2069 
L 71.865937 277.669213 
L 74.712357 271.677749 
L 77.965408 264.296788 
L 81.625091 255.372055 
L 85.691406 244.817374 
L 91.384246 229.344549 
L 98.296981 210.650398 
L 101.956664 201.433748 
L 104.803084 194.870959 
L 107.242873 189.798877 
L 109.27603 186.034617 
L 111.309187 182.744956 
L 112.935713 180.485737 
L 114.562239 178.580006 
L 116.188764 177.045329 
L 117.408659 176.146576 
L 118.628553 175.469444 
L 119.848447 175.017547 
L 121.068342 174.793307 
L 122.288236 174.797928 
L 123.50813 175.031387 
L 124.728025 175.492428 
L 125.947919 176.178581 
L 127.167813 177.086184 
L 128.794339 178.632318 
L 130.420865 180.54902 
L 132.047391 182.818632 
L 134.080548 186.120345 
L 136.113705 189.895485 
L 138.553494 194.978934 
L 140.993282 200.576498 
L 144.246334 208.668473 
L 148.312648 219.461485 
L 160.918223 253.434879 
L 164.577906 262.485139 
L 167.830958 269.994105 
L 171.084009 276.941598 
L 173.930429 282.536749 
L 176.77685 287.673368 
L 179.62327 292.355246 
L 182.46969 296.593902 
L 185.31611 300.406538 
L 188.16253 303.814216 
L 191.00895 306.8403 
L 193.85537 309.509154 
L 196.70179 311.845099 
L 199.54821 313.871594 
L 202.394631 315.610627 
L 205.241051 317.082266 
L 208.087471 318.304344 
L 210.933891 319.292256 
L 213.780311 320.058831 
L 216.626731 320.614251 
L 219.473151 320.966022 
L 222.319571 321.118947 
L 225.165991 321.07513 
L 228.012412 320.833967 
L 230.858832 320.392151 
L 233.705252 319.743671 
L 236.551672 318.879826 
L 239.398092 317.789247 
L 242.244512 316.45795 
L 245.090932 314.869431 
L 247.937352 313.00483 
L 250.783772 310.843178 
L 253.630193 308.361767 
L 256.476613 305.536664 
L 259.323033 302.343418 
L 262.169453 298.757965 
L 265.015873 294.757793 
L 267.862293 290.323351 
L 269.082187 288.286033 
L 269.082187 288.286033 
" clip-path="url(#p6ce8e8607e)" style="fill: none; stroke-dasharray: 7.4,3.2; stroke-dashoffset: 0; stroke: #ff7f50; stroke-width: 2"/>
   </g>
   <g id="line2d_98">
    <path d="M 269.082187 288.286033 
L 271.928608 283.2069 
L 274.775028 277.669213 
L 277.621448 271.677749 
L 280.874499 264.296788 
L 284.534182 255.372055 
L 288.600497 244.817374 
L 294.293337 229.344549 
L 301.206072 210.650398 
L 304.865755 201.433748 
L 307.712175 194.870959 
L 310.151963 189.798877 
L 312.185121 186.034617 
L 314.218278 182.744956 
L 315.844804 180.485737 
L 317.471329 178.580006 
L 319.097855 177.045329 
L 320.31775 176.146576 
L 321.537644 175.469444 
L 322.757538 175.017547 
L 323.977433 174.793307 
L 325.197327 174.797928 
L 326.417221 175.031387 
L 327.637116 175.492428 
L 328.85701 176.178581 
L 330.076904 177.086184 
L 331.70343 178.632318 
L 333.329956 180.54902 
L 334.956482 182.818632 
L 336.989639 186.120345 
L 339.022796 189.895485 
L 341.462585 194.978934 
L 343.902373 200.576498 
L 347.155425 208.668473 
L 351.221739 219.461485 
L 363.827314 253.434879 
L 367.486997 262.485139 
L 370.740049 269.994105 
L 373.9931 276.941598 
L 376.83952 282.536749 
L 379.68594 287.673368 
L 382.532361 292.355246 
L 385.378781 296.593902 
L 388.225201 300.406538 
L 391.071621 303.814216 
L 393.918041 306.8403 
L 396.764461 309.509154 
L 399.610881 311.845099 
L 402.457301 313.871594 
L 405.303721 315.610627 
L 408.150142 317.082266 
L 410.996562 318.304344 
L 413.842982 319.292256 
L 416.689402 320.058831 
L 419.535822 320.614251 
L 422.382242 320.966022 
L 425.228662 321.118947 
L 428.075082 321.07513 
L 430.921502 320.833967 
L 433.767923 320.392151 
L 436.614343 319.743671 
L 439.460763 318.879826 
L 442.307183 317.789247 
L 445.153603 316.45795 
L 448.000023 314.869431 
L 450.846443 313.00483 
L 453.692863 310.843178 
L 456.539284 308.361767 
L 459.385704 305.536664 
L 462.232124 302.343418 
L 465.078544 298.757965 
L 467.924964 294.757793 
L 470.771384 290.323351 
L 471.991278 288.286033 
L 471.991278 288.286033 
" clip-path="url(#p6ce8e8607e)" style="fill: none; stroke-dasharray: 7.4,3.2; stroke-dashoffset: 0; stroke: #ff7f50; stroke-width: 2"/>
   </g>
   <g id="line2d_99">
    <path d="M 66.173097 338.630439 
L 67.799622 336.859186 
L 69.426148 334.77018 
L 71.052674 332.314945 
L 72.6792 329.439897 
L 74.305725 326.086787 
L 75.932251 322.19342 
L 77.558777 317.694738 
L 79.185303 312.524348 
L 80.811829 306.616524 
L 82.438354 299.908755 
L 84.06488 292.34482 
L 85.691406 283.878378 
L 87.724563 271.978437 
L 89.75772 258.596938 
L 91.790878 243.769879 
L 94.230666 224.225237 
L 97.077086 199.456147 
L 106.42961 115.751691 
L 108.462767 100.461933 
L 110.089293 89.851798 
L 111.309187 83.015954 
L 112.529081 77.252717 
L 113.748976 72.647416 
L 114.562239 70.255489 
L 115.375501 68.42562 
L 116.188764 67.170301 
L 117.002027 66.498143 
L 117.408659 66.382352 
L 117.81529 66.41377 
L 118.221922 66.592344 
L 118.628553 66.917764 
L 119.441816 68.006656 
L 120.255079 69.672967 
L 121.068342 71.905305 
L 121.881605 74.688502 
L 123.101499 79.854195 
L 124.321393 86.139101 
L 125.541288 93.451071 
L 127.167813 104.615649 
L 129.200971 120.456275 
L 131.640759 141.468068 
L 136.520337 186.24709 
L 140.18002 218.820636 
L 142.619808 238.820611 
L 145.059597 256.969177 
L 147.092754 270.51945 
L 149.125911 282.589093 
L 151.159069 293.194183 
L 152.785594 300.664352 
L 154.41212 307.283949 
L 156.038646 313.11003 
L 157.665172 318.205586 
L 159.291697 322.636526 
L 160.918223 326.469187 
L 162.544749 329.768386 
L 164.171275 332.595941 
L 165.797801 335.009633 
L 167.424326 337.062517 
L 169.050852 338.802509 
L 170.677378 340.272171 
L 172.710535 341.785095 
L 174.743692 342.993417 
L 176.77685 343.943178 
L 178.810007 344.664789 
L 180.843164 345.170174 
L 182.876321 345.447872 
L 184.502847 345.478977 
L 186.129373 345.298155 
L 187.349267 344.987905 
L 188.569161 344.490334 
L 189.789056 343.762151 
L 191.00895 342.750627 
L 192.228844 341.393316 
L 193.448739 339.618396 
L 194.668633 337.345842 
L 195.888527 334.48969 
L 197.108422 330.961583 
L 198.328316 326.675733 
L 199.54821 321.555322 
L 200.768105 315.54019 
L 201.987999 308.595469 
L 203.614525 297.894866 
L 205.241051 285.666348 
L 207.274208 268.682062 
L 212.560417 223.319374 
L 214.186942 211.994236 
L 215.406837 205.196948 
L 216.2201 201.634174 
L 217.033363 198.927005 
L 217.846625 197.127503 
L 218.253257 196.579767 
L 218.659888 196.270669 
L 219.06652 196.201725 
L 219.473151 196.373276 
L 219.879783 196.784479 
L 220.286414 197.433314 
L 221.099677 199.430049 
L 221.91294 202.324723 
L 222.726203 206.061837 
L 223.946097 213.089512 
L 225.165991 221.562952 
L 226.792517 234.532533 
L 230.045569 263.077781 
L 232.485357 283.803266 
L 234.518515 299.112833 
L 236.14504 309.640628 
L 237.771566 318.515462 
L 238.991461 324.098957 
L 240.211355 328.813734 
L 241.431249 332.728907 
L 242.651144 335.926444 
L 243.871038 338.494066 
L 245.090932 340.519523 
L 246.310827 342.086313 
L 247.530721 343.27077 
L 248.750615 344.140347 
L 249.97051 344.752867 
L 251.190404 345.156506 
L 252.81693 345.435997 
L 254.443455 345.482426 
L 256.476613 345.2834 
L 258.50977 344.847136 
L 260.542927 344.193858 
L 262.576084 343.318361 
L 264.609242 342.195658 
L 266.642399 340.784415 
L 268.268925 339.410602 
L 269.082187 338.630439 
L 269.082187 338.630439 
" clip-path="url(#p6ce8e8607e)" style="fill: none; stroke-dasharray: 12.8,3.2,2,3.2; stroke-dashoffset: 0; stroke: #008000; stroke-width: 2"/>
   </g>
   <g id="line2d_100">
    <path d="M 269.082187 338.630439 
L 270.708713 336.859186 
L 272.335239 334.77018 
L 273.961765 332.314945 
L 275.588291 329.439897 
L 277.214816 326.086787 
L 278.841342 322.19342 
L 280.467868 317.694738 
L 282.094394 312.524348 
L 283.72092 306.616524 
L 285.347445 299.908755 
L 286.973971 292.34482 
L 288.600497 283.878378 
L 290.633654 271.978437 
L 292.666811 258.596938 
L 294.699969 243.769879 
L 297.139757 224.225237 
L 299.986177 199.456147 
L 309.338701 115.751691 
L 311.371858 100.461933 
L 312.998384 89.851798 
L 314.218278 83.015954 
L 315.438172 77.252717 
L 316.658067 72.647416 
L 317.471329 70.255489 
L 318.284592 68.42562 
L 319.097855 67.170301 
L 319.911118 66.498143 
L 320.31775 66.382352 
L 320.724381 66.41377 
L 321.131012 66.592344 
L 321.537644 66.917764 
L 322.350907 68.006656 
L 323.16417 69.672967 
L 323.977433 71.905305 
L 324.790695 74.688502 
L 326.01059 79.854195 
L 327.230484 86.139101 
L 328.450378 93.451071 
L 330.076904 104.615649 
L 332.110061 120.456275 
L 334.54985 141.468068 
L 339.429427 186.24709 
L 343.08911 218.820636 
L 345.528899 238.820611 
L 347.968688 256.969177 
L 350.001845 270.51945 
L 352.035002 282.589093 
L 354.068159 293.194183 
L 355.694685 300.664352 
L 357.321211 307.283949 
L 358.947737 313.11003 
L 360.574263 318.205586 
L 362.200788 322.636526 
L 363.827314 326.469187 
L 365.45384 329.768386 
L 367.080366 332.595941 
L 368.706891 335.009633 
L 370.333417 337.062517 
L 371.959943 338.802509 
L 373.586469 340.272171 
L 375.619626 341.785095 
L 377.652783 342.993417 
L 379.68594 343.943178 
L 381.719098 344.664789 
L 383.752255 345.170174 
L 385.785412 345.447872 
L 387.411938 345.478977 
L 389.038464 345.298155 
L 390.258358 344.987905 
L 391.478252 344.490334 
L 392.698147 343.762151 
L 393.918041 342.750627 
L 395.137935 341.393316 
L 396.35783 339.618396 
L 397.577724 337.345842 
L 398.797618 334.48969 
L 400.017513 330.961583 
L 401.237407 326.675733 
L 402.457301 321.555322 
L 403.677196 315.54019 
L 404.89709 308.595469 
L 406.523616 297.894866 
L 408.150142 285.666348 
L 410.183299 268.682062 
L 415.469508 223.319374 
L 417.096033 211.994236 
L 418.315928 205.196948 
L 419.129191 201.634174 
L 419.942453 198.927005 
L 420.755716 197.127503 
L 421.162348 196.579767 
L 421.568979 196.270669 
L 421.975611 196.201725 
L 422.382242 196.373276 
L 422.788874 196.784479 
L 423.195505 197.433314 
L 424.008768 199.430049 
L 424.822031 202.324723 
L 425.635294 206.061837 
L 426.855188 213.089512 
L 428.075082 221.562952 
L 429.701608 234.532533 
L 432.95466 263.077781 
L 435.394448 283.803266 
L 437.427606 299.112833 
L 439.054131 309.640628 
L 440.680657 318.515462 
L 441.900552 324.098957 
L 443.120446 328.813734 
L 444.34034 332.728907 
L 445.560235 335.926444 
L 446.780129 338.494066 
L 448.000023 340.519523 
L 449.219918 342.086313 
L 450.439812 343.27077 
L 451.659706 344.140347 
L 452.879601 344.752867 
L 454.099495 345.156506 
L 455.726021 345.435997 
L 457.352546 345.482426 
L 459.385704 345.2834 
L 461.418861 344.847136 
L 463.452018 344.193858 
L 465.485175 343.318361 
L 467.518333 342.195658 
L 469.55149 340.784415 
L 471.178016 339.410602 
L 471.991278 338.630439 
L 471.991278 338.630439 
" clip-path="url(#p6ce8e8607e)" style="fill: none; stroke-dasharray: 12.8,3.2,2,3.2; stroke-dashoffset: 0; stroke: #008000; stroke-width: 2"/>
   </g>
   <g id="patch_43">
    <path d="M 45.882188 348.48 
L 45.882188 15.84 
" style="fill: none; stroke: #000000; stroke-width: 2; stroke-linejoin: miter; stroke-linecap: square"/>
   </g>
   <g id="patch_44">
    <path d="M 492.282187 348.48 
L 492.282187 15.84 
" style="fill: none; stroke: #000000; stroke-width: 2; stroke-linejoin: miter; stroke-linecap: square"/>
   </g>
   <g id="patch_45">
    <path d="M 45.882188 348.48 
L 492.282187 348.48 
" style="fill: none; stroke: #000000; stroke-width: 2; stroke-linejoin: miter; stroke-linecap: square"/>
   </g>
   <g id="patch_46">
    <path d="M 45.882188 15.84 
L 492.282187 15.84 
" style="fill: none; stroke: #000000; stroke-width: 2; stroke-linejoin: miter; stroke-linecap: square"/>
   </g>
   <g id="text_12">
    <!-- FAST #1 -->
    <g transform="translate(59.274187 39.217039) scale(0.15 -0.15)">
     <defs>
      <path id="ArialMT-46" d="M 525 0 
L 525 4581 
L 3616 4581 
L 3616 4041 
L 1131 4041 
L 1131 2622 
L 3281 2622 
L 3281 2081 
L 1131 2081 
L 1131 0 
L 525 0 
z
" transform="scale(0.015625)"/>
      <path id="ArialMT-41" d="M -9 0 
L 1750 4581 
L 2403 4581 
L 4278 0 
L 3588 0 
L 3053 1388 
L 1138 1388 
L 634 0 
L -9 0 
z
M 1313 1881 
L 2866 1881 
L 2388 3150 
Q 2169 3728 2063 4100 
Q 1975 3659 1816 3225 
L 1313 1881 
z
" transform="scale(0.015625)"/>
      <path id="ArialMT-53" d="M 288 1472 
L 859 1522 
Q 900 1178 1048 958 
Q 1197 738 1509 602 
Q 1822 466 2213 466 
Q 2559 466 2825 569 
Q 3091 672 3220 851 
Q 3350 1031 3350 1244 
Q 3350 1459 3225 1620 
Q 3100 1781 2813 1891 
Q 2628 1963 1997 2114 
Q 1366 2266 1113 2400 
Q 784 2572 623 2826 
Q 463 3081 463 3397 
Q 463 3744 659 4045 
Q 856 4347 1234 4503 
Q 1613 4659 2075 4659 
Q 2584 4659 2973 4495 
Q 3363 4331 3572 4012 
Q 3781 3694 3797 3291 
L 3216 3247 
Q 3169 3681 2898 3903 
Q 2628 4125 2100 4125 
Q 1550 4125 1298 3923 
Q 1047 3722 1047 3438 
Q 1047 3191 1225 3031 
Q 1400 2872 2139 2705 
Q 2878 2538 3153 2413 
Q 3553 2228 3743 1945 
Q 3934 1663 3934 1294 
Q 3934 928 3725 604 
Q 3516 281 3123 101 
Q 2731 -78 2241 -78 
Q 1619 -78 1198 103 
Q 778 284 539 648 
Q 300 1013 288 1472 
z
" transform="scale(0.015625)"/>
      <path id="ArialMT-54" d="M 1659 0 
L 1659 4041 
L 150 4041 
L 150 4581 
L 3781 4581 
L 3781 4041 
L 2266 4041 
L 2266 0 
L 1659 0 
z
" transform="scale(0.015625)"/>
      <path id="ArialMT-20" transform="scale(0.015625)"/>
      <path id="ArialMT-23" d="M 322 -78 
L 594 1253 
L 66 1253 
L 66 1719 
L 688 1719 
L 919 2853 
L 66 2853 
L 66 3319 
L 1013 3319 
L 1284 4659 
L 1753 4659 
L 1481 3319 
L 2466 3319 
L 2738 4659 
L 3209 4659 
L 2938 3319 
L 3478 3319 
L 3478 2853 
L 2844 2853 
L 2609 1719 
L 3478 1719 
L 3478 1253 
L 2516 1253 
L 2244 -78 
L 1775 -78 
L 2044 1253 
L 1063 1253 
L 791 -78 
L 322 -78 
z
M 1156 1719 
L 2138 1719 
L 2372 2853 
L 1388 2853 
L 1156 1719 
z
" transform="scale(0.015625)"/>
     </defs>
     <use xlink:href="#ArialMT-46"/>
     <use xlink:href="#ArialMT-41" x="55.583984"/>
     <use xlink:href="#ArialMT-53" x="122.283203"/>
     <use xlink:href="#ArialMT-54" x="188.982422"/>
     <use xlink:href="#ArialMT-20" x="248.316406"/>
     <use xlink:href="#ArialMT-23" x="276.099609"/>
     <use xlink:href="#ArialMT-31" x="331.714844"/>
    </g>
   </g>
   <g id="text_13">
    <!-- MJD 59341 -->
    <g transform="translate(59.274187 60.838639) scale(0.15 -0.15)">
     <defs>
      <path id="ArialMT-4d" d="M 475 0 
L 475 4581 
L 1388 4581 
L 2472 1338 
Q 2622 884 2691 659 
Q 2769 909 2934 1394 
L 4031 4581 
L 4847 4581 
L 4847 0 
L 4263 0 
L 4263 3834 
L 2931 0 
L 2384 0 
L 1059 3900 
L 1059 0 
L 475 0 
z
" transform="scale(0.015625)"/>
      <path id="ArialMT-4a" d="M 184 1300 
L 731 1375 
Q 753 850 928 656 
Q 1103 463 1413 463 
Q 1641 463 1806 567 
Q 1972 672 2034 851 
Q 2097 1031 2097 1425 
L 2097 4581 
L 2703 4581 
L 2703 1459 
Q 2703 884 2564 568 
Q 2425 253 2123 87 
Q 1822 -78 1416 -78 
Q 813 -78 492 269 
Q 172 616 184 1300 
z
" transform="scale(0.015625)"/>
      <path id="ArialMT-39" d="M 350 1059 
L 891 1109 
Q 959 728 1153 556 
Q 1347 384 1650 384 
Q 1909 384 2104 503 
Q 2300 622 2425 820 
Q 2550 1019 2634 1356 
Q 2719 1694 2719 2044 
Q 2719 2081 2716 2156 
Q 2547 1888 2255 1720 
Q 1963 1553 1622 1553 
Q 1053 1553 659 1965 
Q 266 2378 266 3053 
Q 266 3750 677 4175 
Q 1088 4600 1706 4600 
Q 2153 4600 2523 4359 
Q 2894 4119 3086 3673 
Q 3278 3228 3278 2384 
Q 3278 1506 3087 986 
Q 2897 466 2520 194 
Q 2144 -78 1638 -78 
Q 1100 -78 759 220 
Q 419 519 350 1059 
z
M 2653 3081 
Q 2653 3566 2395 3850 
Q 2138 4134 1775 4134 
Q 1400 4134 1122 3828 
Q 844 3522 844 3034 
Q 844 2597 1108 2323 
Q 1372 2050 1759 2050 
Q 2150 2050 2401 2323 
Q 2653 2597 2653 3081 
z
" transform="scale(0.015625)"/>
      <path id="ArialMT-34" d="M 2069 0 
L 2069 1097 
L 81 1097 
L 81 1613 
L 2172 4581 
L 2631 4581 
L 2631 1613 
L 3250 1613 
L 3250 1097 
L 2631 1097 
L 2631 0 
L 2069 0 
z
M 2069 1613 
L 2069 3678 
L 634 1613 
L 2069 1613 
z
" transform="scale(0.015625)"/>
     </defs>
     <use xlink:href="#ArialMT-4d"/>
     <use xlink:href="#ArialMT-4a" x="83.300781"/>
     <use xlink:href="#ArialMT-44" x="133.300781"/>
     <use xlink:href="#ArialMT-20" x="205.517578"/>
     <use xlink:href="#ArialMT-35" x="233.300781"/>
     <use xlink:href="#ArialMT-39" x="288.916016"/>
     <use xlink:href="#ArialMT-33" x="344.53125"/>
     <use xlink:href="#ArialMT-34" x="400.146484"/>
     <use xlink:href="#ArialMT-31" x="455.761719"/>
    </g>
   </g>
   <g id="text_14">
    <!-- 13 bursts -->
    <g transform="translate(59.274187 82.460239) scale(0.15 -0.15)">
     <defs>
      <path id="ArialMT-62" d="M 941 0 
L 419 0 
L 419 4581 
L 981 4581 
L 981 2947 
Q 1338 3394 1891 3394 
Q 2197 3394 2470 3270 
Q 2744 3147 2920 2923 
Q 3097 2700 3197 2384 
Q 3297 2069 3297 1709 
Q 3297 856 2875 390 
Q 2453 -75 1863 -75 
Q 1275 -75 941 416 
L 941 0 
z
M 934 1684 
Q 934 1088 1097 822 
Q 1363 388 1816 388 
Q 2184 388 2453 708 
Q 2722 1028 2722 1663 
Q 2722 2313 2464 2622 
Q 2206 2931 1841 2931 
Q 1472 2931 1203 2611 
Q 934 2291 934 1684 
z
" transform="scale(0.015625)"/>
      <path id="ArialMT-75" d="M 2597 0 
L 2597 488 
Q 2209 -75 1544 -75 
Q 1250 -75 995 37 
Q 741 150 617 320 
Q 494 491 444 738 
Q 409 903 409 1263 
L 409 3319 
L 972 3319 
L 972 1478 
Q 972 1038 1006 884 
Q 1059 663 1231 536 
Q 1403 409 1656 409 
Q 1909 409 2131 539 
Q 2353 669 2445 892 
Q 2538 1116 2538 1541 
L 2538 3319 
L 3100 3319 
L 3100 0 
L 2597 0 
z
" transform="scale(0.015625)"/>
      <path id="ArialMT-72" d="M 416 0 
L 416 3319 
L 922 3319 
L 922 2816 
Q 1116 3169 1280 3281 
Q 1444 3394 1641 3394 
Q 1925 3394 2219 3213 
L 2025 2691 
Q 1819 2813 1613 2813 
Q 1428 2813 1281 2702 
Q 1134 2591 1072 2394 
Q 978 2094 978 1738 
L 978 0 
L 416 0 
z
" transform="scale(0.015625)"/>
     </defs>
     <use xlink:href="#ArialMT-31"/>
     <use xlink:href="#ArialMT-33" x="55.615234"/>
     <use xlink:href="#ArialMT-20" x="111.230469"/>
     <use xlink:href="#ArialMT-62" x="139.013672"/>
     <use xlink:href="#ArialMT-75" x="194.628906"/>
     <use xlink:href="#ArialMT-72" x="250.244141"/>
     <use xlink:href="#ArialMT-73" x="283.544922"/>
     <use xlink:href="#ArialMT-74" x="333.544922"/>
     <use xlink:href="#ArialMT-73" x="361.328125"/>
    </g>
   </g>
   <g id="legend_1">
    <g id="line2d_101">
     <path d="M 218.342344 35.009531 
L 233.342344 35.009531 
L 248.342344 35.009531 
" style="fill: none; stroke-dasharray: 2,3.3; stroke-dashoffset: 0; stroke: #808080; stroke-width: 2"/>
    </g>
    <g id="text_15">
     <!-- Uniform  (AIC=47.8, BIC=47.8) -->
     <g transform="translate(260.342344 40.259531) scale(0.15 -0.15)">
      <defs>
       <path id="ArialMT-55" d="M 3500 4581 
L 4106 4581 
L 4106 1934 
Q 4106 1244 3950 837 
Q 3794 431 3386 176 
Q 2978 -78 2316 -78 
Q 1672 -78 1262 144 
Q 853 366 678 786 
Q 503 1206 503 1934 
L 503 4581 
L 1109 4581 
L 1109 1938 
Q 1109 1341 1220 1058 
Q 1331 775 1601 622 
Q 1872 469 2263 469 
Q 2931 469 3215 772 
Q 3500 1075 3500 1938 
L 3500 4581 
z
" transform="scale(0.015625)"/>
       <path id="ArialMT-66" d="M 556 0 
L 556 2881 
L 59 2881 
L 59 3319 
L 556 3319 
L 556 3672 
Q 556 4006 616 4169 
Q 697 4388 901 4523 
Q 1106 4659 1475 4659 
Q 1713 4659 2000 4603 
L 1916 4113 
Q 1741 4144 1584 4144 
Q 1328 4144 1222 4034 
Q 1116 3925 1116 3625 
L 1116 3319 
L 1763 3319 
L 1763 2881 
L 1116 2881 
L 1116 0 
L 556 0 
z
" transform="scale(0.015625)"/>
       <path id="ArialMT-6f" d="M 213 1659 
Q 213 2581 725 3025 
Q 1153 3394 1769 3394 
Q 2453 3394 2887 2945 
Q 3322 2497 3322 1706 
Q 3322 1066 3130 698 
Q 2938 331 2570 128 
Q 2203 -75 1769 -75 
Q 1072 -75 642 372 
Q 213 819 213 1659 
z
M 791 1659 
Q 791 1022 1069 705 
Q 1347 388 1769 388 
Q 2188 388 2466 706 
Q 2744 1025 2744 1678 
Q 2744 2294 2464 2611 
Q 2184 2928 1769 2928 
Q 1347 2928 1069 2612 
Q 791 2297 791 1659 
z
" transform="scale(0.015625)"/>
       <path id="ArialMT-6d" d="M 422 0 
L 422 3319 
L 925 3319 
L 925 2853 
Q 1081 3097 1340 3245 
Q 1600 3394 1931 3394 
Q 2300 3394 2536 3241 
Q 2772 3088 2869 2813 
Q 3263 3394 3894 3394 
Q 4388 3394 4653 3120 
Q 4919 2847 4919 2278 
L 4919 0 
L 4359 0 
L 4359 2091 
Q 4359 2428 4304 2576 
Q 4250 2725 4106 2815 
Q 3963 2906 3769 2906 
Q 3419 2906 3187 2673 
Q 2956 2441 2956 1928 
L 2956 0 
L 2394 0 
L 2394 2156 
Q 2394 2531 2256 2718 
Q 2119 2906 1806 2906 
Q 1569 2906 1367 2781 
Q 1166 2656 1075 2415 
Q 984 2175 984 1722 
L 984 0 
L 422 0 
z
" transform="scale(0.015625)"/>
       <path id="ArialMT-28" d="M 1497 -1347 
Q 1031 -759 709 28 
Q 388 816 388 1659 
Q 388 2403 628 3084 
Q 909 3875 1497 4659 
L 1900 4659 
Q 1522 4009 1400 3731 
Q 1209 3300 1100 2831 
Q 966 2247 966 1656 
Q 966 153 1900 -1347 
L 1497 -1347 
z
" transform="scale(0.015625)"/>
       <path id="ArialMT-49" d="M 597 0 
L 597 4581 
L 1203 4581 
L 1203 0 
L 597 0 
z
" transform="scale(0.015625)"/>
       <path id="ArialMT-43" d="M 3763 1606 
L 4369 1453 
Q 4178 706 3683 314 
Q 3188 -78 2472 -78 
Q 1731 -78 1267 223 
Q 803 525 561 1097 
Q 319 1669 319 2325 
Q 319 3041 592 3573 
Q 866 4106 1370 4382 
Q 1875 4659 2481 4659 
Q 3169 4659 3637 4309 
Q 4106 3959 4291 3325 
L 3694 3184 
Q 3534 3684 3231 3912 
Q 2928 4141 2469 4141 
Q 1941 4141 1586 3887 
Q 1231 3634 1087 3207 
Q 944 2781 944 2328 
Q 944 1744 1114 1308 
Q 1284 872 1643 656 
Q 2003 441 2422 441 
Q 2931 441 3284 734 
Q 3638 1028 3763 1606 
z
" transform="scale(0.015625)"/>
       <path id="ArialMT-3d" d="M 3381 2694 
L 356 2694 
L 356 3219 
L 3381 3219 
L 3381 2694 
z
M 3381 1303 
L 356 1303 
L 356 1828 
L 3381 1828 
L 3381 1303 
z
" transform="scale(0.015625)"/>
       <path id="ArialMT-37" d="M 303 3981 
L 303 4522 
L 3269 4522 
L 3269 4084 
Q 2831 3619 2401 2847 
Q 1972 2075 1738 1259 
Q 1569 684 1522 0 
L 944 0 
Q 953 541 1156 1306 
Q 1359 2072 1739 2783 
Q 2119 3494 2547 3981 
L 303 3981 
z
" transform="scale(0.015625)"/>
       <path id="ArialMT-38" d="M 1131 2484 
Q 781 2613 612 2850 
Q 444 3088 444 3419 
Q 444 3919 803 4259 
Q 1163 4600 1759 4600 
Q 2359 4600 2725 4251 
Q 3091 3903 3091 3403 
Q 3091 3084 2923 2848 
Q 2756 2613 2416 2484 
Q 2838 2347 3058 2040 
Q 3278 1734 3278 1309 
Q 3278 722 2862 322 
Q 2447 -78 1769 -78 
Q 1091 -78 675 323 
Q 259 725 259 1325 
Q 259 1772 486 2073 
Q 713 2375 1131 2484 
z
M 1019 3438 
Q 1019 3113 1228 2906 
Q 1438 2700 1772 2700 
Q 2097 2700 2305 2904 
Q 2513 3109 2513 3406 
Q 2513 3716 2298 3927 
Q 2084 4138 1766 4138 
Q 1444 4138 1231 3931 
Q 1019 3725 1019 3438 
z
M 838 1322 
Q 838 1081 952 856 
Q 1066 631 1291 507 
Q 1516 384 1775 384 
Q 2178 384 2440 643 
Q 2703 903 2703 1303 
Q 2703 1709 2433 1975 
Q 2163 2241 1756 2241 
Q 1359 2241 1098 1978 
Q 838 1716 838 1322 
z
" transform="scale(0.015625)"/>
       <path id="ArialMT-2c" d="M 569 0 
L 569 641 
L 1209 641 
L 1209 0 
Q 1209 -353 1084 -570 
Q 959 -788 688 -906 
L 531 -666 
Q 709 -588 793 -436 
Q 878 -284 888 0 
L 569 0 
z
" transform="scale(0.015625)"/>
       <path id="ArialMT-42" d="M 469 0 
L 469 4581 
L 2188 4581 
Q 2713 4581 3030 4442 
Q 3347 4303 3526 4014 
Q 3706 3725 3706 3409 
Q 3706 3116 3547 2856 
Q 3388 2597 3066 2438 
Q 3481 2316 3704 2022 
Q 3928 1728 3928 1328 
Q 3928 1006 3792 729 
Q 3656 453 3456 303 
Q 3256 153 2954 76 
Q 2653 0 2216 0 
L 469 0 
z
M 1075 2656 
L 2066 2656 
Q 2469 2656 2644 2709 
Q 2875 2778 2992 2937 
Q 3109 3097 3109 3338 
Q 3109 3566 3000 3739 
Q 2891 3913 2687 3977 
Q 2484 4041 1991 4041 
L 1075 4041 
L 1075 2656 
z
M 1075 541 
L 2216 541 
Q 2509 541 2628 563 
Q 2838 600 2978 687 
Q 3119 775 3209 942 
Q 3300 1109 3300 1328 
Q 3300 1584 3169 1773 
Q 3038 1963 2805 2039 
Q 2572 2116 2134 2116 
L 1075 2116 
L 1075 541 
z
" transform="scale(0.015625)"/>
       <path id="ArialMT-29" d="M 791 -1347 
L 388 -1347 
Q 1322 153 1322 1656 
Q 1322 2244 1188 2822 
Q 1081 3291 891 3722 
Q 769 4003 388 4659 
L 791 4659 
Q 1378 3875 1659 3084 
Q 1900 2403 1900 1659 
Q 1900 816 1576 28 
Q 1253 -759 791 -1347 
z
" transform="scale(0.015625)"/>
      </defs>
      <use xlink:href="#ArialMT-55"/>
      <use xlink:href="#ArialMT-6e" x="72.216797"/>
      <use xlink:href="#ArialMT-69" x="127.832031"/>
      <use xlink:href="#ArialMT-66" x="150.048828"/>
      <use xlink:href="#ArialMT-6f" x="177.832031"/>
      <use xlink:href="#ArialMT-72" x="233.447266"/>
      <use xlink:href="#ArialMT-6d" x="266.748047"/>
      <use xlink:href="#ArialMT-20" x="350.048828"/>
      <use xlink:href="#ArialMT-20" x="377.832031"/>
      <use xlink:href="#ArialMT-28" x="405.615234"/>
      <use xlink:href="#ArialMT-41" x="438.916016"/>
      <use xlink:href="#ArialMT-49" x="505.615234"/>
      <use xlink:href="#ArialMT-43" x="533.398438"/>
      <use xlink:href="#ArialMT-3d" x="605.615234"/>
      <use xlink:href="#ArialMT-34" x="664.013672"/>
      <use xlink:href="#ArialMT-37" x="719.628906"/>
      <use xlink:href="#ArialMT-2e" x="775.244141"/>
      <use xlink:href="#ArialMT-38" x="803.027344"/>
      <use xlink:href="#ArialMT-2c" x="858.642578"/>
      <use xlink:href="#ArialMT-20" x="886.425781"/>
      <use xlink:href="#ArialMT-42" x="914.208984"/>
      <use xlink:href="#ArialMT-49" x="980.908203"/>
      <use xlink:href="#ArialMT-43" x="1008.691406"/>
      <use xlink:href="#ArialMT-3d" x="1080.908203"/>
      <use xlink:href="#ArialMT-34" x="1139.306641"/>
      <use xlink:href="#ArialMT-37" x="1194.921875"/>
      <use xlink:href="#ArialMT-2e" x="1250.537109"/>
      <use xlink:href="#ArialMT-38" x="1278.320312"/>
      <use xlink:href="#ArialMT-29" x="1333.935547"/>
     </g>
    </g>
    <g id="line2d_102">
     <path d="M 218.342344 56.586094 
L 233.342344 56.586094 
L 248.342344 56.586094 
" style="fill: none; stroke-dasharray: 7.4,3.2; stroke-dashoffset: 0; stroke: #ff7f50; stroke-width: 2"/>
    </g>
    <g id="text_16">
     <!-- Unimodal (AIC=47.0, BIC=48.1) -->
     <g transform="translate(260.342344 61.836094) scale(0.15 -0.15)">
      <defs>
       <path id="ArialMT-64" d="M 2575 0 
L 2575 419 
Q 2259 -75 1647 -75 
Q 1250 -75 917 144 
Q 584 363 401 755 
Q 219 1147 219 1656 
Q 219 2153 384 2558 
Q 550 2963 881 3178 
Q 1213 3394 1622 3394 
Q 1922 3394 2156 3267 
Q 2391 3141 2538 2938 
L 2538 4581 
L 3097 4581 
L 3097 0 
L 2575 0 
z
M 797 1656 
Q 797 1019 1065 703 
Q 1334 388 1700 388 
Q 2069 388 2326 689 
Q 2584 991 2584 1609 
Q 2584 2291 2321 2609 
Q 2059 2928 1675 2928 
Q 1300 2928 1048 2622 
Q 797 2316 797 1656 
z
" transform="scale(0.015625)"/>
       <path id="ArialMT-6c" d="M 409 0 
L 409 4581 
L 972 4581 
L 972 0 
L 409 0 
z
" transform="scale(0.015625)"/>
      </defs>
      <use xlink:href="#ArialMT-55"/>
      <use xlink:href="#ArialMT-6e" x="72.216797"/>
      <use xlink:href="#ArialMT-69" x="127.832031"/>
      <use xlink:href="#ArialMT-6d" x="150.048828"/>
      <use xlink:href="#ArialMT-6f" x="233.349609"/>
      <use xlink:href="#ArialMT-64" x="288.964844"/>
      <use xlink:href="#ArialMT-61" x="344.580078"/>
      <use xlink:href="#ArialMT-6c" x="400.195312"/>
      <use xlink:href="#ArialMT-20" x="422.412109"/>
      <use xlink:href="#ArialMT-28" x="450.195312"/>
      <use xlink:href="#ArialMT-41" x="483.496094"/>
      <use xlink:href="#ArialMT-49" x="550.195312"/>
      <use xlink:href="#ArialMT-43" x="577.978516"/>
      <use xlink:href="#ArialMT-3d" x="650.195312"/>
      <use xlink:href="#ArialMT-34" x="708.59375"/>
      <use xlink:href="#ArialMT-37" x="764.208984"/>
      <use xlink:href="#ArialMT-2e" x="819.824219"/>
      <use xlink:href="#ArialMT-30" x="847.607422"/>
      <use xlink:href="#ArialMT-2c" x="903.222656"/>
      <use xlink:href="#ArialMT-20" x="931.005859"/>
      <use xlink:href="#ArialMT-42" x="958.789062"/>
      <use xlink:href="#ArialMT-49" x="1025.488281"/>
      <use xlink:href="#ArialMT-43" x="1053.271484"/>
      <use xlink:href="#ArialMT-3d" x="1125.488281"/>
      <use xlink:href="#ArialMT-34" x="1183.886719"/>
      <use xlink:href="#ArialMT-38" x="1239.501953"/>
      <use xlink:href="#ArialMT-2e" x="1295.117188"/>
      <use xlink:href="#ArialMT-31" x="1322.900391"/>
      <use xlink:href="#ArialMT-29" x="1378.515625"/>
     </g>
    </g>
    <g id="line2d_103">
     <path d="M 218.342344 78.162656 
L 233.342344 78.162656 
L 248.342344 78.162656 
" style="fill: none; stroke-dasharray: 12.8,3.2,2,3.2; stroke-dashoffset: 0; stroke: #008000; stroke-width: 2"/>
    </g>
    <g id="text_17">
     <!-- Bimodal  (*AIC=40.9, *BIC=43.2) -->
     <g transform="translate(260.342344 83.412656) scale(0.15 -0.15)">
      <defs>
       <path id="ArialMT-2a" d="M 200 3741 
L 344 4184 
Q 841 4009 1066 3881 
Q 1006 4447 1003 4659 
L 1456 4659 
Q 1447 4350 1384 3884 
Q 1706 4047 2122 4184 
L 2266 3741 
Q 1869 3609 1488 3566 
Q 1678 3400 2025 2975 
L 1650 2709 
Q 1469 2956 1222 3381 
Q 991 2941 816 2709 
L 447 2975 
Q 809 3422 966 3566 
Q 563 3644 200 3741 
z
" transform="scale(0.015625)"/>
      </defs>
      <use xlink:href="#ArialMT-42"/>
      <use xlink:href="#ArialMT-69" x="66.699219"/>
      <use xlink:href="#ArialMT-6d" x="88.916016"/>
      <use xlink:href="#ArialMT-6f" x="172.216797"/>
      <use xlink:href="#ArialMT-64" x="227.832031"/>
      <use xlink:href="#ArialMT-61" x="283.447266"/>
      <use xlink:href="#ArialMT-6c" x="339.0625"/>
      <use xlink:href="#ArialMT-20" x="361.279297"/>
      <use xlink:href="#ArialMT-20" x="389.0625"/>
      <use xlink:href="#ArialMT-28" x="416.845703"/>
      <use xlink:href="#ArialMT-2a" x="450.146484"/>
      <use xlink:href="#ArialMT-41" x="489.0625"/>
      <use xlink:href="#ArialMT-49" x="555.761719"/>
      <use xlink:href="#ArialMT-43" x="583.544922"/>
      <use xlink:href="#ArialMT-3d" x="655.761719"/>
      <use xlink:href="#ArialMT-34" x="714.160156"/>
      <use xlink:href="#ArialMT-30" x="769.775391"/>
      <use xlink:href="#ArialMT-2e" x="825.390625"/>
      <use xlink:href="#ArialMT-39" x="853.173828"/>
      <use xlink:href="#ArialMT-2c" x="908.789062"/>
      <use xlink:href="#ArialMT-20" x="936.572266"/>
      <use xlink:href="#ArialMT-2a" x="964.355469"/>
      <use xlink:href="#ArialMT-42" x="1003.271484"/>
      <use xlink:href="#ArialMT-49" x="1069.970703"/>
      <use xlink:href="#ArialMT-43" x="1097.753906"/>
      <use xlink:href="#ArialMT-3d" x="1169.970703"/>
      <use xlink:href="#ArialMT-34" x="1228.369141"/>
      <use xlink:href="#ArialMT-33" x="1283.984375"/>
      <use xlink:href="#ArialMT-2e" x="1339.599609"/>
      <use xlink:href="#ArialMT-32" x="1367.382812"/>
      <use xlink:href="#ArialMT-29" x="1422.998047"/>
     </g>
    </g>
   </g>
  </g>
  <g id="line2d_104">
   <path d="M 45.882188 7.2 
L 492.282187 7.2 
" style="fill: none; stroke: #0000ff; stroke-opacity: 0.6; stroke-width: 10; stroke-linecap: square"/>
  </g>
 </g>
 <defs>
  <clipPath id="p6ce8e8607e">
   <rect x="45.882188" y="15.84" width="446.4" height="332.64"/>
  </clipPath>
 </defs>
</svg>
