<?xml version="1.0" encoding="utf-8" standalone="no"?>
<!DOCTYPE svg PUBLIC "-//W3C//DTD SVG 1.1//EN"
  "http://www.w3.org/Graphics/SVG/1.1/DTD/svg11.dtd">
<svg xmlns:xlink="http://www.w3.org/1999/xlink" width="499.482187pt" height="400.603125pt" viewBox="0 0 499.482187 400.603125" xmlns="http://www.w3.org/2000/svg" version="1.1">
 <metadata>
  <rdf:RDF xmlns:dc="http://purl.org/dc/elements/1.1/" xmlns:cc="http://creativecommons.org/ns#" xmlns:rdf="http://www.w3.org/1999/02/22-rdf-syntax-ns#">
   <cc:Work>
    <dc:type rdf:resource="http://purl.org/dc/dcmitype/StillImage"/>
    <dc:date>2025-08-20T02:16:30.025555</dc:date>
    <dc:format>image/svg+xml</dc:format>
    <dc:creator>
     <cc:Agent>
      <dc:title>Matplotlib v3.8.4, https://matplotlib.org/</dc:title>
     </cc:Agent>
    </dc:creator>
   </cc:Work>
  </rdf:RDF>
 </metadata>
 <defs>
  <style type="text/css">*{stroke-linejoin: round; stroke-linecap: butt}</style>
 </defs>
 <g id="figure_1">
  <g id="patch_1">
   <path d="M 0 400.603125 
L 499.482187 400.603125 
L 499.482187 0 
L 0 0 
z
" style="fill: #ffffff"/>
  </g>
  <g id="axes_1">
   <g id="patch_2">
    <path d="M 45.882188 348.48 
L 492.282187 348.48 
L 492.282187 15.84 
L 45.882188 15.84 
z
" style="fill: #ffffff"/>
   </g>
   <g id="patch_3">
    <path d="M 66.173097 348.48 
L 76.318551 348.48 
L 76.318551 218.5425 
L 66.173097 218.5425 
z
" clip-path="url(#pf6d2c1e9b4)" style="fill: #4169e1; opacity: 0.6"/>
   </g>
   <g id="patch_4">
    <path d="M 76.318551 348.48 
L 86.464006 348.48 
L 86.464006 283.51125 
L 76.318551 283.51125 
z
" clip-path="url(#pf6d2c1e9b4)" style="fill: #4169e1; opacity: 0.6"/>
   </g>
   <g id="patch_5">
    <path d="M 86.464006 348.48 
L 96.60946 348.48 
L 96.60946 348.48 
L 86.464006 348.48 
z
" clip-path="url(#pf6d2c1e9b4)" style="fill: #4169e1; opacity: 0.6"/>
   </g>
   <g id="patch_6">
    <path d="M 96.60946 348.48 
L 106.754915 348.48 
L 106.754915 218.5425 
L 96.60946 218.5425 
z
" clip-path="url(#pf6d2c1e9b4)" style="fill: #4169e1; opacity: 0.6"/>
   </g>
   <g id="patch_7">
    <path d="M 106.754915 348.48 
L 116.900369 348.48 
L 116.900369 283.51125 
L 106.754915 283.51125 
z
" clip-path="url(#pf6d2c1e9b4)" style="fill: #4169e1; opacity: 0.6"/>
   </g>
   <g id="patch_8">
    <path d="M 116.900369 348.48 
L 127.045824 348.48 
L 127.045824 348.48 
L 116.900369 348.48 
z
" clip-path="url(#pf6d2c1e9b4)" style="fill: #4169e1; opacity: 0.6"/>
   </g>
   <g id="patch_9">
    <path d="M 127.045824 348.48 
L 137.191278 348.48 
L 137.191278 218.5425 
L 127.045824 218.5425 
z
" clip-path="url(#pf6d2c1e9b4)" style="fill: #4169e1; opacity: 0.6"/>
   </g>
   <g id="patch_10">
    <path d="M 137.191278 348.48 
L 147.336733 348.48 
L 147.336733 218.5425 
L 137.191278 218.5425 
z
" clip-path="url(#pf6d2c1e9b4)" style="fill: #4169e1; opacity: 0.6"/>
   </g>
   <g id="patch_11">
    <path d="M 147.336733 348.48 
L 157.482188 348.48 
L 157.482188 153.57375 
L 147.336733 153.57375 
z
" clip-path="url(#pf6d2c1e9b4)" style="fill: #4169e1; opacity: 0.6"/>
   </g>
   <g id="patch_12">
    <path d="M 157.482188 348.48 
L 167.627642 348.48 
L 167.627642 88.605 
L 157.482188 88.605 
z
" clip-path="url(#pf6d2c1e9b4)" style="fill: #4169e1; opacity: 0.6"/>
   </g>
   <g id="patch_13">
    <path d="M 167.627642 348.48 
L 177.773097 348.48 
L 177.773097 153.57375 
L 167.627642 153.57375 
z
" clip-path="url(#pf6d2c1e9b4)" style="fill: #4169e1; opacity: 0.6"/>
   </g>
   <g id="patch_14">
    <path d="M 177.773097 348.48 
L 187.918551 348.48 
L 187.918551 218.5425 
L 177.773097 218.5425 
z
" clip-path="url(#pf6d2c1e9b4)" style="fill: #4169e1; opacity: 0.6"/>
   </g>
   <g id="patch_15">
    <path d="M 187.918551 348.48 
L 198.064006 348.48 
L 198.064006 283.51125 
L 187.918551 283.51125 
z
" clip-path="url(#pf6d2c1e9b4)" style="fill: #4169e1; opacity: 0.6"/>
   </g>
   <g id="patch_16">
    <path d="M 198.064006 348.48 
L 208.20946 348.48 
L 208.20946 283.51125 
L 198.064006 283.51125 
z
" clip-path="url(#pf6d2c1e9b4)" style="fill: #4169e1; opacity: 0.6"/>
   </g>
   <g id="patch_17">
    <path d="M 208.20946 348.48 
L 218.354915 348.48 
L 218.354915 283.51125 
L 208.20946 283.51125 
z
" clip-path="url(#pf6d2c1e9b4)" style="fill: #4169e1; opacity: 0.6"/>
   </g>
   <g id="patch_18">
    <path d="M 218.354915 348.48 
L 228.500369 348.48 
L 228.500369 218.5425 
L 218.354915 218.5425 
z
" clip-path="url(#pf6d2c1e9b4)" style="fill: #4169e1; opacity: 0.6"/>
   </g>
   <g id="patch_19">
    <path d="M 228.500369 348.48 
L 238.645824 348.48 
L 238.645824 283.51125 
L 228.500369 283.51125 
z
" clip-path="url(#pf6d2c1e9b4)" style="fill: #4169e1; opacity: 0.6"/>
   </g>
   <g id="patch_20">
    <path d="M 238.645824 348.48 
L 248.791278 348.48 
L 248.791278 283.51125 
L 238.645824 283.51125 
z
" clip-path="url(#pf6d2c1e9b4)" style="fill: #4169e1; opacity: 0.6"/>
   </g>
   <g id="patch_21">
    <path d="M 248.791278 348.48 
L 258.936733 348.48 
L 258.936733 153.57375 
L 248.791278 153.57375 
z
" clip-path="url(#pf6d2c1e9b4)" style="fill: #4169e1; opacity: 0.6"/>
   </g>
   <g id="patch_22">
    <path d="M 258.936733 348.48 
L 269.082188 348.48 
L 269.082188 348.48 
L 258.936733 348.48 
z
" clip-path="url(#pf6d2c1e9b4)" style="fill: #4169e1; opacity: 0.6"/>
   </g>
   <g id="patch_23">
    <path d="M 269.082187 348.48 
L 279.227642 348.48 
L 279.227642 218.5425 
L 269.082187 218.5425 
z
" clip-path="url(#pf6d2c1e9b4)" style="fill: #4169e1; opacity: 0.6"/>
   </g>
   <g id="patch_24">
    <path d="M 279.227642 348.48 
L 289.373097 348.48 
L 289.373097 283.51125 
L 279.227642 283.51125 
z
" clip-path="url(#pf6d2c1e9b4)" style="fill: #4169e1; opacity: 0.6"/>
   </g>
   <g id="patch_25">
    <path d="M 289.373097 348.48 
L 299.518551 348.48 
L 299.518551 348.48 
L 289.373097 348.48 
z
" clip-path="url(#pf6d2c1e9b4)" style="fill: #4169e1; opacity: 0.6"/>
   </g>
   <g id="patch_26">
    <path d="M 299.518551 348.48 
L 309.664006 348.48 
L 309.664006 218.5425 
L 299.518551 218.5425 
z
" clip-path="url(#pf6d2c1e9b4)" style="fill: #4169e1; opacity: 0.6"/>
   </g>
   <g id="patch_27">
    <path d="M 309.664006 348.48 
L 319.80946 348.48 
L 319.80946 283.51125 
L 309.664006 283.51125 
z
" clip-path="url(#pf6d2c1e9b4)" style="fill: #4169e1; opacity: 0.6"/>
   </g>
   <g id="patch_28">
    <path d="M 319.80946 348.48 
L 329.954915 348.48 
L 329.954915 348.48 
L 319.80946 348.48 
z
" clip-path="url(#pf6d2c1e9b4)" style="fill: #4169e1; opacity: 0.6"/>
   </g>
   <g id="patch_29">
    <path d="M 329.954915 348.48 
L 340.100369 348.48 
L 340.100369 218.5425 
L 329.954915 218.5425 
z
" clip-path="url(#pf6d2c1e9b4)" style="fill: #4169e1; opacity: 0.6"/>
   </g>
   <g id="patch_30">
    <path d="M 340.100369 348.48 
L 350.245824 348.48 
L 350.245824 218.5425 
L 340.100369 218.5425 
z
" clip-path="url(#pf6d2c1e9b4)" style="fill: #4169e1; opacity: 0.6"/>
   </g>
   <g id="patch_31">
    <path d="M 350.245824 348.48 
L 360.391278 348.48 
L 360.391278 153.57375 
L 350.245824 153.57375 
z
" clip-path="url(#pf6d2c1e9b4)" style="fill: #4169e1; opacity: 0.6"/>
   </g>
   <g id="patch_32">
    <path d="M 360.391278 348.48 
L 370.536733 348.48 
L 370.536733 88.605 
L 360.391278 88.605 
z
" clip-path="url(#pf6d2c1e9b4)" style="fill: #4169e1; opacity: 0.6"/>
   </g>
   <g id="patch_33">
    <path d="M 370.536733 348.48 
L 380.682187 348.48 
L 380.682187 153.57375 
L 370.536733 153.57375 
z
" clip-path="url(#pf6d2c1e9b4)" style="fill: #4169e1; opacity: 0.6"/>
   </g>
   <g id="patch_34">
    <path d="M 380.682187 348.48 
L 390.827642 348.48 
L 390.827642 218.5425 
L 380.682187 218.5425 
z
" clip-path="url(#pf6d2c1e9b4)" style="fill: #4169e1; opacity: 0.6"/>
   </g>
   <g id="patch_35">
    <path d="M 390.827642 348.48 
L 400.973097 348.48 
L 400.973097 283.51125 
L 390.827642 283.51125 
z
" clip-path="url(#pf6d2c1e9b4)" style="fill: #4169e1; opacity: 0.6"/>
   </g>
   <g id="patch_36">
    <path d="M 400.973097 348.48 
L 411.118551 348.48 
L 411.118551 283.51125 
L 400.973097 283.51125 
z
" clip-path="url(#pf6d2c1e9b4)" style="fill: #4169e1; opacity: 0.6"/>
   </g>
   <g id="patch_37">
    <path d="M 411.118551 348.48 
L 421.264006 348.48 
L 421.264006 283.51125 
L 411.118551 283.51125 
z
" clip-path="url(#pf6d2c1e9b4)" style="fill: #4169e1; opacity: 0.6"/>
   </g>
   <g id="patch_38">
    <path d="M 421.264006 348.48 
L 431.40946 348.48 
L 431.40946 218.5425 
L 421.264006 218.5425 
z
" clip-path="url(#pf6d2c1e9b4)" style="fill: #4169e1; opacity: 0.6"/>
   </g>
   <g id="patch_39">
    <path d="M 431.40946 348.48 
L 441.554915 348.48 
L 441.554915 283.51125 
L 431.40946 283.51125 
z
" clip-path="url(#pf6d2c1e9b4)" style="fill: #4169e1; opacity: 0.6"/>
   </g>
   <g id="patch_40">
    <path d="M 441.554915 348.48 
L 451.700369 348.48 
L 451.700369 283.51125 
L 441.554915 283.51125 
z
" clip-path="url(#pf6d2c1e9b4)" style="fill: #4169e1; opacity: 0.6"/>
   </g>
   <g id="patch_41">
    <path d="M 451.700369 348.48 
L 461.845824 348.48 
L 461.845824 153.57375 
L 451.700369 153.57375 
z
" clip-path="url(#pf6d2c1e9b4)" style="fill: #4169e1; opacity: 0.6"/>
   </g>
   <g id="patch_42">
    <path d="M 461.845824 348.48 
L 471.991278 348.48 
L 471.991278 348.48 
L 461.845824 348.48 
z
" clip-path="url(#pf6d2c1e9b4)" style="fill: #4169e1; opacity: 0.6"/>
   </g>
   <g id="matplotlib.axis_1">
    <g id="xtick_1">
     <g id="line2d_1">
      <path d="M 66.173097 348.48 
L 66.173097 15.84 
" clip-path="url(#pf6d2c1e9b4)" style="fill: none; stroke-dasharray: 7.4,3.2; stroke-dashoffset: 0; stroke: #d3d3d3; stroke-opacity: 0.3; stroke-width: 2"/>
     </g>
     <g id="line2d_2">
      <defs>
       <path id="m4ab84ccbbc" d="M 0 0 
L 0 -10 
" style="stroke: #000000; stroke-width: 2"/>
      </defs>
      <g>
       <use xlink:href="#m4ab84ccbbc" x="66.173097" y="348.48" style="stroke: #000000; stroke-width: 2"/>
      </g>
     </g>
     <g id="line2d_3">
      <defs>
       <path id="m6c53398cf2" d="M 0 0 
L 0 10 
" style="stroke: #000000; stroke-width: 2"/>
      </defs>
      <g>
       <use xlink:href="#m6c53398cf2" x="66.173097" y="15.84" style="stroke: #000000; stroke-width: 2"/>
      </g>
     </g>
     <g id="text_1">
      <!-- 0.0 -->
      <g transform="translate(53.663097 369.364062) scale(0.18 -0.18)">
       <defs>
        <path id="ArialMT-30" d="M 266 2259 
Q 266 3072 433 3567 
Q 600 4063 929 4331 
Q 1259 4600 1759 4600 
Q 2128 4600 2406 4451 
Q 2684 4303 2865 4023 
Q 3047 3744 3150 3342 
Q 3253 2941 3253 2259 
Q 3253 1453 3087 958 
Q 2922 463 2592 192 
Q 2263 -78 1759 -78 
Q 1097 -78 719 397 
Q 266 969 266 2259 
z
M 844 2259 
Q 844 1131 1108 757 
Q 1372 384 1759 384 
Q 2147 384 2411 759 
Q 2675 1134 2675 2259 
Q 2675 3391 2411 3762 
Q 2147 4134 1753 4134 
Q 1366 4134 1134 3806 
Q 844 3388 844 2259 
z
" transform="scale(0.015625)"/>
        <path id="ArialMT-2e" d="M 581 0 
L 581 641 
L 1222 641 
L 1222 0 
L 581 0 
z
" transform="scale(0.015625)"/>
       </defs>
       <use xlink:href="#ArialMT-30"/>
       <use xlink:href="#ArialMT-2e" x="55.615234"/>
       <use xlink:href="#ArialMT-30" x="83.398438"/>
      </g>
     </g>
    </g>
    <g id="xtick_2">
     <g id="line2d_4">
      <path d="M 167.627642 348.48 
L 167.627642 15.84 
" clip-path="url(#pf6d2c1e9b4)" style="fill: none; stroke-dasharray: 7.4,3.2; stroke-dashoffset: 0; stroke: #d3d3d3; stroke-opacity: 0.3; stroke-width: 2"/>
     </g>
     <g id="line2d_5">
      <g>
       <use xlink:href="#m4ab84ccbbc" x="167.627642" y="348.48" style="stroke: #000000; stroke-width: 2"/>
      </g>
     </g>
     <g id="line2d_6">
      <g>
       <use xlink:href="#m6c53398cf2" x="167.627642" y="15.84" style="stroke: #000000; stroke-width: 2"/>
      </g>
     </g>
     <g id="text_2">
      <!-- 0.5 -->
      <g transform="translate(155.117642 369.364062) scale(0.18 -0.18)">
       <defs>
        <path id="ArialMT-35" d="M 266 1200 
L 856 1250 
Q 922 819 1161 601 
Q 1400 384 1738 384 
Q 2144 384 2425 690 
Q 2706 997 2706 1503 
Q 2706 1984 2436 2262 
Q 2166 2541 1728 2541 
Q 1456 2541 1237 2417 
Q 1019 2294 894 2097 
L 366 2166 
L 809 4519 
L 3088 4519 
L 3088 3981 
L 1259 3981 
L 1013 2750 
Q 1425 3038 1878 3038 
Q 2478 3038 2890 2622 
Q 3303 2206 3303 1553 
Q 3303 931 2941 478 
Q 2500 -78 1738 -78 
Q 1113 -78 717 272 
Q 322 622 266 1200 
z
" transform="scale(0.015625)"/>
       </defs>
       <use xlink:href="#ArialMT-30"/>
       <use xlink:href="#ArialMT-2e" x="55.615234"/>
       <use xlink:href="#ArialMT-35" x="83.398438"/>
      </g>
     </g>
    </g>
    <g id="xtick_3">
     <g id="line2d_7">
      <path d="M 269.082187 348.48 
L 269.082187 15.84 
" clip-path="url(#pf6d2c1e9b4)" style="fill: none; stroke-dasharray: 7.4,3.2; stroke-dashoffset: 0; stroke: #d3d3d3; stroke-opacity: 0.3; stroke-width: 2"/>
     </g>
     <g id="line2d_8">
      <g>
       <use xlink:href="#m4ab84ccbbc" x="269.082187" y="348.48" style="stroke: #000000; stroke-width: 2"/>
      </g>
     </g>
     <g id="line2d_9">
      <g>
       <use xlink:href="#m6c53398cf2" x="269.082187" y="15.84" style="stroke: #000000; stroke-width: 2"/>
      </g>
     </g>
     <g id="text_3">
      <!-- 1.0 -->
      <g transform="translate(256.572187 369.364062) scale(0.18 -0.18)">
       <defs>
        <path id="ArialMT-31" d="M 2384 0 
L 1822 0 
L 1822 3584 
Q 1619 3391 1289 3197 
Q 959 3003 697 2906 
L 697 3450 
Q 1169 3672 1522 3987 
Q 1875 4303 2022 4600 
L 2384 4600 
L 2384 0 
z
" transform="scale(0.015625)"/>
       </defs>
       <use xlink:href="#ArialMT-31"/>
       <use xlink:href="#ArialMT-2e" x="55.615234"/>
       <use xlink:href="#ArialMT-30" x="83.398438"/>
      </g>
     </g>
    </g>
    <g id="xtick_4">
     <g id="line2d_10">
      <path d="M 370.536733 348.48 
L 370.536733 15.84 
" clip-path="url(#pf6d2c1e9b4)" style="fill: none; stroke-dasharray: 7.4,3.2; stroke-dashoffset: 0; stroke: #d3d3d3; stroke-opacity: 0.3; stroke-width: 2"/>
     </g>
     <g id="line2d_11">
      <g>
       <use xlink:href="#m4ab84ccbbc" x="370.536733" y="348.48" style="stroke: #000000; stroke-width: 2"/>
      </g>
     </g>
     <g id="line2d_12">
      <g>
       <use xlink:href="#m6c53398cf2" x="370.536733" y="15.84" style="stroke: #000000; stroke-width: 2"/>
      </g>
     </g>
     <g id="text_4">
      <!-- 1.5 -->
      <g transform="translate(358.026733 369.364062) scale(0.18 -0.18)">
       <use xlink:href="#ArialMT-31"/>
       <use xlink:href="#ArialMT-2e" x="55.615234"/>
       <use xlink:href="#ArialMT-35" x="83.398438"/>
      </g>
     </g>
    </g>
    <g id="xtick_5">
     <g id="line2d_13">
      <path d="M 471.991278 348.48 
L 471.991278 15.84 
" clip-path="url(#pf6d2c1e9b4)" style="fill: none; stroke-dasharray: 7.4,3.2; stroke-dashoffset: 0; stroke: #d3d3d3; stroke-opacity: 0.3; stroke-width: 2"/>
     </g>
     <g id="line2d_14">
      <g>
       <use xlink:href="#m4ab84ccbbc" x="471.991278" y="348.48" style="stroke: #000000; stroke-width: 2"/>
      </g>
     </g>
     <g id="line2d_15">
      <g>
       <use xlink:href="#m6c53398cf2" x="471.991278" y="15.84" style="stroke: #000000; stroke-width: 2"/>
      </g>
     </g>
     <g id="text_5">
      <!-- 2.0 -->
      <g transform="translate(459.481278 369.364062) scale(0.18 -0.18)">
       <defs>
        <path id="ArialMT-32" d="M 3222 541 
L 3222 0 
L 194 0 
Q 188 203 259 391 
Q 375 700 629 1000 
Q 884 1300 1366 1694 
Q 2113 2306 2375 2664 
Q 2638 3022 2638 3341 
Q 2638 3675 2398 3904 
Q 2159 4134 1775 4134 
Q 1369 4134 1125 3890 
Q 881 3647 878 3216 
L 300 3275 
Q 359 3922 746 4261 
Q 1134 4600 1788 4600 
Q 2447 4600 2831 4234 
Q 3216 3869 3216 3328 
Q 3216 3053 3103 2787 
Q 2991 2522 2730 2228 
Q 2469 1934 1863 1422 
Q 1356 997 1212 845 
Q 1069 694 975 541 
L 3222 541 
z
" transform="scale(0.015625)"/>
       </defs>
       <use xlink:href="#ArialMT-32"/>
       <use xlink:href="#ArialMT-2e" x="55.615234"/>
       <use xlink:href="#ArialMT-30" x="83.398438"/>
      </g>
     </g>
    </g>
    <g id="xtick_6">
     <g id="line2d_16">
      <defs>
       <path id="mbb90da759a" d="M 0 0 
L 0 -5 
" style="stroke: #000000"/>
      </defs>
      <g>
       <use xlink:href="#mbb90da759a" x="45.882188" y="348.48" style="stroke: #000000"/>
      </g>
     </g>
     <g id="line2d_17">
      <defs>
       <path id="md0d5504d2e" d="M 0 0 
L 0 5 
" style="stroke: #000000"/>
      </defs>
      <g>
       <use xlink:href="#md0d5504d2e" x="45.882188" y="15.84" style="stroke: #000000"/>
      </g>
     </g>
    </g>
    <g id="xtick_7">
     <g id="line2d_18">
      <g>
       <use xlink:href="#mbb90da759a" x="86.464006" y="348.48" style="stroke: #000000"/>
      </g>
     </g>
     <g id="line2d_19">
      <g>
       <use xlink:href="#md0d5504d2e" x="86.464006" y="15.84" style="stroke: #000000"/>
      </g>
     </g>
    </g>
    <g id="xtick_8">
     <g id="line2d_20">
      <g>
       <use xlink:href="#mbb90da759a" x="106.754915" y="348.48" style="stroke: #000000"/>
      </g>
     </g>
     <g id="line2d_21">
      <g>
       <use xlink:href="#md0d5504d2e" x="106.754915" y="15.84" style="stroke: #000000"/>
      </g>
     </g>
    </g>
    <g id="xtick_9">
     <g id="line2d_22">
      <g>
       <use xlink:href="#mbb90da759a" x="127.045824" y="348.48" style="stroke: #000000"/>
      </g>
     </g>
     <g id="line2d_23">
      <g>
       <use xlink:href="#md0d5504d2e" x="127.045824" y="15.84" style="stroke: #000000"/>
      </g>
     </g>
    </g>
    <g id="xtick_10">
     <g id="line2d_24">
      <g>
       <use xlink:href="#mbb90da759a" x="147.336733" y="348.48" style="stroke: #000000"/>
      </g>
     </g>
     <g id="line2d_25">
      <g>
       <use xlink:href="#md0d5504d2e" x="147.336733" y="15.84" style="stroke: #000000"/>
      </g>
     </g>
    </g>
    <g id="xtick_11">
     <g id="line2d_26">
      <g>
       <use xlink:href="#mbb90da759a" x="187.918551" y="348.48" style="stroke: #000000"/>
      </g>
     </g>
     <g id="line2d_27">
      <g>
       <use xlink:href="#md0d5504d2e" x="187.918551" y="15.84" style="stroke: #000000"/>
      </g>
     </g>
    </g>
    <g id="xtick_12">
     <g id="line2d_28">
      <g>
       <use xlink:href="#mbb90da759a" x="208.20946" y="348.48" style="stroke: #000000"/>
      </g>
     </g>
     <g id="line2d_29">
      <g>
       <use xlink:href="#md0d5504d2e" x="208.20946" y="15.84" style="stroke: #000000"/>
      </g>
     </g>
    </g>
    <g id="xtick_13">
     <g id="line2d_30">
      <g>
       <use xlink:href="#mbb90da759a" x="228.500369" y="348.48" style="stroke: #000000"/>
      </g>
     </g>
     <g id="line2d_31">
      <g>
       <use xlink:href="#md0d5504d2e" x="228.500369" y="15.84" style="stroke: #000000"/>
      </g>
     </g>
    </g>
    <g id="xtick_14">
     <g id="line2d_32">
      <g>
       <use xlink:href="#mbb90da759a" x="248.791278" y="348.48" style="stroke: #000000"/>
      </g>
     </g>
     <g id="line2d_33">
      <g>
       <use xlink:href="#md0d5504d2e" x="248.791278" y="15.84" style="stroke: #000000"/>
      </g>
     </g>
    </g>
    <g id="xtick_15">
     <g id="line2d_34">
      <g>
       <use xlink:href="#mbb90da759a" x="289.373097" y="348.48" style="stroke: #000000"/>
      </g>
     </g>
     <g id="line2d_35">
      <g>
       <use xlink:href="#md0d5504d2e" x="289.373097" y="15.84" style="stroke: #000000"/>
      </g>
     </g>
    </g>
    <g id="xtick_16">
     <g id="line2d_36">
      <g>
       <use xlink:href="#mbb90da759a" x="309.664006" y="348.48" style="stroke: #000000"/>
      </g>
     </g>
     <g id="line2d_37">
      <g>
       <use xlink:href="#md0d5504d2e" x="309.664006" y="15.84" style="stroke: #000000"/>
      </g>
     </g>
    </g>
    <g id="xtick_17">
     <g id="line2d_38">
      <g>
       <use xlink:href="#mbb90da759a" x="329.954915" y="348.48" style="stroke: #000000"/>
      </g>
     </g>
     <g id="line2d_39">
      <g>
       <use xlink:href="#md0d5504d2e" x="329.954915" y="15.84" style="stroke: #000000"/>
      </g>
     </g>
    </g>
    <g id="xtick_18">
     <g id="line2d_40">
      <g>
       <use xlink:href="#mbb90da759a" x="350.245824" y="348.48" style="stroke: #000000"/>
      </g>
     </g>
     <g id="line2d_41">
      <g>
       <use xlink:href="#md0d5504d2e" x="350.245824" y="15.84" style="stroke: #000000"/>
      </g>
     </g>
    </g>
    <g id="xtick_19">
     <g id="line2d_42">
      <g>
       <use xlink:href="#mbb90da759a" x="390.827642" y="348.48" style="stroke: #000000"/>
      </g>
     </g>
     <g id="line2d_43">
      <g>
       <use xlink:href="#md0d5504d2e" x="390.827642" y="15.84" style="stroke: #000000"/>
      </g>
     </g>
    </g>
    <g id="xtick_20">
     <g id="line2d_44">
      <g>
       <use xlink:href="#mbb90da759a" x="411.118551" y="348.48" style="stroke: #000000"/>
      </g>
     </g>
     <g id="line2d_45">
      <g>
       <use xlink:href="#md0d5504d2e" x="411.118551" y="15.84" style="stroke: #000000"/>
      </g>
     </g>
    </g>
    <g id="xtick_21">
     <g id="line2d_46">
      <g>
       <use xlink:href="#mbb90da759a" x="431.40946" y="348.48" style="stroke: #000000"/>
      </g>
     </g>
     <g id="line2d_47">
      <g>
       <use xlink:href="#md0d5504d2e" x="431.40946" y="15.84" style="stroke: #000000"/>
      </g>
     </g>
    </g>
    <g id="xtick_22">
     <g id="line2d_48">
      <g>
       <use xlink:href="#mbb90da759a" x="451.700369" y="348.48" style="stroke: #000000"/>
      </g>
     </g>
     <g id="line2d_49">
      <g>
       <use xlink:href="#md0d5504d2e" x="451.700369" y="15.84" style="stroke: #000000"/>
      </g>
     </g>
    </g>
    <g id="xtick_23">
     <g id="line2d_50">
      <g>
       <use xlink:href="#mbb90da759a" x="492.282187" y="348.48" style="stroke: #000000"/>
      </g>
     </g>
     <g id="line2d_51">
      <g>
       <use xlink:href="#md0d5504d2e" x="492.282187" y="15.84" style="stroke: #000000"/>
      </g>
     </g>
    </g>
    <g id="text_6">
     <!-- Phase -->
     <g transform="translate(243.564375 389.825625) scale(0.18 -0.18)">
      <defs>
       <path id="ArialMT-50" d="M 494 0 
L 494 4581 
L 2222 4581 
Q 2678 4581 2919 4538 
Q 3256 4481 3484 4323 
Q 3713 4166 3852 3881 
Q 3991 3597 3991 3256 
Q 3991 2672 3619 2267 
Q 3247 1863 2275 1863 
L 1100 1863 
L 1100 0 
L 494 0 
z
M 1100 2403 
L 2284 2403 
Q 2872 2403 3119 2622 
Q 3366 2841 3366 3238 
Q 3366 3525 3220 3729 
Q 3075 3934 2838 4000 
Q 2684 4041 2272 4041 
L 1100 4041 
L 1100 2403 
z
" transform="scale(0.015625)"/>
       <path id="ArialMT-68" d="M 422 0 
L 422 4581 
L 984 4581 
L 984 2938 
Q 1378 3394 1978 3394 
Q 2347 3394 2619 3248 
Q 2891 3103 3008 2847 
Q 3125 2591 3125 2103 
L 3125 0 
L 2563 0 
L 2563 2103 
Q 2563 2525 2380 2717 
Q 2197 2909 1863 2909 
Q 1613 2909 1392 2779 
Q 1172 2650 1078 2428 
Q 984 2206 984 1816 
L 984 0 
L 422 0 
z
" transform="scale(0.015625)"/>
       <path id="ArialMT-61" d="M 2588 409 
Q 2275 144 1986 34 
Q 1697 -75 1366 -75 
Q 819 -75 525 192 
Q 231 459 231 875 
Q 231 1119 342 1320 
Q 453 1522 633 1644 
Q 813 1766 1038 1828 
Q 1203 1872 1538 1913 
Q 2219 1994 2541 2106 
Q 2544 2222 2544 2253 
Q 2544 2597 2384 2738 
Q 2169 2928 1744 2928 
Q 1347 2928 1158 2789 
Q 969 2650 878 2297 
L 328 2372 
Q 403 2725 575 2942 
Q 747 3159 1072 3276 
Q 1397 3394 1825 3394 
Q 2250 3394 2515 3294 
Q 2781 3194 2906 3042 
Q 3031 2891 3081 2659 
Q 3109 2516 3109 2141 
L 3109 1391 
Q 3109 606 3145 398 
Q 3181 191 3288 0 
L 2700 0 
Q 2613 175 2588 409 
z
M 2541 1666 
Q 2234 1541 1622 1453 
Q 1275 1403 1131 1340 
Q 988 1278 909 1158 
Q 831 1038 831 891 
Q 831 666 1001 516 
Q 1172 366 1500 366 
Q 1825 366 2078 508 
Q 2331 650 2450 897 
Q 2541 1088 2541 1459 
L 2541 1666 
z
" transform="scale(0.015625)"/>
       <path id="ArialMT-73" d="M 197 991 
L 753 1078 
Q 800 744 1014 566 
Q 1228 388 1613 388 
Q 2000 388 2187 545 
Q 2375 703 2375 916 
Q 2375 1106 2209 1216 
Q 2094 1291 1634 1406 
Q 1016 1563 777 1677 
Q 538 1791 414 1992 
Q 291 2194 291 2438 
Q 291 2659 392 2848 
Q 494 3038 669 3163 
Q 800 3259 1026 3326 
Q 1253 3394 1513 3394 
Q 1903 3394 2198 3281 
Q 2494 3169 2634 2976 
Q 2775 2784 2828 2463 
L 2278 2388 
Q 2241 2644 2061 2787 
Q 1881 2931 1553 2931 
Q 1166 2931 1000 2803 
Q 834 2675 834 2503 
Q 834 2394 903 2306 
Q 972 2216 1119 2156 
Q 1203 2125 1616 2013 
Q 2213 1853 2448 1751 
Q 2684 1650 2818 1456 
Q 2953 1263 2953 975 
Q 2953 694 2789 445 
Q 2625 197 2315 61 
Q 2006 -75 1616 -75 
Q 969 -75 630 194 
Q 291 463 197 991 
z
" transform="scale(0.015625)"/>
       <path id="ArialMT-65" d="M 2694 1069 
L 3275 997 
Q 3138 488 2766 206 
Q 2394 -75 1816 -75 
Q 1088 -75 661 373 
Q 234 822 234 1631 
Q 234 2469 665 2931 
Q 1097 3394 1784 3394 
Q 2450 3394 2872 2941 
Q 3294 2488 3294 1666 
Q 3294 1616 3291 1516 
L 816 1516 
Q 847 969 1125 678 
Q 1403 388 1819 388 
Q 2128 388 2347 550 
Q 2566 713 2694 1069 
z
M 847 1978 
L 2700 1978 
Q 2663 2397 2488 2606 
Q 2219 2931 1791 2931 
Q 1403 2931 1139 2672 
Q 875 2413 847 1978 
z
" transform="scale(0.015625)"/>
      </defs>
      <use xlink:href="#ArialMT-50"/>
      <use xlink:href="#ArialMT-68" x="66.699219"/>
      <use xlink:href="#ArialMT-61" x="122.314453"/>
      <use xlink:href="#ArialMT-73" x="177.929688"/>
      <use xlink:href="#ArialMT-65" x="227.929688"/>
     </g>
    </g>
   </g>
   <g id="matplotlib.axis_2">
    <g id="ytick_1">
     <g id="line2d_52">
      <path d="M 45.882188 348.48 
L 492.282187 348.48 
" clip-path="url(#pf6d2c1e9b4)" style="fill: none; stroke-dasharray: 7.4,3.2; stroke-dashoffset: 0; stroke: #d3d3d3; stroke-opacity: 0.3; stroke-width: 2"/>
     </g>
     <g id="line2d_53">
      <defs>
       <path id="mec3b92dabc" d="M 0 0 
L 10 0 
" style="stroke: #000000; stroke-width: 2"/>
      </defs>
      <g>
       <use xlink:href="#mec3b92dabc" x="45.882188" y="348.48" style="stroke: #000000; stroke-width: 2"/>
      </g>
     </g>
     <g id="line2d_54">
      <defs>
       <path id="mcdc7df734f" d="M 0 0 
L -10 0 
" style="stroke: #000000; stroke-width: 2"/>
      </defs>
      <g>
       <use xlink:href="#mcdc7df734f" x="492.282187" y="348.48" style="stroke: #000000; stroke-width: 2"/>
      </g>
     </g>
     <g id="text_7">
      <!-- 0 -->
      <g transform="translate(27.8725 354.922031) scale(0.18 -0.18)">
       <use xlink:href="#ArialMT-30"/>
      </g>
     </g>
    </g>
    <g id="ytick_2">
     <g id="line2d_55">
      <path d="M 45.882188 244.53 
L 492.282187 244.53 
" clip-path="url(#pf6d2c1e9b4)" style="fill: none; stroke-dasharray: 7.4,3.2; stroke-dashoffset: 0; stroke: #d3d3d3; stroke-opacity: 0.3; stroke-width: 2"/>
     </g>
     <g id="line2d_56">
      <g>
       <use xlink:href="#mec3b92dabc" x="45.882188" y="244.53" style="stroke: #000000; stroke-width: 2"/>
      </g>
     </g>
     <g id="line2d_57">
      <g>
       <use xlink:href="#mcdc7df734f" x="492.282187" y="244.53" style="stroke: #000000; stroke-width: 2"/>
      </g>
     </g>
     <g id="text_8">
      <!-- 1 -->
      <g transform="translate(27.8725 250.972031) scale(0.18 -0.18)">
       <use xlink:href="#ArialMT-31"/>
      </g>
     </g>
    </g>
    <g id="ytick_3">
     <g id="line2d_58">
      <path d="M 45.882188 140.58 
L 492.282187 140.58 
" clip-path="url(#pf6d2c1e9b4)" style="fill: none; stroke-dasharray: 7.4,3.2; stroke-dashoffset: 0; stroke: #d3d3d3; stroke-opacity: 0.3; stroke-width: 2"/>
     </g>
     <g id="line2d_59">
      <g>
       <use xlink:href="#mec3b92dabc" x="45.882188" y="140.58" style="stroke: #000000; stroke-width: 2"/>
      </g>
     </g>
     <g id="line2d_60">
      <g>
       <use xlink:href="#mcdc7df734f" x="492.282187" y="140.58" style="stroke: #000000; stroke-width: 2"/>
      </g>
     </g>
     <g id="text_9">
      <!-- 2 -->
      <g transform="translate(27.8725 147.022031) scale(0.18 -0.18)">
       <use xlink:href="#ArialMT-32"/>
      </g>
     </g>
    </g>
    <g id="ytick_4">
     <g id="line2d_61">
      <path d="M 45.882188 36.63 
L 492.282187 36.63 
" clip-path="url(#pf6d2c1e9b4)" style="fill: none; stroke-dasharray: 7.4,3.2; stroke-dashoffset: 0; stroke: #d3d3d3; stroke-opacity: 0.3; stroke-width: 2"/>
     </g>
     <g id="line2d_62">
      <g>
       <use xlink:href="#mec3b92dabc" x="45.882188" y="36.63" style="stroke: #000000; stroke-width: 2"/>
      </g>
     </g>
     <g id="line2d_63">
      <g>
       <use xlink:href="#mcdc7df734f" x="492.282187" y="36.63" style="stroke: #000000; stroke-width: 2"/>
      </g>
     </g>
     <g id="text_10">
      <!-- 3 -->
      <g transform="translate(27.8725 43.072031) scale(0.18 -0.18)">
       <defs>
        <path id="ArialMT-33" d="M 269 1209 
L 831 1284 
Q 928 806 1161 595 
Q 1394 384 1728 384 
Q 2125 384 2398 659 
Q 2672 934 2672 1341 
Q 2672 1728 2419 1979 
Q 2166 2231 1775 2231 
Q 1616 2231 1378 2169 
L 1441 2663 
Q 1497 2656 1531 2656 
Q 1891 2656 2178 2843 
Q 2466 3031 2466 3422 
Q 2466 3731 2256 3934 
Q 2047 4138 1716 4138 
Q 1388 4138 1169 3931 
Q 950 3725 888 3313 
L 325 3413 
Q 428 3978 793 4289 
Q 1159 4600 1703 4600 
Q 2078 4600 2393 4439 
Q 2709 4278 2876 4000 
Q 3044 3722 3044 3409 
Q 3044 3113 2884 2869 
Q 2725 2625 2413 2481 
Q 2819 2388 3044 2092 
Q 3269 1797 3269 1353 
Q 3269 753 2831 336 
Q 2394 -81 1725 -81 
Q 1122 -81 723 278 
Q 325 638 269 1209 
z
" transform="scale(0.015625)"/>
       </defs>
       <use xlink:href="#ArialMT-33"/>
      </g>
     </g>
    </g>
    <g id="ytick_5">
     <g id="line2d_64">
      <defs>
       <path id="m3f3d204f15" d="M 0 0 
L 5 0 
" style="stroke: #000000"/>
      </defs>
      <g>
       <use xlink:href="#m3f3d204f15" x="45.882188" y="327.69" style="stroke: #000000"/>
      </g>
     </g>
     <g id="line2d_65">
      <defs>
       <path id="mb184eb7662" d="M 0 0 
L -5 0 
" style="stroke: #000000"/>
      </defs>
      <g>
       <use xlink:href="#mb184eb7662" x="492.282187" y="327.69" style="stroke: #000000"/>
      </g>
     </g>
    </g>
    <g id="ytick_6">
     <g id="line2d_66">
      <g>
       <use xlink:href="#m3f3d204f15" x="45.882188" y="306.9" style="stroke: #000000"/>
      </g>
     </g>
     <g id="line2d_67">
      <g>
       <use xlink:href="#mb184eb7662" x="492.282187" y="306.9" style="stroke: #000000"/>
      </g>
     </g>
    </g>
    <g id="ytick_7">
     <g id="line2d_68">
      <g>
       <use xlink:href="#m3f3d204f15" x="45.882188" y="286.11" style="stroke: #000000"/>
      </g>
     </g>
     <g id="line2d_69">
      <g>
       <use xlink:href="#mb184eb7662" x="492.282187" y="286.11" style="stroke: #000000"/>
      </g>
     </g>
    </g>
    <g id="ytick_8">
     <g id="line2d_70">
      <g>
       <use xlink:href="#m3f3d204f15" x="45.882188" y="265.32" style="stroke: #000000"/>
      </g>
     </g>
     <g id="line2d_71">
      <g>
       <use xlink:href="#mb184eb7662" x="492.282187" y="265.32" style="stroke: #000000"/>
      </g>
     </g>
    </g>
    <g id="ytick_9">
     <g id="line2d_72">
      <g>
       <use xlink:href="#m3f3d204f15" x="45.882188" y="223.74" style="stroke: #000000"/>
      </g>
     </g>
     <g id="line2d_73">
      <g>
       <use xlink:href="#mb184eb7662" x="492.282187" y="223.74" style="stroke: #000000"/>
      </g>
     </g>
    </g>
    <g id="ytick_10">
     <g id="line2d_74">
      <g>
       <use xlink:href="#m3f3d204f15" x="45.882188" y="202.95" style="stroke: #000000"/>
      </g>
     </g>
     <g id="line2d_75">
      <g>
       <use xlink:href="#mb184eb7662" x="492.282187" y="202.95" style="stroke: #000000"/>
      </g>
     </g>
    </g>
    <g id="ytick_11">
     <g id="line2d_76">
      <g>
       <use xlink:href="#m3f3d204f15" x="45.882188" y="182.16" style="stroke: #000000"/>
      </g>
     </g>
     <g id="line2d_77">
      <g>
       <use xlink:href="#mb184eb7662" x="492.282187" y="182.16" style="stroke: #000000"/>
      </g>
     </g>
    </g>
    <g id="ytick_12">
     <g id="line2d_78">
      <g>
       <use xlink:href="#m3f3d204f15" x="45.882188" y="161.37" style="stroke: #000000"/>
      </g>
     </g>
     <g id="line2d_79">
      <g>
       <use xlink:href="#mb184eb7662" x="492.282187" y="161.37" style="stroke: #000000"/>
      </g>
     </g>
    </g>
    <g id="ytick_13">
     <g id="line2d_80">
      <g>
       <use xlink:href="#m3f3d204f15" x="45.882188" y="119.79" style="stroke: #000000"/>
      </g>
     </g>
     <g id="line2d_81">
      <g>
       <use xlink:href="#mb184eb7662" x="492.282187" y="119.79" style="stroke: #000000"/>
      </g>
     </g>
    </g>
    <g id="ytick_14">
     <g id="line2d_82">
      <g>
       <use xlink:href="#m3f3d204f15" x="45.882188" y="99" style="stroke: #000000"/>
      </g>
     </g>
     <g id="line2d_83">
      <g>
       <use xlink:href="#mb184eb7662" x="492.282187" y="99" style="stroke: #000000"/>
      </g>
     </g>
    </g>
    <g id="ytick_15">
     <g id="line2d_84">
      <g>
       <use xlink:href="#m3f3d204f15" x="45.882188" y="78.21" style="stroke: #000000"/>
      </g>
     </g>
     <g id="line2d_85">
      <g>
       <use xlink:href="#mb184eb7662" x="492.282187" y="78.21" style="stroke: #000000"/>
      </g>
     </g>
    </g>
    <g id="ytick_16">
     <g id="line2d_86">
      <g>
       <use xlink:href="#m3f3d204f15" x="45.882188" y="57.42" style="stroke: #000000"/>
      </g>
     </g>
     <g id="line2d_87">
      <g>
       <use xlink:href="#mb184eb7662" x="492.282187" y="57.42" style="stroke: #000000"/>
      </g>
     </g>
    </g>
    <g id="ytick_17">
     <g id="line2d_88">
      <g>
       <use xlink:href="#m3f3d204f15" x="45.882188" y="15.84" style="stroke: #000000"/>
      </g>
     </g>
     <g id="line2d_89">
      <g>
       <use xlink:href="#mb184eb7662" x="492.282187" y="15.84" style="stroke: #000000"/>
      </g>
     </g>
    </g>
    <g id="text_11">
     <!-- Density -->
     <g transform="translate(20.084062 212.169375) rotate(-90) scale(0.18 -0.18)">
      <defs>
       <path id="ArialMT-44" d="M 494 0 
L 494 4581 
L 2072 4581 
Q 2606 4581 2888 4516 
Q 3281 4425 3559 4188 
Q 3922 3881 4101 3404 
Q 4281 2928 4281 2316 
Q 4281 1794 4159 1391 
Q 4038 988 3847 723 
Q 3656 459 3429 307 
Q 3203 156 2883 78 
Q 2563 0 2147 0 
L 494 0 
z
M 1100 541 
L 2078 541 
Q 2531 541 2789 625 
Q 3047 709 3200 863 
Q 3416 1078 3536 1442 
Q 3656 1806 3656 2325 
Q 3656 3044 3420 3430 
Q 3184 3816 2847 3947 
Q 2603 4041 2063 4041 
L 1100 4041 
L 1100 541 
z
" transform="scale(0.015625)"/>
       <path id="ArialMT-6e" d="M 422 0 
L 422 3319 
L 928 3319 
L 928 2847 
Q 1294 3394 1984 3394 
Q 2284 3394 2536 3286 
Q 2788 3178 2913 3003 
Q 3038 2828 3088 2588 
Q 3119 2431 3119 2041 
L 3119 0 
L 2556 0 
L 2556 2019 
Q 2556 2363 2490 2533 
Q 2425 2703 2258 2804 
Q 2091 2906 1866 2906 
Q 1506 2906 1245 2678 
Q 984 2450 984 1813 
L 984 0 
L 422 0 
z
" transform="scale(0.015625)"/>
       <path id="ArialMT-69" d="M 425 3934 
L 425 4581 
L 988 4581 
L 988 3934 
L 425 3934 
z
M 425 0 
L 425 3319 
L 988 3319 
L 988 0 
L 425 0 
z
" transform="scale(0.015625)"/>
       <path id="ArialMT-74" d="M 1650 503 
L 1731 6 
Q 1494 -44 1306 -44 
Q 1000 -44 831 53 
Q 663 150 594 308 
Q 525 466 525 972 
L 525 2881 
L 113 2881 
L 113 3319 
L 525 3319 
L 525 4141 
L 1084 4478 
L 1084 3319 
L 1650 3319 
L 1650 2881 
L 1084 2881 
L 1084 941 
Q 1084 700 1114 631 
Q 1144 563 1211 522 
Q 1278 481 1403 481 
Q 1497 481 1650 503 
z
" transform="scale(0.015625)"/>
       <path id="ArialMT-79" d="M 397 -1278 
L 334 -750 
Q 519 -800 656 -800 
Q 844 -800 956 -737 
Q 1069 -675 1141 -563 
Q 1194 -478 1313 -144 
Q 1328 -97 1363 -6 
L 103 3319 
L 709 3319 
L 1400 1397 
Q 1534 1031 1641 628 
Q 1738 1016 1872 1384 
L 2581 3319 
L 3144 3319 
L 1881 -56 
Q 1678 -603 1566 -809 
Q 1416 -1088 1222 -1217 
Q 1028 -1347 759 -1347 
Q 597 -1347 397 -1278 
z
" transform="scale(0.015625)"/>
      </defs>
      <use xlink:href="#ArialMT-44"/>
      <use xlink:href="#ArialMT-65" x="72.216797"/>
      <use xlink:href="#ArialMT-6e" x="127.832031"/>
      <use xlink:href="#ArialMT-73" x="183.447266"/>
      <use xlink:href="#ArialMT-69" x="233.447266"/>
      <use xlink:href="#ArialMT-74" x="255.664062"/>
      <use xlink:href="#ArialMT-79" x="283.447266"/>
     </g>
    </g>
   </g>
   <g id="line2d_90">
    <path d="M 66.173097 244.53 
L 471.991278 244.53 
" clip-path="url(#pf6d2c1e9b4)" style="fill: none; stroke-dasharray: 2,3.3; stroke-dashoffset: 0; stroke: #808080; stroke-width: 2"/>
   </g>
   <g id="line2d_91">
    <path d="M 66.173097 284.973188 
L 69.019517 284.857681 
L 71.865937 284.522746 
L 74.712357 283.967546 
L 77.558777 283.190761 
L 80.405197 282.190676 
L 83.251617 280.965314 
L 86.098037 279.512602 
L 88.944457 277.830586 
L 91.790878 275.917675 
L 95.043929 273.447618 
L 98.296981 270.675056 
L 101.550032 267.60267 
L 104.803084 264.236376 
L 108.462767 260.110627 
L 112.12245 255.647538 
L 116.188764 250.331355 
L 120.66171 244.118172 
L 126.761182 235.21697 
L 138.146862 218.475052 
L 142.213177 212.913645 
L 145.466228 208.790954 
L 148.312648 205.489441 
L 151.159069 202.527005 
L 153.598857 200.293956 
L 156.038646 198.372477 
L 158.071803 197.026731 
L 160.10496 195.926081 
L 162.138118 195.080427 
L 164.171275 194.497459 
L 166.204432 194.182519 
L 168.237589 194.138506 
L 170.270746 194.365828 
L 172.303904 194.862388 
L 174.337061 195.623628 
L 176.370218 196.642606 
L 178.403375 197.910121 
L 180.436533 199.414874 
L 182.876321 201.515019 
L 185.31611 203.911712 
L 188.16253 207.044043 
L 191.415582 211.006218 
L 195.075265 215.857633 
L 199.54821 222.193589 
L 206.867576 233.027407 
L 214.593574 244.337794 
L 219.473151 251.085098 
L 223.539466 256.352305 
L 227.199149 260.765472 
L 230.858832 264.837373 
L 234.111883 268.153581 
L 237.364935 271.174594 
L 240.617986 273.895113 
L 243.871038 276.312932 
L 247.124089 278.428145 
L 249.97051 280.032018 
L 252.81693 281.407222 
L 255.66335 282.555779 
L 258.50977 283.479752 
L 261.35619 284.181044 
L 264.20261 284.66125 
L 267.04903 284.921533 
L 269.082187 284.973188 
L 269.082187 284.973188 
" clip-path="url(#pf6d2c1e9b4)" style="fill: none; stroke-dasharray: 7.4,3.2; stroke-dashoffset: 0; stroke: #ff7f50; stroke-width: 2"/>
   </g>
   <g id="line2d_92">
    <path d="M 269.082187 284.973188 
L 271.928608 284.857681 
L 274.775028 284.522746 
L 277.621448 283.967546 
L 280.467868 283.190761 
L 283.314288 282.190676 
L 286.160708 280.965314 
L 289.007128 279.512602 
L 291.853548 277.830586 
L 294.699969 275.917675 
L 297.95302 273.447618 
L 301.206072 270.675056 
L 304.459123 267.60267 
L 307.712175 264.236376 
L 311.371858 260.110627 
L 315.031541 255.647538 
L 319.097855 250.331355 
L 323.570801 244.118172 
L 329.670273 235.21697 
L 341.055953 218.475052 
L 345.122268 212.913645 
L 348.375319 208.790954 
L 351.221739 205.489441 
L 354.068159 202.527005 
L 356.507948 200.293956 
L 358.947737 198.372477 
L 360.980894 197.026731 
L 363.014051 195.926081 
L 365.047208 195.080427 
L 367.080366 194.497459 
L 369.113523 194.182519 
L 371.14668 194.138506 
L 373.179837 194.365828 
L 375.212995 194.862388 
L 377.246152 195.623628 
L 379.279309 196.642606 
L 381.312466 197.910121 
L 383.345623 199.414874 
L 385.785412 201.515019 
L 388.225201 203.911712 
L 391.071621 207.044043 
L 394.324672 211.006218 
L 397.984355 215.857633 
L 402.457301 222.193589 
L 409.776667 233.027407 
L 417.502665 244.337794 
L 422.382242 251.085098 
L 426.448557 256.352305 
L 430.10824 260.765472 
L 433.767923 264.837373 
L 437.020974 268.153581 
L 440.274026 271.174594 
L 443.527077 273.895113 
L 446.780129 276.312932 
L 450.03318 278.428145 
L 452.879601 280.032018 
L 455.726021 281.407222 
L 458.572441 282.555779 
L 461.418861 283.479752 
L 464.265281 284.181044 
L 467.111701 284.66125 
L 469.958121 284.921533 
L 471.991278 284.973188 
L 471.991278 284.973188 
" clip-path="url(#pf6d2c1e9b4)" style="fill: none; stroke-dasharray: 7.4,3.2; stroke-dashoffset: 0; stroke: #ff7f50; stroke-width: 2"/>
   </g>
   <g id="line2d_93">
    <path d="M 66.173097 238.157382 
L 67.799622 239.462945 
L 69.83278 241.436225 
L 71.865937 243.760087 
L 73.899094 246.399457 
L 76.338883 249.928329 
L 79.185303 254.452222 
L 82.844986 260.72653 
L 95.857192 283.541385 
L 98.703612 287.921643 
L 101.143401 291.319127 
L 103.58319 294.312685 
L 105.616347 296.443448 
L 107.242873 297.874542 
L 108.869398 299.032178 
L 110.495924 299.885256 
L 111.715818 300.304626 
L 112.935713 300.517549 
L 114.155607 300.506991 
L 115.375501 300.254717 
L 116.595396 299.741317 
L 117.81529 298.94628 
L 119.035184 297.848124 
L 120.255079 296.424586 
L 121.474973 294.652887 
L 122.694867 292.510072 
L 123.914762 289.973442 
L 125.134656 287.021064 
L 126.761182 282.402593 
L 128.387708 276.96605 
L 130.014233 270.678664 
L 131.640759 263.521222 
L 133.267285 255.491974 
L 135.300442 244.261707 
L 137.333599 231.79622 
L 139.773388 215.444842 
L 143.02644 192.019783 
L 148.312648 153.706258 
L 150.752437 137.83444 
L 152.378963 128.50291 
L 154.005489 120.455341 
L 155.225383 115.393918 
L 156.445277 111.256415 
L 157.25854 109.044467 
L 158.071803 107.288563 
L 158.885066 106.001386 
L 159.698329 105.192287 
L 160.511592 104.867168 
L 160.918223 104.886983 
L 161.324855 105.028406 
L 162.138118 105.674821 
L 162.95138 106.801694 
L 163.764643 108.400826 
L 164.577906 110.460641 
L 165.797801 114.380919 
L 167.017695 119.241128 
L 168.237589 124.965048 
L 169.864115 133.787368 
L 171.897272 146.397335 
L 174.337061 163.196015 
L 184.096216 232.64304 
L 186.536004 247.364757 
L 188.569161 258.24897 
L 190.602319 267.78919 
L 192.228844 274.439332 
L 193.85537 280.228718 
L 195.481896 285.184907 
L 197.108422 289.346845 
L 198.734948 292.761382 
L 199.954842 294.862796 
L 201.174736 296.595583 
L 202.394631 297.982697 
L 203.614525 299.046877 
L 204.834419 299.810312 
L 206.054314 300.294387 
L 207.274208 300.519499 
L 208.494102 300.504931 
L 209.713997 300.26879 
L 210.933891 299.82798 
L 212.560417 298.948862 
L 214.186942 297.767837 
L 215.813468 296.315752 
L 217.846625 294.161789 
L 219.879783 291.677045 
L 222.319571 288.321341 
L 225.165991 283.980099 
L 228.419043 278.587252 
L 232.891989 270.700235 
L 241.024618 256.272536 
L 244.277669 250.974446 
L 247.124089 246.777458 
L 249.563878 243.598692 
L 251.597035 241.296647 
L 253.630193 239.347317 
L 255.256718 238.062229 
L 256.883244 237.035194 
L 258.50977 236.276668 
L 260.136296 235.794441 
L 261.762821 235.593496 
L 263.389347 235.675917 
L 265.015873 236.040849 
L 266.642399 236.684514 
L 268.268925 237.600282 
L 269.082187 238.157382 
L 269.082187 238.157382 
" clip-path="url(#pf6d2c1e9b4)" style="fill: none; stroke-dasharray: 12.8,3.2,2,3.2; stroke-dashoffset: 0; stroke: #008000; stroke-width: 2"/>
   </g>
   <g id="line2d_94">
    <path d="M 269.082187 238.157382 
L 270.708713 239.462945 
L 272.741871 241.436225 
L 274.775028 243.760087 
L 276.808185 246.399457 
L 279.247974 249.928329 
L 282.094394 254.452222 
L 285.754077 260.72653 
L 298.766283 283.541385 
L 301.612703 287.921643 
L 304.052492 291.319127 
L 306.49228 294.312685 
L 308.525438 296.443448 
L 310.151963 297.874542 
L 311.778489 299.032178 
L 313.405015 299.885256 
L 314.624909 300.304626 
L 315.844804 300.517549 
L 317.064698 300.506991 
L 318.284592 300.254717 
L 319.504487 299.741317 
L 320.724381 298.94628 
L 321.944275 297.848124 
L 323.16417 296.424586 
L 324.384064 294.652887 
L 325.603958 292.510072 
L 326.823853 289.973442 
L 328.043747 287.021064 
L 329.670273 282.402593 
L 331.296799 276.96605 
L 332.923324 270.678664 
L 334.54985 263.521222 
L 336.176376 255.491974 
L 338.209533 244.261707 
L 340.24269 231.79622 
L 342.682479 215.444842 
L 345.935531 192.019783 
L 351.221739 153.706258 
L 353.661528 137.83444 
L 355.288054 128.50291 
L 356.91458 120.455341 
L 358.134474 115.393918 
L 359.354368 111.256415 
L 360.167631 109.044467 
L 360.980894 107.288563 
L 361.794157 106.001386 
L 362.60742 105.192287 
L 363.420683 104.867168 
L 363.827314 104.886983 
L 364.233946 105.028406 
L 365.047208 105.674821 
L 365.860471 106.801694 
L 366.673734 108.400826 
L 367.486997 110.460641 
L 368.706891 114.380919 
L 369.926786 119.241128 
L 371.14668 124.965048 
L 372.773206 133.787368 
L 374.806363 146.397335 
L 377.246152 163.196015 
L 387.005306 232.64304 
L 389.445095 247.364757 
L 391.478252 258.24897 
L 393.51141 267.78919 
L 395.137935 274.439332 
L 396.764461 280.228718 
L 398.390987 285.184907 
L 400.017513 289.346845 
L 401.644038 292.761382 
L 402.863933 294.862796 
L 404.083827 296.595583 
L 405.303721 297.982697 
L 406.523616 299.046877 
L 407.74351 299.810312 
L 408.963404 300.294387 
L 410.183299 300.519499 
L 411.403193 300.504931 
L 412.623087 300.26879 
L 413.842982 299.82798 
L 415.469508 298.948862 
L 417.096033 297.767837 
L 418.722559 296.315752 
L 420.755716 294.161789 
L 422.788874 291.677045 
L 425.228662 288.321341 
L 428.075082 283.980099 
L 431.328134 278.587252 
L 435.80108 270.700235 
L 443.933709 256.272536 
L 447.18676 250.974446 
L 450.03318 246.777458 
L 452.472969 243.598692 
L 454.506126 241.296647 
L 456.539284 239.347317 
L 458.165809 238.062229 
L 459.792335 237.035194 
L 461.418861 236.276668 
L 463.045387 235.794441 
L 464.671912 235.593496 
L 466.298438 235.675917 
L 467.924964 236.040849 
L 469.55149 236.684514 
L 471.178016 237.600282 
L 471.991278 238.157382 
L 471.991278 238.157382 
" clip-path="url(#pf6d2c1e9b4)" style="fill: none; stroke-dasharray: 12.8,3.2,2,3.2; stroke-dashoffset: 0; stroke: #008000; stroke-width: 2"/>
   </g>
   <g id="patch_43">
    <path d="M 45.882188 348.48 
L 45.882188 15.84 
" style="fill: none; stroke: #000000; stroke-width: 2; stroke-linejoin: miter; stroke-linecap: square"/>
   </g>
   <g id="patch_44">
    <path d="M 492.282187 348.48 
L 492.282187 15.84 
" style="fill: none; stroke: #000000; stroke-width: 2; stroke-linejoin: miter; stroke-linecap: square"/>
   </g>
   <g id="patch_45">
    <path d="M 45.882188 348.48 
L 492.282187 348.48 
" style="fill: none; stroke: #000000; stroke-width: 2; stroke-linejoin: miter; stroke-linecap: square"/>
   </g>
   <g id="patch_46">
    <path d="M 45.882188 15.84 
L 492.282187 15.84 
" style="fill: none; stroke: #000000; stroke-width: 2; stroke-linejoin: miter; stroke-linecap: square"/>
   </g>
   <g id="text_12">
    <!-- FAST #1 -->
    <g transform="translate(59.274187 39.217039) scale(0.15 -0.15)">
     <defs>
      <path id="ArialMT-46" d="M 525 0 
L 525 4581 
L 3616 4581 
L 3616 4041 
L 1131 4041 
L 1131 2622 
L 3281 2622 
L 3281 2081 
L 1131 2081 
L 1131 0 
L 525 0 
z
" transform="scale(0.015625)"/>
      <path id="ArialMT-41" d="M -9 0 
L 1750 4581 
L 2403 4581 
L 4278 0 
L 3588 0 
L 3053 1388 
L 1138 1388 
L 634 0 
L -9 0 
z
M 1313 1881 
L 2866 1881 
L 2388 3150 
Q 2169 3728 2063 4100 
Q 1975 3659 1816 3225 
L 1313 1881 
z
" transform="scale(0.015625)"/>
      <path id="ArialMT-53" d="M 288 1472 
L 859 1522 
Q 900 1178 1048 958 
Q 1197 738 1509 602 
Q 1822 466 2213 466 
Q 2559 466 2825 569 
Q 3091 672 3220 851 
Q 3350 1031 3350 1244 
Q 3350 1459 3225 1620 
Q 3100 1781 2813 1891 
Q 2628 1963 1997 2114 
Q 1366 2266 1113 2400 
Q 784 2572 623 2826 
Q 463 3081 463 3397 
Q 463 3744 659 4045 
Q 856 4347 1234 4503 
Q 1613 4659 2075 4659 
Q 2584 4659 2973 4495 
Q 3363 4331 3572 4012 
Q 3781 3694 3797 3291 
L 3216 3247 
Q 3169 3681 2898 3903 
Q 2628 4125 2100 4125 
Q 1550 4125 1298 3923 
Q 1047 3722 1047 3438 
Q 1047 3191 1225 3031 
Q 1400 2872 2139 2705 
Q 2878 2538 3153 2413 
Q 3553 2228 3743 1945 
Q 3934 1663 3934 1294 
Q 3934 928 3725 604 
Q 3516 281 3123 101 
Q 2731 -78 2241 -78 
Q 1619 -78 1198 103 
Q 778 284 539 648 
Q 300 1013 288 1472 
z
" transform="scale(0.015625)"/>
      <path id="ArialMT-54" d="M 1659 0 
L 1659 4041 
L 150 4041 
L 150 4581 
L 3781 4581 
L 3781 4041 
L 2266 4041 
L 2266 0 
L 1659 0 
z
" transform="scale(0.015625)"/>
      <path id="ArialMT-20" transform="scale(0.015625)"/>
      <path id="ArialMT-23" d="M 322 -78 
L 594 1253 
L 66 1253 
L 66 1719 
L 688 1719 
L 919 2853 
L 66 2853 
L 66 3319 
L 1013 3319 
L 1284 4659 
L 1753 4659 
L 1481 3319 
L 2466 3319 
L 2738 4659 
L 3209 4659 
L 2938 3319 
L 3478 3319 
L 3478 2853 
L 2844 2853 
L 2609 1719 
L 3478 1719 
L 3478 1253 
L 2516 1253 
L 2244 -78 
L 1775 -78 
L 2044 1253 
L 1063 1253 
L 791 -78 
L 322 -78 
z
M 1156 1719 
L 2138 1719 
L 2372 2853 
L 1388 2853 
L 1156 1719 
z
" transform="scale(0.015625)"/>
     </defs>
     <use xlink:href="#ArialMT-46"/>
     <use xlink:href="#ArialMT-41" x="55.583984"/>
     <use xlink:href="#ArialMT-53" x="122.283203"/>
     <use xlink:href="#ArialMT-54" x="188.982422"/>
     <use xlink:href="#ArialMT-20" x="248.316406"/>
     <use xlink:href="#ArialMT-23" x="276.099609"/>
     <use xlink:href="#ArialMT-31" x="331.714844"/>
    </g>
   </g>
   <g id="text_13">
    <!-- MJD 59321 -->
    <g transform="translate(59.274187 60.838639) scale(0.15 -0.15)">
     <defs>
      <path id="ArialMT-4d" d="M 475 0 
L 475 4581 
L 1388 4581 
L 2472 1338 
Q 2622 884 2691 659 
Q 2769 909 2934 1394 
L 4031 4581 
L 4847 4581 
L 4847 0 
L 4263 0 
L 4263 3834 
L 2931 0 
L 2384 0 
L 1059 3900 
L 1059 0 
L 475 0 
z
" transform="scale(0.015625)"/>
      <path id="ArialMT-4a" d="M 184 1300 
L 731 1375 
Q 753 850 928 656 
Q 1103 463 1413 463 
Q 1641 463 1806 567 
Q 1972 672 2034 851 
Q 2097 1031 2097 1425 
L 2097 4581 
L 2703 4581 
L 2703 1459 
Q 2703 884 2564 568 
Q 2425 253 2123 87 
Q 1822 -78 1416 -78 
Q 813 -78 492 269 
Q 172 616 184 1300 
z
" transform="scale(0.015625)"/>
      <path id="ArialMT-39" d="M 350 1059 
L 891 1109 
Q 959 728 1153 556 
Q 1347 384 1650 384 
Q 1909 384 2104 503 
Q 2300 622 2425 820 
Q 2550 1019 2634 1356 
Q 2719 1694 2719 2044 
Q 2719 2081 2716 2156 
Q 2547 1888 2255 1720 
Q 1963 1553 1622 1553 
Q 1053 1553 659 1965 
Q 266 2378 266 3053 
Q 266 3750 677 4175 
Q 1088 4600 1706 4600 
Q 2153 4600 2523 4359 
Q 2894 4119 3086 3673 
Q 3278 3228 3278 2384 
Q 3278 1506 3087 986 
Q 2897 466 2520 194 
Q 2144 -78 1638 -78 
Q 1100 -78 759 220 
Q 419 519 350 1059 
z
M 2653 3081 
Q 2653 3566 2395 3850 
Q 2138 4134 1775 4134 
Q 1400 4134 1122 3828 
Q 844 3522 844 3034 
Q 844 2597 1108 2323 
Q 1372 2050 1759 2050 
Q 2150 2050 2401 2323 
Q 2653 2597 2653 3081 
z
" transform="scale(0.015625)"/>
     </defs>
     <use xlink:href="#ArialMT-4d"/>
     <use xlink:href="#ArialMT-4a" x="83.300781"/>
     <use xlink:href="#ArialMT-44" x="133.300781"/>
     <use xlink:href="#ArialMT-20" x="205.517578"/>
     <use xlink:href="#ArialMT-35" x="233.300781"/>
     <use xlink:href="#ArialMT-39" x="288.916016"/>
     <use xlink:href="#ArialMT-33" x="344.53125"/>
     <use xlink:href="#ArialMT-32" x="400.146484"/>
     <use xlink:href="#ArialMT-31" x="455.761719"/>
    </g>
   </g>
   <g id="text_14">
    <!-- 32 bursts -->
    <g transform="translate(59.274187 82.460239) scale(0.15 -0.15)">
     <defs>
      <path id="ArialMT-62" d="M 941 0 
L 419 0 
L 419 4581 
L 981 4581 
L 981 2947 
Q 1338 3394 1891 3394 
Q 2197 3394 2470 3270 
Q 2744 3147 2920 2923 
Q 3097 2700 3197 2384 
Q 3297 2069 3297 1709 
Q 3297 856 2875 390 
Q 2453 -75 1863 -75 
Q 1275 -75 941 416 
L 941 0 
z
M 934 1684 
Q 934 1088 1097 822 
Q 1363 388 1816 388 
Q 2184 388 2453 708 
Q 2722 1028 2722 1663 
Q 2722 2313 2464 2622 
Q 2206 2931 1841 2931 
Q 1472 2931 1203 2611 
Q 934 2291 934 1684 
z
" transform="scale(0.015625)"/>
      <path id="ArialMT-75" d="M 2597 0 
L 2597 488 
Q 2209 -75 1544 -75 
Q 1250 -75 995 37 
Q 741 150 617 320 
Q 494 491 444 738 
Q 409 903 409 1263 
L 409 3319 
L 972 3319 
L 972 1478 
Q 972 1038 1006 884 
Q 1059 663 1231 536 
Q 1403 409 1656 409 
Q 1909 409 2131 539 
Q 2353 669 2445 892 
Q 2538 1116 2538 1541 
L 2538 3319 
L 3100 3319 
L 3100 0 
L 2597 0 
z
" transform="scale(0.015625)"/>
      <path id="ArialMT-72" d="M 416 0 
L 416 3319 
L 922 3319 
L 922 2816 
Q 1116 3169 1280 3281 
Q 1444 3394 1641 3394 
Q 1925 3394 2219 3213 
L 2025 2691 
Q 1819 2813 1613 2813 
Q 1428 2813 1281 2702 
Q 1134 2591 1072 2394 
Q 978 2094 978 1738 
L 978 0 
L 416 0 
z
" transform="scale(0.015625)"/>
     </defs>
     <use xlink:href="#ArialMT-33"/>
     <use xlink:href="#ArialMT-32" x="55.615234"/>
     <use xlink:href="#ArialMT-20" x="111.230469"/>
     <use xlink:href="#ArialMT-62" x="139.013672"/>
     <use xlink:href="#ArialMT-75" x="194.628906"/>
     <use xlink:href="#ArialMT-72" x="250.244141"/>
     <use xlink:href="#ArialMT-73" x="283.544922"/>
     <use xlink:href="#ArialMT-74" x="333.544922"/>
     <use xlink:href="#ArialMT-73" x="361.328125"/>
    </g>
   </g>
   <g id="legend_1">
    <g id="line2d_95">
     <path d="M 205.557187 35.009531 
L 220.557187 35.009531 
L 235.557187 35.009531 
" style="fill: none; stroke-dasharray: 2,3.3; stroke-dashoffset: 0; stroke: #808080; stroke-width: 2"/>
    </g>
    <g id="text_15">
     <!-- Uniform  (*AIC=117.6, *BIC=117.6) -->
     <g transform="translate(247.557187 40.259531) scale(0.15 -0.15)">
      <defs>
       <path id="ArialMT-55" d="M 3500 4581 
L 4106 4581 
L 4106 1934 
Q 4106 1244 3950 837 
Q 3794 431 3386 176 
Q 2978 -78 2316 -78 
Q 1672 -78 1262 144 
Q 853 366 678 786 
Q 503 1206 503 1934 
L 503 4581 
L 1109 4581 
L 1109 1938 
Q 1109 1341 1220 1058 
Q 1331 775 1601 622 
Q 1872 469 2263 469 
Q 2931 469 3215 772 
Q 3500 1075 3500 1938 
L 3500 4581 
z
" transform="scale(0.015625)"/>
       <path id="ArialMT-66" d="M 556 0 
L 556 2881 
L 59 2881 
L 59 3319 
L 556 3319 
L 556 3672 
Q 556 4006 616 4169 
Q 697 4388 901 4523 
Q 1106 4659 1475 4659 
Q 1713 4659 2000 4603 
L 1916 4113 
Q 1741 4144 1584 4144 
Q 1328 4144 1222 4034 
Q 1116 3925 1116 3625 
L 1116 3319 
L 1763 3319 
L 1763 2881 
L 1116 2881 
L 1116 0 
L 556 0 
z
" transform="scale(0.015625)"/>
       <path id="ArialMT-6f" d="M 213 1659 
Q 213 2581 725 3025 
Q 1153 3394 1769 3394 
Q 2453 3394 2887 2945 
Q 3322 2497 3322 1706 
Q 3322 1066 3130 698 
Q 2938 331 2570 128 
Q 2203 -75 1769 -75 
Q 1072 -75 642 372 
Q 213 819 213 1659 
z
M 791 1659 
Q 791 1022 1069 705 
Q 1347 388 1769 388 
Q 2188 388 2466 706 
Q 2744 1025 2744 1678 
Q 2744 2294 2464 2611 
Q 2184 2928 1769 2928 
Q 1347 2928 1069 2612 
Q 791 2297 791 1659 
z
" transform="scale(0.015625)"/>
       <path id="ArialMT-6d" d="M 422 0 
L 422 3319 
L 925 3319 
L 925 2853 
Q 1081 3097 1340 3245 
Q 1600 3394 1931 3394 
Q 2300 3394 2536 3241 
Q 2772 3088 2869 2813 
Q 3263 3394 3894 3394 
Q 4388 3394 4653 3120 
Q 4919 2847 4919 2278 
L 4919 0 
L 4359 0 
L 4359 2091 
Q 4359 2428 4304 2576 
Q 4250 2725 4106 2815 
Q 3963 2906 3769 2906 
Q 3419 2906 3187 2673 
Q 2956 2441 2956 1928 
L 2956 0 
L 2394 0 
L 2394 2156 
Q 2394 2531 2256 2718 
Q 2119 2906 1806 2906 
Q 1569 2906 1367 2781 
Q 1166 2656 1075 2415 
Q 984 2175 984 1722 
L 984 0 
L 422 0 
z
" transform="scale(0.015625)"/>
       <path id="ArialMT-28" d="M 1497 -1347 
Q 1031 -759 709 28 
Q 388 816 388 1659 
Q 388 2403 628 3084 
Q 909 3875 1497 4659 
L 1900 4659 
Q 1522 4009 1400 3731 
Q 1209 3300 1100 2831 
Q 966 2247 966 1656 
Q 966 153 1900 -1347 
L 1497 -1347 
z
" transform="scale(0.015625)"/>
       <path id="ArialMT-2a" d="M 200 3741 
L 344 4184 
Q 841 4009 1066 3881 
Q 1006 4447 1003 4659 
L 1456 4659 
Q 1447 4350 1384 3884 
Q 1706 4047 2122 4184 
L 2266 3741 
Q 1869 3609 1488 3566 
Q 1678 3400 2025 2975 
L 1650 2709 
Q 1469 2956 1222 3381 
Q 991 2941 816 2709 
L 447 2975 
Q 809 3422 966 3566 
Q 563 3644 200 3741 
z
" transform="scale(0.015625)"/>
       <path id="ArialMT-49" d="M 597 0 
L 597 4581 
L 1203 4581 
L 1203 0 
L 597 0 
z
" transform="scale(0.015625)"/>
       <path id="ArialMT-43" d="M 3763 1606 
L 4369 1453 
Q 4178 706 3683 314 
Q 3188 -78 2472 -78 
Q 1731 -78 1267 223 
Q 803 525 561 1097 
Q 319 1669 319 2325 
Q 319 3041 592 3573 
Q 866 4106 1370 4382 
Q 1875 4659 2481 4659 
Q 3169 4659 3637 4309 
Q 4106 3959 4291 3325 
L 3694 3184 
Q 3534 3684 3231 3912 
Q 2928 4141 2469 4141 
Q 1941 4141 1586 3887 
Q 1231 3634 1087 3207 
Q 944 2781 944 2328 
Q 944 1744 1114 1308 
Q 1284 872 1643 656 
Q 2003 441 2422 441 
Q 2931 441 3284 734 
Q 3638 1028 3763 1606 
z
" transform="scale(0.015625)"/>
       <path id="ArialMT-3d" d="M 3381 2694 
L 356 2694 
L 356 3219 
L 3381 3219 
L 3381 2694 
z
M 3381 1303 
L 356 1303 
L 356 1828 
L 3381 1828 
L 3381 1303 
z
" transform="scale(0.015625)"/>
       <path id="ArialMT-37" d="M 303 3981 
L 303 4522 
L 3269 4522 
L 3269 4084 
Q 2831 3619 2401 2847 
Q 1972 2075 1738 1259 
Q 1569 684 1522 0 
L 944 0 
Q 953 541 1156 1306 
Q 1359 2072 1739 2783 
Q 2119 3494 2547 3981 
L 303 3981 
z
" transform="scale(0.015625)"/>
       <path id="ArialMT-36" d="M 3184 3459 
L 2625 3416 
Q 2550 3747 2413 3897 
Q 2184 4138 1850 4138 
Q 1581 4138 1378 3988 
Q 1113 3794 959 3422 
Q 806 3050 800 2363 
Q 1003 2672 1297 2822 
Q 1591 2972 1913 2972 
Q 2475 2972 2870 2558 
Q 3266 2144 3266 1488 
Q 3266 1056 3080 686 
Q 2894 316 2569 119 
Q 2244 -78 1831 -78 
Q 1128 -78 684 439 
Q 241 956 241 2144 
Q 241 3472 731 4075 
Q 1159 4600 1884 4600 
Q 2425 4600 2770 4297 
Q 3116 3994 3184 3459 
z
M 888 1484 
Q 888 1194 1011 928 
Q 1134 663 1356 523 
Q 1578 384 1822 384 
Q 2178 384 2434 671 
Q 2691 959 2691 1453 
Q 2691 1928 2437 2201 
Q 2184 2475 1800 2475 
Q 1419 2475 1153 2201 
Q 888 1928 888 1484 
z
" transform="scale(0.015625)"/>
       <path id="ArialMT-2c" d="M 569 0 
L 569 641 
L 1209 641 
L 1209 0 
Q 1209 -353 1084 -570 
Q 959 -788 688 -906 
L 531 -666 
Q 709 -588 793 -436 
Q 878 -284 888 0 
L 569 0 
z
" transform="scale(0.015625)"/>
       <path id="ArialMT-42" d="M 469 0 
L 469 4581 
L 2188 4581 
Q 2713 4581 3030 4442 
Q 3347 4303 3526 4014 
Q 3706 3725 3706 3409 
Q 3706 3116 3547 2856 
Q 3388 2597 3066 2438 
Q 3481 2316 3704 2022 
Q 3928 1728 3928 1328 
Q 3928 1006 3792 729 
Q 3656 453 3456 303 
Q 3256 153 2954 76 
Q 2653 0 2216 0 
L 469 0 
z
M 1075 2656 
L 2066 2656 
Q 2469 2656 2644 2709 
Q 2875 2778 2992 2937 
Q 3109 3097 3109 3338 
Q 3109 3566 3000 3739 
Q 2891 3913 2687 3977 
Q 2484 4041 1991 4041 
L 1075 4041 
L 1075 2656 
z
M 1075 541 
L 2216 541 
Q 2509 541 2628 563 
Q 2838 600 2978 687 
Q 3119 775 3209 942 
Q 3300 1109 3300 1328 
Q 3300 1584 3169 1773 
Q 3038 1963 2805 2039 
Q 2572 2116 2134 2116 
L 1075 2116 
L 1075 541 
z
" transform="scale(0.015625)"/>
       <path id="ArialMT-29" d="M 791 -1347 
L 388 -1347 
Q 1322 153 1322 1656 
Q 1322 2244 1188 2822 
Q 1081 3291 891 3722 
Q 769 4003 388 4659 
L 791 4659 
Q 1378 3875 1659 3084 
Q 1900 2403 1900 1659 
Q 1900 816 1576 28 
Q 1253 -759 791 -1347 
z
" transform="scale(0.015625)"/>
      </defs>
      <use xlink:href="#ArialMT-55"/>
      <use xlink:href="#ArialMT-6e" x="72.216797"/>
      <use xlink:href="#ArialMT-69" x="127.832031"/>
      <use xlink:href="#ArialMT-66" x="150.048828"/>
      <use xlink:href="#ArialMT-6f" x="177.832031"/>
      <use xlink:href="#ArialMT-72" x="233.447266"/>
      <use xlink:href="#ArialMT-6d" x="266.748047"/>
      <use xlink:href="#ArialMT-20" x="350.048828"/>
      <use xlink:href="#ArialMT-20" x="377.832031"/>
      <use xlink:href="#ArialMT-28" x="405.615234"/>
      <use xlink:href="#ArialMT-2a" x="438.916016"/>
      <use xlink:href="#ArialMT-41" x="477.832031"/>
      <use xlink:href="#ArialMT-49" x="544.53125"/>
      <use xlink:href="#ArialMT-43" x="572.314453"/>
      <use xlink:href="#ArialMT-3d" x="644.53125"/>
      <use xlink:href="#ArialMT-31" x="702.929688"/>
      <use xlink:href="#ArialMT-31" x="751.169922"/>
      <use xlink:href="#ArialMT-37" x="806.785156"/>
      <use xlink:href="#ArialMT-2e" x="862.400391"/>
      <use xlink:href="#ArialMT-36" x="890.183594"/>
      <use xlink:href="#ArialMT-2c" x="945.798828"/>
      <use xlink:href="#ArialMT-20" x="973.582031"/>
      <use xlink:href="#ArialMT-2a" x="1001.365234"/>
      <use xlink:href="#ArialMT-42" x="1040.28125"/>
      <use xlink:href="#ArialMT-49" x="1106.980469"/>
      <use xlink:href="#ArialMT-43" x="1134.763672"/>
      <use xlink:href="#ArialMT-3d" x="1206.980469"/>
      <use xlink:href="#ArialMT-31" x="1265.378906"/>
      <use xlink:href="#ArialMT-31" x="1313.619141"/>
      <use xlink:href="#ArialMT-37" x="1369.234375"/>
      <use xlink:href="#ArialMT-2e" x="1424.849609"/>
      <use xlink:href="#ArialMT-36" x="1452.632812"/>
      <use xlink:href="#ArialMT-29" x="1508.248047"/>
     </g>
    </g>
    <g id="line2d_96">
     <path d="M 205.557187 56.586094 
L 220.557187 56.586094 
L 235.557187 56.586094 
" style="fill: none; stroke-dasharray: 7.4,3.2; stroke-dashoffset: 0; stroke: #ff7f50; stroke-width: 2"/>
    </g>
    <g id="text_16">
     <!-- Unimodal (AIC=118.6, BIC=121.5) -->
     <g transform="translate(247.557187 61.836094) scale(0.15 -0.15)">
      <defs>
       <path id="ArialMT-64" d="M 2575 0 
L 2575 419 
Q 2259 -75 1647 -75 
Q 1250 -75 917 144 
Q 584 363 401 755 
Q 219 1147 219 1656 
Q 219 2153 384 2558 
Q 550 2963 881 3178 
Q 1213 3394 1622 3394 
Q 1922 3394 2156 3267 
Q 2391 3141 2538 2938 
L 2538 4581 
L 3097 4581 
L 3097 0 
L 2575 0 
z
M 797 1656 
Q 797 1019 1065 703 
Q 1334 388 1700 388 
Q 2069 388 2326 689 
Q 2584 991 2584 1609 
Q 2584 2291 2321 2609 
Q 2059 2928 1675 2928 
Q 1300 2928 1048 2622 
Q 797 2316 797 1656 
z
" transform="scale(0.015625)"/>
       <path id="ArialMT-6c" d="M 409 0 
L 409 4581 
L 972 4581 
L 972 0 
L 409 0 
z
" transform="scale(0.015625)"/>
       <path id="ArialMT-38" d="M 1131 2484 
Q 781 2613 612 2850 
Q 444 3088 444 3419 
Q 444 3919 803 4259 
Q 1163 4600 1759 4600 
Q 2359 4600 2725 4251 
Q 3091 3903 3091 3403 
Q 3091 3084 2923 2848 
Q 2756 2613 2416 2484 
Q 2838 2347 3058 2040 
Q 3278 1734 3278 1309 
Q 3278 722 2862 322 
Q 2447 -78 1769 -78 
Q 1091 -78 675 323 
Q 259 725 259 1325 
Q 259 1772 486 2073 
Q 713 2375 1131 2484 
z
M 1019 3438 
Q 1019 3113 1228 2906 
Q 1438 2700 1772 2700 
Q 2097 2700 2305 2904 
Q 2513 3109 2513 3406 
Q 2513 3716 2298 3927 
Q 2084 4138 1766 4138 
Q 1444 4138 1231 3931 
Q 1019 3725 1019 3438 
z
M 838 1322 
Q 838 1081 952 856 
Q 1066 631 1291 507 
Q 1516 384 1775 384 
Q 2178 384 2440 643 
Q 2703 903 2703 1303 
Q 2703 1709 2433 1975 
Q 2163 2241 1756 2241 
Q 1359 2241 1098 1978 
Q 838 1716 838 1322 
z
" transform="scale(0.015625)"/>
      </defs>
      <use xlink:href="#ArialMT-55"/>
      <use xlink:href="#ArialMT-6e" x="72.216797"/>
      <use xlink:href="#ArialMT-69" x="127.832031"/>
      <use xlink:href="#ArialMT-6d" x="150.048828"/>
      <use xlink:href="#ArialMT-6f" x="233.349609"/>
      <use xlink:href="#ArialMT-64" x="288.964844"/>
      <use xlink:href="#ArialMT-61" x="344.580078"/>
      <use xlink:href="#ArialMT-6c" x="400.195312"/>
      <use xlink:href="#ArialMT-20" x="422.412109"/>
      <use xlink:href="#ArialMT-28" x="450.195312"/>
      <use xlink:href="#ArialMT-41" x="483.496094"/>
      <use xlink:href="#ArialMT-49" x="550.195312"/>
      <use xlink:href="#ArialMT-43" x="577.978516"/>
      <use xlink:href="#ArialMT-3d" x="650.195312"/>
      <use xlink:href="#ArialMT-31" x="708.59375"/>
      <use xlink:href="#ArialMT-31" x="756.833984"/>
      <use xlink:href="#ArialMT-38" x="812.449219"/>
      <use xlink:href="#ArialMT-2e" x="868.064453"/>
      <use xlink:href="#ArialMT-36" x="895.847656"/>
      <use xlink:href="#ArialMT-2c" x="951.462891"/>
      <use xlink:href="#ArialMT-20" x="979.246094"/>
      <use xlink:href="#ArialMT-42" x="1007.029297"/>
      <use xlink:href="#ArialMT-49" x="1073.728516"/>
      <use xlink:href="#ArialMT-43" x="1101.511719"/>
      <use xlink:href="#ArialMT-3d" x="1173.728516"/>
      <use xlink:href="#ArialMT-31" x="1232.126953"/>
      <use xlink:href="#ArialMT-32" x="1287.742188"/>
      <use xlink:href="#ArialMT-31" x="1343.357422"/>
      <use xlink:href="#ArialMT-2e" x="1398.972656"/>
      <use xlink:href="#ArialMT-35" x="1426.755859"/>
      <use xlink:href="#ArialMT-29" x="1482.371094"/>
     </g>
    </g>
    <g id="line2d_97">
     <path d="M 205.557187 78.162656 
L 220.557187 78.162656 
L 235.557187 78.162656 
" style="fill: none; stroke-dasharray: 12.8,3.2,2,3.2; stroke-dashoffset: 0; stroke: #008000; stroke-width: 2"/>
    </g>
    <g id="text_17">
     <!-- Bimodal  (AIC=118.5, BIC=124.4) -->
     <g transform="translate(247.557187 83.412656) scale(0.15 -0.15)">
      <defs>
       <path id="ArialMT-34" d="M 2069 0 
L 2069 1097 
L 81 1097 
L 81 1613 
L 2172 4581 
L 2631 4581 
L 2631 1613 
L 3250 1613 
L 3250 1097 
L 2631 1097 
L 2631 0 
L 2069 0 
z
M 2069 1613 
L 2069 3678 
L 634 1613 
L 2069 1613 
z
" transform="scale(0.015625)"/>
      </defs>
      <use xlink:href="#ArialMT-42"/>
      <use xlink:href="#ArialMT-69" x="66.699219"/>
      <use xlink:href="#ArialMT-6d" x="88.916016"/>
      <use xlink:href="#ArialMT-6f" x="172.216797"/>
      <use xlink:href="#ArialMT-64" x="227.832031"/>
      <use xlink:href="#ArialMT-61" x="283.447266"/>
      <use xlink:href="#ArialMT-6c" x="339.0625"/>
      <use xlink:href="#ArialMT-20" x="361.279297"/>
      <use xlink:href="#ArialMT-20" x="389.0625"/>
      <use xlink:href="#ArialMT-28" x="416.845703"/>
      <use xlink:href="#ArialMT-41" x="450.146484"/>
      <use xlink:href="#ArialMT-49" x="516.845703"/>
      <use xlink:href="#ArialMT-43" x="544.628906"/>
      <use xlink:href="#ArialMT-3d" x="616.845703"/>
      <use xlink:href="#ArialMT-31" x="675.244141"/>
      <use xlink:href="#ArialMT-31" x="723.484375"/>
      <use xlink:href="#ArialMT-38" x="779.099609"/>
      <use xlink:href="#ArialMT-2e" x="834.714844"/>
      <use xlink:href="#ArialMT-35" x="862.498047"/>
      <use xlink:href="#ArialMT-2c" x="918.113281"/>
      <use xlink:href="#ArialMT-20" x="945.896484"/>
      <use xlink:href="#ArialMT-42" x="973.679688"/>
      <use xlink:href="#ArialMT-49" x="1040.378906"/>
      <use xlink:href="#ArialMT-43" x="1068.162109"/>
      <use xlink:href="#ArialMT-3d" x="1140.378906"/>
      <use xlink:href="#ArialMT-31" x="1198.777344"/>
      <use xlink:href="#ArialMT-32" x="1254.392578"/>
      <use xlink:href="#ArialMT-34" x="1310.007812"/>
      <use xlink:href="#ArialMT-2e" x="1365.623047"/>
      <use xlink:href="#ArialMT-34" x="1393.40625"/>
      <use xlink:href="#ArialMT-29" x="1449.021484"/>
     </g>
    </g>
   </g>
  </g>
  <g id="line2d_98">
   <path d="M 45.882188 7.2 
L 492.282187 7.2 
" style="fill: none; stroke: #808080; stroke-opacity: 0.6; stroke-width: 10; stroke-linecap: square"/>
  </g>
 </g>
 <defs>
  <clipPath id="pf6d2c1e9b4">
   <rect x="45.882188" y="15.84" width="446.4" height="332.64"/>
  </clipPath>
 </defs>
</svg>
