<?xml version="1.0" encoding="utf-8" standalone="no"?>
<!DOCTYPE svg PUBLIC "-//W3C//DTD SVG 1.1//EN"
  "http://www.w3.org/Graphics/SVG/1.1/DTD/svg11.dtd">
<svg xmlns:xlink="http://www.w3.org/1999/xlink" width="499.482187pt" height="400.603125pt" viewBox="0 0 499.482187 400.603125" xmlns="http://www.w3.org/2000/svg" version="1.1">
 <metadata>
  <rdf:RDF xmlns:dc="http://purl.org/dc/elements/1.1/" xmlns:cc="http://creativecommons.org/ns#" xmlns:rdf="http://www.w3.org/1999/02/22-rdf-syntax-ns#">
   <cc:Work>
    <dc:type rdf:resource="http://purl.org/dc/dcmitype/StillImage"/>
    <dc:date>2025-08-20T02:17:06.558770</dc:date>
    <dc:format>image/svg+xml</dc:format>
    <dc:creator>
     <cc:Agent>
      <dc:title>Matplotlib v3.8.4, https://matplotlib.org/</dc:title>
     </cc:Agent>
    </dc:creator>
   </cc:Work>
  </rdf:RDF>
 </metadata>
 <defs>
  <style type="text/css">*{stroke-linejoin: round; stroke-linecap: butt}</style>
 </defs>
 <g id="figure_1">
  <g id="patch_1">
   <path d="M 0 400.603125 
L 499.482187 400.603125 
L 499.482187 0 
L 0 0 
z
" style="fill: #ffffff"/>
  </g>
  <g id="axes_1">
   <g id="patch_2">
    <path d="M 45.882188 348.48 
L 492.282187 348.48 
L 492.282187 15.84 
L 45.882188 15.84 
z
" style="fill: #ffffff"/>
   </g>
   <g id="patch_3">
    <path d="M 66.173097 348.48 
L 76.318551 348.48 
L 76.318551 166.5675 
L 66.173097 166.5675 
z
" clip-path="url(#p5bdbafddb7)" style="fill: #4169e1; opacity: 0.6"/>
   </g>
   <g id="patch_4">
    <path d="M 76.318551 348.48 
L 86.464006 348.48 
L 86.464006 257.52375 
L 76.318551 257.52375 
z
" clip-path="url(#p5bdbafddb7)" style="fill: #4169e1; opacity: 0.6"/>
   </g>
   <g id="patch_5">
    <path d="M 86.464006 348.48 
L 96.60946 348.48 
L 96.60946 270.5175 
L 86.464006 270.5175 
z
" clip-path="url(#p5bdbafddb7)" style="fill: #4169e1; opacity: 0.6"/>
   </g>
   <g id="patch_6">
    <path d="M 96.60946 348.48 
L 106.754915 348.48 
L 106.754915 192.555 
L 96.60946 192.555 
z
" clip-path="url(#p5bdbafddb7)" style="fill: #4169e1; opacity: 0.6"/>
   </g>
   <g id="patch_7">
    <path d="M 106.754915 348.48 
L 116.900369 348.48 
L 116.900369 179.56125 
L 106.754915 179.56125 
z
" clip-path="url(#p5bdbafddb7)" style="fill: #4169e1; opacity: 0.6"/>
   </g>
   <g id="patch_8">
    <path d="M 116.900369 348.48 
L 127.045824 348.48 
L 127.045824 88.605 
L 116.900369 88.605 
z
" clip-path="url(#p5bdbafddb7)" style="fill: #4169e1; opacity: 0.6"/>
   </g>
   <g id="patch_9">
    <path d="M 127.045824 348.48 
L 137.191278 348.48 
L 137.191278 127.58625 
L 127.045824 127.58625 
z
" clip-path="url(#p5bdbafddb7)" style="fill: #4169e1; opacity: 0.6"/>
   </g>
   <g id="patch_10">
    <path d="M 137.191278 348.48 
L 147.336733 348.48 
L 147.336733 166.5675 
L 137.191278 166.5675 
z
" clip-path="url(#p5bdbafddb7)" style="fill: #4169e1; opacity: 0.6"/>
   </g>
   <g id="patch_11">
    <path d="M 147.336733 348.48 
L 157.482188 348.48 
L 157.482188 153.57375 
L 147.336733 153.57375 
z
" clip-path="url(#p5bdbafddb7)" style="fill: #4169e1; opacity: 0.6"/>
   </g>
   <g id="patch_12">
    <path d="M 157.482188 348.48 
L 167.627642 348.48 
L 167.627642 166.5675 
L 157.482188 166.5675 
z
" clip-path="url(#p5bdbafddb7)" style="fill: #4169e1; opacity: 0.6"/>
   </g>
   <g id="patch_13">
    <path d="M 167.627642 348.48 
L 177.773097 348.48 
L 177.773097 192.555 
L 167.627642 192.555 
z
" clip-path="url(#p5bdbafddb7)" style="fill: #4169e1; opacity: 0.6"/>
   </g>
   <g id="patch_14">
    <path d="M 177.773097 348.48 
L 187.918551 348.48 
L 187.918551 192.555 
L 177.773097 192.555 
z
" clip-path="url(#p5bdbafddb7)" style="fill: #4169e1; opacity: 0.6"/>
   </g>
   <g id="patch_15">
    <path d="M 187.918551 348.48 
L 198.064006 348.48 
L 198.064006 218.5425 
L 187.918551 218.5425 
z
" clip-path="url(#p5bdbafddb7)" style="fill: #4169e1; opacity: 0.6"/>
   </g>
   <g id="patch_16">
    <path d="M 198.064006 348.48 
L 208.20946 348.48 
L 208.20946 179.56125 
L 198.064006 179.56125 
z
" clip-path="url(#p5bdbafddb7)" style="fill: #4169e1; opacity: 0.6"/>
   </g>
   <g id="patch_17">
    <path d="M 208.20946 348.48 
L 218.354915 348.48 
L 218.354915 179.56125 
L 208.20946 179.56125 
z
" clip-path="url(#p5bdbafddb7)" style="fill: #4169e1; opacity: 0.6"/>
   </g>
   <g id="patch_18">
    <path d="M 218.354915 348.48 
L 228.500369 348.48 
L 228.500369 244.53 
L 218.354915 244.53 
z
" clip-path="url(#p5bdbafddb7)" style="fill: #4169e1; opacity: 0.6"/>
   </g>
   <g id="patch_19">
    <path d="M 228.500369 348.48 
L 238.645824 348.48 
L 238.645824 231.53625 
L 228.500369 231.53625 
z
" clip-path="url(#p5bdbafddb7)" style="fill: #4169e1; opacity: 0.6"/>
   </g>
   <g id="patch_20">
    <path d="M 238.645824 348.48 
L 248.791278 348.48 
L 248.791278 231.53625 
L 238.645824 231.53625 
z
" clip-path="url(#p5bdbafddb7)" style="fill: #4169e1; opacity: 0.6"/>
   </g>
   <g id="patch_21">
    <path d="M 248.791278 348.48 
L 258.936733 348.48 
L 258.936733 270.5175 
L 248.791278 270.5175 
z
" clip-path="url(#p5bdbafddb7)" style="fill: #4169e1; opacity: 0.6"/>
   </g>
   <g id="patch_22">
    <path d="M 258.936733 348.48 
L 269.082188 348.48 
L 269.082188 244.53 
L 258.936733 244.53 
z
" clip-path="url(#p5bdbafddb7)" style="fill: #4169e1; opacity: 0.6"/>
   </g>
   <g id="patch_23">
    <path d="M 269.082187 348.48 
L 279.227642 348.48 
L 279.227642 166.5675 
L 269.082187 166.5675 
z
" clip-path="url(#p5bdbafddb7)" style="fill: #4169e1; opacity: 0.6"/>
   </g>
   <g id="patch_24">
    <path d="M 279.227642 348.48 
L 289.373097 348.48 
L 289.373097 257.52375 
L 279.227642 257.52375 
z
" clip-path="url(#p5bdbafddb7)" style="fill: #4169e1; opacity: 0.6"/>
   </g>
   <g id="patch_25">
    <path d="M 289.373097 348.48 
L 299.518551 348.48 
L 299.518551 270.5175 
L 289.373097 270.5175 
z
" clip-path="url(#p5bdbafddb7)" style="fill: #4169e1; opacity: 0.6"/>
   </g>
   <g id="patch_26">
    <path d="M 299.518551 348.48 
L 309.664006 348.48 
L 309.664006 192.555 
L 299.518551 192.555 
z
" clip-path="url(#p5bdbafddb7)" style="fill: #4169e1; opacity: 0.6"/>
   </g>
   <g id="patch_27">
    <path d="M 309.664006 348.48 
L 319.80946 348.48 
L 319.80946 179.56125 
L 309.664006 179.56125 
z
" clip-path="url(#p5bdbafddb7)" style="fill: #4169e1; opacity: 0.6"/>
   </g>
   <g id="patch_28">
    <path d="M 319.80946 348.48 
L 329.954915 348.48 
L 329.954915 88.605 
L 319.80946 88.605 
z
" clip-path="url(#p5bdbafddb7)" style="fill: #4169e1; opacity: 0.6"/>
   </g>
   <g id="patch_29">
    <path d="M 329.954915 348.48 
L 340.100369 348.48 
L 340.100369 127.58625 
L 329.954915 127.58625 
z
" clip-path="url(#p5bdbafddb7)" style="fill: #4169e1; opacity: 0.6"/>
   </g>
   <g id="patch_30">
    <path d="M 340.100369 348.48 
L 350.245824 348.48 
L 350.245824 166.5675 
L 340.100369 166.5675 
z
" clip-path="url(#p5bdbafddb7)" style="fill: #4169e1; opacity: 0.6"/>
   </g>
   <g id="patch_31">
    <path d="M 350.245824 348.48 
L 360.391278 348.48 
L 360.391278 153.57375 
L 350.245824 153.57375 
z
" clip-path="url(#p5bdbafddb7)" style="fill: #4169e1; opacity: 0.6"/>
   </g>
   <g id="patch_32">
    <path d="M 360.391278 348.48 
L 370.536733 348.48 
L 370.536733 166.5675 
L 360.391278 166.5675 
z
" clip-path="url(#p5bdbafddb7)" style="fill: #4169e1; opacity: 0.6"/>
   </g>
   <g id="patch_33">
    <path d="M 370.536733 348.48 
L 380.682187 348.48 
L 380.682187 192.555 
L 370.536733 192.555 
z
" clip-path="url(#p5bdbafddb7)" style="fill: #4169e1; opacity: 0.6"/>
   </g>
   <g id="patch_34">
    <path d="M 380.682187 348.48 
L 390.827642 348.48 
L 390.827642 192.555 
L 380.682187 192.555 
z
" clip-path="url(#p5bdbafddb7)" style="fill: #4169e1; opacity: 0.6"/>
   </g>
   <g id="patch_35">
    <path d="M 390.827642 348.48 
L 400.973097 348.48 
L 400.973097 218.5425 
L 390.827642 218.5425 
z
" clip-path="url(#p5bdbafddb7)" style="fill: #4169e1; opacity: 0.6"/>
   </g>
   <g id="patch_36">
    <path d="M 400.973097 348.48 
L 411.118551 348.48 
L 411.118551 179.56125 
L 400.973097 179.56125 
z
" clip-path="url(#p5bdbafddb7)" style="fill: #4169e1; opacity: 0.6"/>
   </g>
   <g id="patch_37">
    <path d="M 411.118551 348.48 
L 421.264006 348.48 
L 421.264006 179.56125 
L 411.118551 179.56125 
z
" clip-path="url(#p5bdbafddb7)" style="fill: #4169e1; opacity: 0.6"/>
   </g>
   <g id="patch_38">
    <path d="M 421.264006 348.48 
L 431.40946 348.48 
L 431.40946 244.53 
L 421.264006 244.53 
z
" clip-path="url(#p5bdbafddb7)" style="fill: #4169e1; opacity: 0.6"/>
   </g>
   <g id="patch_39">
    <path d="M 431.40946 348.48 
L 441.554915 348.48 
L 441.554915 231.53625 
L 431.40946 231.53625 
z
" clip-path="url(#p5bdbafddb7)" style="fill: #4169e1; opacity: 0.6"/>
   </g>
   <g id="patch_40">
    <path d="M 441.554915 348.48 
L 451.700369 348.48 
L 451.700369 231.53625 
L 441.554915 231.53625 
z
" clip-path="url(#p5bdbafddb7)" style="fill: #4169e1; opacity: 0.6"/>
   </g>
   <g id="patch_41">
    <path d="M 451.700369 348.48 
L 461.845824 348.48 
L 461.845824 270.5175 
L 451.700369 270.5175 
z
" clip-path="url(#p5bdbafddb7)" style="fill: #4169e1; opacity: 0.6"/>
   </g>
   <g id="patch_42">
    <path d="M 461.845824 348.48 
L 471.991278 348.48 
L 471.991278 244.53 
L 461.845824 244.53 
z
" clip-path="url(#p5bdbafddb7)" style="fill: #4169e1; opacity: 0.6"/>
   </g>
   <g id="matplotlib.axis_1">
    <g id="xtick_1">
     <g id="line2d_1">
      <path d="M 66.173097 348.48 
L 66.173097 15.84 
" clip-path="url(#p5bdbafddb7)" style="fill: none; stroke-dasharray: 7.4,3.2; stroke-dashoffset: 0; stroke: #d3d3d3; stroke-opacity: 0.3; stroke-width: 2"/>
     </g>
     <g id="line2d_2">
      <defs>
       <path id="meac3318cb4" d="M 0 0 
L 0 -10 
" style="stroke: #000000; stroke-width: 2"/>
      </defs>
      <g>
       <use xlink:href="#meac3318cb4" x="66.173097" y="348.48" style="stroke: #000000; stroke-width: 2"/>
      </g>
     </g>
     <g id="line2d_3">
      <defs>
       <path id="m1e8036b93a" d="M 0 0 
L 0 10 
" style="stroke: #000000; stroke-width: 2"/>
      </defs>
      <g>
       <use xlink:href="#m1e8036b93a" x="66.173097" y="15.84" style="stroke: #000000; stroke-width: 2"/>
      </g>
     </g>
     <g id="text_1">
      <!-- 0.0 -->
      <g transform="translate(53.663097 369.364062) scale(0.18 -0.18)">
       <defs>
        <path id="ArialMT-30" d="M 266 2259 
Q 266 3072 433 3567 
Q 600 4063 929 4331 
Q 1259 4600 1759 4600 
Q 2128 4600 2406 4451 
Q 2684 4303 2865 4023 
Q 3047 3744 3150 3342 
Q 3253 2941 3253 2259 
Q 3253 1453 3087 958 
Q 2922 463 2592 192 
Q 2263 -78 1759 -78 
Q 1097 -78 719 397 
Q 266 969 266 2259 
z
M 844 2259 
Q 844 1131 1108 757 
Q 1372 384 1759 384 
Q 2147 384 2411 759 
Q 2675 1134 2675 2259 
Q 2675 3391 2411 3762 
Q 2147 4134 1753 4134 
Q 1366 4134 1134 3806 
Q 844 3388 844 2259 
z
" transform="scale(0.015625)"/>
        <path id="ArialMT-2e" d="M 581 0 
L 581 641 
L 1222 641 
L 1222 0 
L 581 0 
z
" transform="scale(0.015625)"/>
       </defs>
       <use xlink:href="#ArialMT-30"/>
       <use xlink:href="#ArialMT-2e" x="55.615234"/>
       <use xlink:href="#ArialMT-30" x="83.398438"/>
      </g>
     </g>
    </g>
    <g id="xtick_2">
     <g id="line2d_4">
      <path d="M 167.627642 348.48 
L 167.627642 15.84 
" clip-path="url(#p5bdbafddb7)" style="fill: none; stroke-dasharray: 7.4,3.2; stroke-dashoffset: 0; stroke: #d3d3d3; stroke-opacity: 0.3; stroke-width: 2"/>
     </g>
     <g id="line2d_5">
      <g>
       <use xlink:href="#meac3318cb4" x="167.627642" y="348.48" style="stroke: #000000; stroke-width: 2"/>
      </g>
     </g>
     <g id="line2d_6">
      <g>
       <use xlink:href="#m1e8036b93a" x="167.627642" y="15.84" style="stroke: #000000; stroke-width: 2"/>
      </g>
     </g>
     <g id="text_2">
      <!-- 0.5 -->
      <g transform="translate(155.117642 369.364062) scale(0.18 -0.18)">
       <defs>
        <path id="ArialMT-35" d="M 266 1200 
L 856 1250 
Q 922 819 1161 601 
Q 1400 384 1738 384 
Q 2144 384 2425 690 
Q 2706 997 2706 1503 
Q 2706 1984 2436 2262 
Q 2166 2541 1728 2541 
Q 1456 2541 1237 2417 
Q 1019 2294 894 2097 
L 366 2166 
L 809 4519 
L 3088 4519 
L 3088 3981 
L 1259 3981 
L 1013 2750 
Q 1425 3038 1878 3038 
Q 2478 3038 2890 2622 
Q 3303 2206 3303 1553 
Q 3303 931 2941 478 
Q 2500 -78 1738 -78 
Q 1113 -78 717 272 
Q 322 622 266 1200 
z
" transform="scale(0.015625)"/>
       </defs>
       <use xlink:href="#ArialMT-30"/>
       <use xlink:href="#ArialMT-2e" x="55.615234"/>
       <use xlink:href="#ArialMT-35" x="83.398438"/>
      </g>
     </g>
    </g>
    <g id="xtick_3">
     <g id="line2d_7">
      <path d="M 269.082187 348.48 
L 269.082187 15.84 
" clip-path="url(#p5bdbafddb7)" style="fill: none; stroke-dasharray: 7.4,3.2; stroke-dashoffset: 0; stroke: #d3d3d3; stroke-opacity: 0.3; stroke-width: 2"/>
     </g>
     <g id="line2d_8">
      <g>
       <use xlink:href="#meac3318cb4" x="269.082187" y="348.48" style="stroke: #000000; stroke-width: 2"/>
      </g>
     </g>
     <g id="line2d_9">
      <g>
       <use xlink:href="#m1e8036b93a" x="269.082187" y="15.84" style="stroke: #000000; stroke-width: 2"/>
      </g>
     </g>
     <g id="text_3">
      <!-- 1.0 -->
      <g transform="translate(256.572187 369.364062) scale(0.18 -0.18)">
       <defs>
        <path id="ArialMT-31" d="M 2384 0 
L 1822 0 
L 1822 3584 
Q 1619 3391 1289 3197 
Q 959 3003 697 2906 
L 697 3450 
Q 1169 3672 1522 3987 
Q 1875 4303 2022 4600 
L 2384 4600 
L 2384 0 
z
" transform="scale(0.015625)"/>
       </defs>
       <use xlink:href="#ArialMT-31"/>
       <use xlink:href="#ArialMT-2e" x="55.615234"/>
       <use xlink:href="#ArialMT-30" x="83.398438"/>
      </g>
     </g>
    </g>
    <g id="xtick_4">
     <g id="line2d_10">
      <path d="M 370.536733 348.48 
L 370.536733 15.84 
" clip-path="url(#p5bdbafddb7)" style="fill: none; stroke-dasharray: 7.4,3.2; stroke-dashoffset: 0; stroke: #d3d3d3; stroke-opacity: 0.3; stroke-width: 2"/>
     </g>
     <g id="line2d_11">
      <g>
       <use xlink:href="#meac3318cb4" x="370.536733" y="348.48" style="stroke: #000000; stroke-width: 2"/>
      </g>
     </g>
     <g id="line2d_12">
      <g>
       <use xlink:href="#m1e8036b93a" x="370.536733" y="15.84" style="stroke: #000000; stroke-width: 2"/>
      </g>
     </g>
     <g id="text_4">
      <!-- 1.5 -->
      <g transform="translate(358.026733 369.364062) scale(0.18 -0.18)">
       <use xlink:href="#ArialMT-31"/>
       <use xlink:href="#ArialMT-2e" x="55.615234"/>
       <use xlink:href="#ArialMT-35" x="83.398438"/>
      </g>
     </g>
    </g>
    <g id="xtick_5">
     <g id="line2d_13">
      <path d="M 471.991278 348.48 
L 471.991278 15.84 
" clip-path="url(#p5bdbafddb7)" style="fill: none; stroke-dasharray: 7.4,3.2; stroke-dashoffset: 0; stroke: #d3d3d3; stroke-opacity: 0.3; stroke-width: 2"/>
     </g>
     <g id="line2d_14">
      <g>
       <use xlink:href="#meac3318cb4" x="471.991278" y="348.48" style="stroke: #000000; stroke-width: 2"/>
      </g>
     </g>
     <g id="line2d_15">
      <g>
       <use xlink:href="#m1e8036b93a" x="471.991278" y="15.84" style="stroke: #000000; stroke-width: 2"/>
      </g>
     </g>
     <g id="text_5">
      <!-- 2.0 -->
      <g transform="translate(459.481278 369.364062) scale(0.18 -0.18)">
       <defs>
        <path id="ArialMT-32" d="M 3222 541 
L 3222 0 
L 194 0 
Q 188 203 259 391 
Q 375 700 629 1000 
Q 884 1300 1366 1694 
Q 2113 2306 2375 2664 
Q 2638 3022 2638 3341 
Q 2638 3675 2398 3904 
Q 2159 4134 1775 4134 
Q 1369 4134 1125 3890 
Q 881 3647 878 3216 
L 300 3275 
Q 359 3922 746 4261 
Q 1134 4600 1788 4600 
Q 2447 4600 2831 4234 
Q 3216 3869 3216 3328 
Q 3216 3053 3103 2787 
Q 2991 2522 2730 2228 
Q 2469 1934 1863 1422 
Q 1356 997 1212 845 
Q 1069 694 975 541 
L 3222 541 
z
" transform="scale(0.015625)"/>
       </defs>
       <use xlink:href="#ArialMT-32"/>
       <use xlink:href="#ArialMT-2e" x="55.615234"/>
       <use xlink:href="#ArialMT-30" x="83.398438"/>
      </g>
     </g>
    </g>
    <g id="xtick_6">
     <g id="line2d_16">
      <defs>
       <path id="m1c2c3212e7" d="M 0 0 
L 0 -5 
" style="stroke: #000000"/>
      </defs>
      <g>
       <use xlink:href="#m1c2c3212e7" x="45.882188" y="348.48" style="stroke: #000000"/>
      </g>
     </g>
     <g id="line2d_17">
      <defs>
       <path id="m34e61af07f" d="M 0 0 
L 0 5 
" style="stroke: #000000"/>
      </defs>
      <g>
       <use xlink:href="#m34e61af07f" x="45.882188" y="15.84" style="stroke: #000000"/>
      </g>
     </g>
    </g>
    <g id="xtick_7">
     <g id="line2d_18">
      <g>
       <use xlink:href="#m1c2c3212e7" x="86.464006" y="348.48" style="stroke: #000000"/>
      </g>
     </g>
     <g id="line2d_19">
      <g>
       <use xlink:href="#m34e61af07f" x="86.464006" y="15.84" style="stroke: #000000"/>
      </g>
     </g>
    </g>
    <g id="xtick_8">
     <g id="line2d_20">
      <g>
       <use xlink:href="#m1c2c3212e7" x="106.754915" y="348.48" style="stroke: #000000"/>
      </g>
     </g>
     <g id="line2d_21">
      <g>
       <use xlink:href="#m34e61af07f" x="106.754915" y="15.84" style="stroke: #000000"/>
      </g>
     </g>
    </g>
    <g id="xtick_9">
     <g id="line2d_22">
      <g>
       <use xlink:href="#m1c2c3212e7" x="127.045824" y="348.48" style="stroke: #000000"/>
      </g>
     </g>
     <g id="line2d_23">
      <g>
       <use xlink:href="#m34e61af07f" x="127.045824" y="15.84" style="stroke: #000000"/>
      </g>
     </g>
    </g>
    <g id="xtick_10">
     <g id="line2d_24">
      <g>
       <use xlink:href="#m1c2c3212e7" x="147.336733" y="348.48" style="stroke: #000000"/>
      </g>
     </g>
     <g id="line2d_25">
      <g>
       <use xlink:href="#m34e61af07f" x="147.336733" y="15.84" style="stroke: #000000"/>
      </g>
     </g>
    </g>
    <g id="xtick_11">
     <g id="line2d_26">
      <g>
       <use xlink:href="#m1c2c3212e7" x="187.918551" y="348.48" style="stroke: #000000"/>
      </g>
     </g>
     <g id="line2d_27">
      <g>
       <use xlink:href="#m34e61af07f" x="187.918551" y="15.84" style="stroke: #000000"/>
      </g>
     </g>
    </g>
    <g id="xtick_12">
     <g id="line2d_28">
      <g>
       <use xlink:href="#m1c2c3212e7" x="208.20946" y="348.48" style="stroke: #000000"/>
      </g>
     </g>
     <g id="line2d_29">
      <g>
       <use xlink:href="#m34e61af07f" x="208.20946" y="15.84" style="stroke: #000000"/>
      </g>
     </g>
    </g>
    <g id="xtick_13">
     <g id="line2d_30">
      <g>
       <use xlink:href="#m1c2c3212e7" x="228.500369" y="348.48" style="stroke: #000000"/>
      </g>
     </g>
     <g id="line2d_31">
      <g>
       <use xlink:href="#m34e61af07f" x="228.500369" y="15.84" style="stroke: #000000"/>
      </g>
     </g>
    </g>
    <g id="xtick_14">
     <g id="line2d_32">
      <g>
       <use xlink:href="#m1c2c3212e7" x="248.791278" y="348.48" style="stroke: #000000"/>
      </g>
     </g>
     <g id="line2d_33">
      <g>
       <use xlink:href="#m34e61af07f" x="248.791278" y="15.84" style="stroke: #000000"/>
      </g>
     </g>
    </g>
    <g id="xtick_15">
     <g id="line2d_34">
      <g>
       <use xlink:href="#m1c2c3212e7" x="289.373097" y="348.48" style="stroke: #000000"/>
      </g>
     </g>
     <g id="line2d_35">
      <g>
       <use xlink:href="#m34e61af07f" x="289.373097" y="15.84" style="stroke: #000000"/>
      </g>
     </g>
    </g>
    <g id="xtick_16">
     <g id="line2d_36">
      <g>
       <use xlink:href="#m1c2c3212e7" x="309.664006" y="348.48" style="stroke: #000000"/>
      </g>
     </g>
     <g id="line2d_37">
      <g>
       <use xlink:href="#m34e61af07f" x="309.664006" y="15.84" style="stroke: #000000"/>
      </g>
     </g>
    </g>
    <g id="xtick_17">
     <g id="line2d_38">
      <g>
       <use xlink:href="#m1c2c3212e7" x="329.954915" y="348.48" style="stroke: #000000"/>
      </g>
     </g>
     <g id="line2d_39">
      <g>
       <use xlink:href="#m34e61af07f" x="329.954915" y="15.84" style="stroke: #000000"/>
      </g>
     </g>
    </g>
    <g id="xtick_18">
     <g id="line2d_40">
      <g>
       <use xlink:href="#m1c2c3212e7" x="350.245824" y="348.48" style="stroke: #000000"/>
      </g>
     </g>
     <g id="line2d_41">
      <g>
       <use xlink:href="#m34e61af07f" x="350.245824" y="15.84" style="stroke: #000000"/>
      </g>
     </g>
    </g>
    <g id="xtick_19">
     <g id="line2d_42">
      <g>
       <use xlink:href="#m1c2c3212e7" x="390.827642" y="348.48" style="stroke: #000000"/>
      </g>
     </g>
     <g id="line2d_43">
      <g>
       <use xlink:href="#m34e61af07f" x="390.827642" y="15.84" style="stroke: #000000"/>
      </g>
     </g>
    </g>
    <g id="xtick_20">
     <g id="line2d_44">
      <g>
       <use xlink:href="#m1c2c3212e7" x="411.118551" y="348.48" style="stroke: #000000"/>
      </g>
     </g>
     <g id="line2d_45">
      <g>
       <use xlink:href="#m34e61af07f" x="411.118551" y="15.84" style="stroke: #000000"/>
      </g>
     </g>
    </g>
    <g id="xtick_21">
     <g id="line2d_46">
      <g>
       <use xlink:href="#m1c2c3212e7" x="431.40946" y="348.48" style="stroke: #000000"/>
      </g>
     </g>
     <g id="line2d_47">
      <g>
       <use xlink:href="#m34e61af07f" x="431.40946" y="15.84" style="stroke: #000000"/>
      </g>
     </g>
    </g>
    <g id="xtick_22">
     <g id="line2d_48">
      <g>
       <use xlink:href="#m1c2c3212e7" x="451.700369" y="348.48" style="stroke: #000000"/>
      </g>
     </g>
     <g id="line2d_49">
      <g>
       <use xlink:href="#m34e61af07f" x="451.700369" y="15.84" style="stroke: #000000"/>
      </g>
     </g>
    </g>
    <g id="xtick_23">
     <g id="line2d_50">
      <g>
       <use xlink:href="#m1c2c3212e7" x="492.282187" y="348.48" style="stroke: #000000"/>
      </g>
     </g>
     <g id="line2d_51">
      <g>
       <use xlink:href="#m34e61af07f" x="492.282187" y="15.84" style="stroke: #000000"/>
      </g>
     </g>
    </g>
    <g id="text_6">
     <!-- Phase -->
     <g transform="translate(243.564375 389.825625) scale(0.18 -0.18)">
      <defs>
       <path id="ArialMT-50" d="M 494 0 
L 494 4581 
L 2222 4581 
Q 2678 4581 2919 4538 
Q 3256 4481 3484 4323 
Q 3713 4166 3852 3881 
Q 3991 3597 3991 3256 
Q 3991 2672 3619 2267 
Q 3247 1863 2275 1863 
L 1100 1863 
L 1100 0 
L 494 0 
z
M 1100 2403 
L 2284 2403 
Q 2872 2403 3119 2622 
Q 3366 2841 3366 3238 
Q 3366 3525 3220 3729 
Q 3075 3934 2838 4000 
Q 2684 4041 2272 4041 
L 1100 4041 
L 1100 2403 
z
" transform="scale(0.015625)"/>
       <path id="ArialMT-68" d="M 422 0 
L 422 4581 
L 984 4581 
L 984 2938 
Q 1378 3394 1978 3394 
Q 2347 3394 2619 3248 
Q 2891 3103 3008 2847 
Q 3125 2591 3125 2103 
L 3125 0 
L 2563 0 
L 2563 2103 
Q 2563 2525 2380 2717 
Q 2197 2909 1863 2909 
Q 1613 2909 1392 2779 
Q 1172 2650 1078 2428 
Q 984 2206 984 1816 
L 984 0 
L 422 0 
z
" transform="scale(0.015625)"/>
       <path id="ArialMT-61" d="M 2588 409 
Q 2275 144 1986 34 
Q 1697 -75 1366 -75 
Q 819 -75 525 192 
Q 231 459 231 875 
Q 231 1119 342 1320 
Q 453 1522 633 1644 
Q 813 1766 1038 1828 
Q 1203 1872 1538 1913 
Q 2219 1994 2541 2106 
Q 2544 2222 2544 2253 
Q 2544 2597 2384 2738 
Q 2169 2928 1744 2928 
Q 1347 2928 1158 2789 
Q 969 2650 878 2297 
L 328 2372 
Q 403 2725 575 2942 
Q 747 3159 1072 3276 
Q 1397 3394 1825 3394 
Q 2250 3394 2515 3294 
Q 2781 3194 2906 3042 
Q 3031 2891 3081 2659 
Q 3109 2516 3109 2141 
L 3109 1391 
Q 3109 606 3145 398 
Q 3181 191 3288 0 
L 2700 0 
Q 2613 175 2588 409 
z
M 2541 1666 
Q 2234 1541 1622 1453 
Q 1275 1403 1131 1340 
Q 988 1278 909 1158 
Q 831 1038 831 891 
Q 831 666 1001 516 
Q 1172 366 1500 366 
Q 1825 366 2078 508 
Q 2331 650 2450 897 
Q 2541 1088 2541 1459 
L 2541 1666 
z
" transform="scale(0.015625)"/>
       <path id="ArialMT-73" d="M 197 991 
L 753 1078 
Q 800 744 1014 566 
Q 1228 388 1613 388 
Q 2000 388 2187 545 
Q 2375 703 2375 916 
Q 2375 1106 2209 1216 
Q 2094 1291 1634 1406 
Q 1016 1563 777 1677 
Q 538 1791 414 1992 
Q 291 2194 291 2438 
Q 291 2659 392 2848 
Q 494 3038 669 3163 
Q 800 3259 1026 3326 
Q 1253 3394 1513 3394 
Q 1903 3394 2198 3281 
Q 2494 3169 2634 2976 
Q 2775 2784 2828 2463 
L 2278 2388 
Q 2241 2644 2061 2787 
Q 1881 2931 1553 2931 
Q 1166 2931 1000 2803 
Q 834 2675 834 2503 
Q 834 2394 903 2306 
Q 972 2216 1119 2156 
Q 1203 2125 1616 2013 
Q 2213 1853 2448 1751 
Q 2684 1650 2818 1456 
Q 2953 1263 2953 975 
Q 2953 694 2789 445 
Q 2625 197 2315 61 
Q 2006 -75 1616 -75 
Q 969 -75 630 194 
Q 291 463 197 991 
z
" transform="scale(0.015625)"/>
       <path id="ArialMT-65" d="M 2694 1069 
L 3275 997 
Q 3138 488 2766 206 
Q 2394 -75 1816 -75 
Q 1088 -75 661 373 
Q 234 822 234 1631 
Q 234 2469 665 2931 
Q 1097 3394 1784 3394 
Q 2450 3394 2872 2941 
Q 3294 2488 3294 1666 
Q 3294 1616 3291 1516 
L 816 1516 
Q 847 969 1125 678 
Q 1403 388 1819 388 
Q 2128 388 2347 550 
Q 2566 713 2694 1069 
z
M 847 1978 
L 2700 1978 
Q 2663 2397 2488 2606 
Q 2219 2931 1791 2931 
Q 1403 2931 1139 2672 
Q 875 2413 847 1978 
z
" transform="scale(0.015625)"/>
      </defs>
      <use xlink:href="#ArialMT-50"/>
      <use xlink:href="#ArialMT-68" x="66.699219"/>
      <use xlink:href="#ArialMT-61" x="122.314453"/>
      <use xlink:href="#ArialMT-73" x="177.929688"/>
      <use xlink:href="#ArialMT-65" x="227.929688"/>
     </g>
    </g>
   </g>
   <g id="matplotlib.axis_2">
    <g id="ytick_1">
     <g id="line2d_52">
      <path d="M 45.882188 348.48 
L 492.282187 348.48 
" clip-path="url(#p5bdbafddb7)" style="fill: none; stroke-dasharray: 7.4,3.2; stroke-dashoffset: 0; stroke: #d3d3d3; stroke-opacity: 0.3; stroke-width: 2"/>
     </g>
     <g id="line2d_53">
      <defs>
       <path id="m4abfb58d9f" d="M 0 0 
L 10 0 
" style="stroke: #000000; stroke-width: 2"/>
      </defs>
      <g>
       <use xlink:href="#m4abfb58d9f" x="45.882188" y="348.48" style="stroke: #000000; stroke-width: 2"/>
      </g>
     </g>
     <g id="line2d_54">
      <defs>
       <path id="m2e7e7889fd" d="M 0 0 
L -10 0 
" style="stroke: #000000; stroke-width: 2"/>
      </defs>
      <g>
       <use xlink:href="#m2e7e7889fd" x="492.282187" y="348.48" style="stroke: #000000; stroke-width: 2"/>
      </g>
     </g>
     <g id="text_7">
      <!-- 0 -->
      <g transform="translate(27.8725 354.922031) scale(0.18 -0.18)">
       <use xlink:href="#ArialMT-30"/>
      </g>
     </g>
    </g>
    <g id="ytick_2">
     <g id="line2d_55">
      <path d="M 45.882188 197.7525 
L 492.282187 197.7525 
" clip-path="url(#p5bdbafddb7)" style="fill: none; stroke-dasharray: 7.4,3.2; stroke-dashoffset: 0; stroke: #d3d3d3; stroke-opacity: 0.3; stroke-width: 2"/>
     </g>
     <g id="line2d_56">
      <g>
       <use xlink:href="#m4abfb58d9f" x="45.882188" y="197.7525" style="stroke: #000000; stroke-width: 2"/>
      </g>
     </g>
     <g id="line2d_57">
      <g>
       <use xlink:href="#m2e7e7889fd" x="492.282187" y="197.7525" style="stroke: #000000; stroke-width: 2"/>
      </g>
     </g>
     <g id="text_8">
      <!-- 1 -->
      <g transform="translate(27.8725 204.194531) scale(0.18 -0.18)">
       <use xlink:href="#ArialMT-31"/>
      </g>
     </g>
    </g>
    <g id="ytick_3">
     <g id="line2d_58">
      <path d="M 45.882188 47.025 
L 492.282187 47.025 
" clip-path="url(#p5bdbafddb7)" style="fill: none; stroke-dasharray: 7.4,3.2; stroke-dashoffset: 0; stroke: #d3d3d3; stroke-opacity: 0.3; stroke-width: 2"/>
     </g>
     <g id="line2d_59">
      <g>
       <use xlink:href="#m4abfb58d9f" x="45.882188" y="47.025" style="stroke: #000000; stroke-width: 2"/>
      </g>
     </g>
     <g id="line2d_60">
      <g>
       <use xlink:href="#m2e7e7889fd" x="492.282187" y="47.025" style="stroke: #000000; stroke-width: 2"/>
      </g>
     </g>
     <g id="text_9">
      <!-- 2 -->
      <g transform="translate(27.8725 53.467031) scale(0.18 -0.18)">
       <use xlink:href="#ArialMT-32"/>
      </g>
     </g>
    </g>
    <g id="ytick_4">
     <g id="line2d_61">
      <defs>
       <path id="ma58290359e" d="M 0 0 
L 5 0 
" style="stroke: #000000"/>
      </defs>
      <g>
       <use xlink:href="#ma58290359e" x="45.882188" y="318.3345" style="stroke: #000000"/>
      </g>
     </g>
     <g id="line2d_62">
      <defs>
       <path id="m25344bef40" d="M 0 0 
L -5 0 
" style="stroke: #000000"/>
      </defs>
      <g>
       <use xlink:href="#m25344bef40" x="492.282187" y="318.3345" style="stroke: #000000"/>
      </g>
     </g>
    </g>
    <g id="ytick_5">
     <g id="line2d_63">
      <g>
       <use xlink:href="#ma58290359e" x="45.882188" y="288.189" style="stroke: #000000"/>
      </g>
     </g>
     <g id="line2d_64">
      <g>
       <use xlink:href="#m25344bef40" x="492.282187" y="288.189" style="stroke: #000000"/>
      </g>
     </g>
    </g>
    <g id="ytick_6">
     <g id="line2d_65">
      <g>
       <use xlink:href="#ma58290359e" x="45.882188" y="258.0435" style="stroke: #000000"/>
      </g>
     </g>
     <g id="line2d_66">
      <g>
       <use xlink:href="#m25344bef40" x="492.282187" y="258.0435" style="stroke: #000000"/>
      </g>
     </g>
    </g>
    <g id="ytick_7">
     <g id="line2d_67">
      <g>
       <use xlink:href="#ma58290359e" x="45.882188" y="227.898" style="stroke: #000000"/>
      </g>
     </g>
     <g id="line2d_68">
      <g>
       <use xlink:href="#m25344bef40" x="492.282187" y="227.898" style="stroke: #000000"/>
      </g>
     </g>
    </g>
    <g id="ytick_8">
     <g id="line2d_69">
      <g>
       <use xlink:href="#ma58290359e" x="45.882188" y="167.607" style="stroke: #000000"/>
      </g>
     </g>
     <g id="line2d_70">
      <g>
       <use xlink:href="#m25344bef40" x="492.282187" y="167.607" style="stroke: #000000"/>
      </g>
     </g>
    </g>
    <g id="ytick_9">
     <g id="line2d_71">
      <g>
       <use xlink:href="#ma58290359e" x="45.882188" y="137.4615" style="stroke: #000000"/>
      </g>
     </g>
     <g id="line2d_72">
      <g>
       <use xlink:href="#m25344bef40" x="492.282187" y="137.4615" style="stroke: #000000"/>
      </g>
     </g>
    </g>
    <g id="ytick_10">
     <g id="line2d_73">
      <g>
       <use xlink:href="#ma58290359e" x="45.882188" y="107.316" style="stroke: #000000"/>
      </g>
     </g>
     <g id="line2d_74">
      <g>
       <use xlink:href="#m25344bef40" x="492.282187" y="107.316" style="stroke: #000000"/>
      </g>
     </g>
    </g>
    <g id="ytick_11">
     <g id="line2d_75">
      <g>
       <use xlink:href="#ma58290359e" x="45.882188" y="77.1705" style="stroke: #000000"/>
      </g>
     </g>
     <g id="line2d_76">
      <g>
       <use xlink:href="#m25344bef40" x="492.282187" y="77.1705" style="stroke: #000000"/>
      </g>
     </g>
    </g>
    <g id="ytick_12">
     <g id="line2d_77">
      <g>
       <use xlink:href="#ma58290359e" x="45.882188" y="16.8795" style="stroke: #000000"/>
      </g>
     </g>
     <g id="line2d_78">
      <g>
       <use xlink:href="#m25344bef40" x="492.282187" y="16.8795" style="stroke: #000000"/>
      </g>
     </g>
    </g>
    <g id="text_10">
     <!-- Density -->
     <g transform="translate(20.084062 212.169375) rotate(-90) scale(0.18 -0.18)">
      <defs>
       <path id="ArialMT-44" d="M 494 0 
L 494 4581 
L 2072 4581 
Q 2606 4581 2888 4516 
Q 3281 4425 3559 4188 
Q 3922 3881 4101 3404 
Q 4281 2928 4281 2316 
Q 4281 1794 4159 1391 
Q 4038 988 3847 723 
Q 3656 459 3429 307 
Q 3203 156 2883 78 
Q 2563 0 2147 0 
L 494 0 
z
M 1100 541 
L 2078 541 
Q 2531 541 2789 625 
Q 3047 709 3200 863 
Q 3416 1078 3536 1442 
Q 3656 1806 3656 2325 
Q 3656 3044 3420 3430 
Q 3184 3816 2847 3947 
Q 2603 4041 2063 4041 
L 1100 4041 
L 1100 541 
z
" transform="scale(0.015625)"/>
       <path id="ArialMT-6e" d="M 422 0 
L 422 3319 
L 928 3319 
L 928 2847 
Q 1294 3394 1984 3394 
Q 2284 3394 2536 3286 
Q 2788 3178 2913 3003 
Q 3038 2828 3088 2588 
Q 3119 2431 3119 2041 
L 3119 0 
L 2556 0 
L 2556 2019 
Q 2556 2363 2490 2533 
Q 2425 2703 2258 2804 
Q 2091 2906 1866 2906 
Q 1506 2906 1245 2678 
Q 984 2450 984 1813 
L 984 0 
L 422 0 
z
" transform="scale(0.015625)"/>
       <path id="ArialMT-69" d="M 425 3934 
L 425 4581 
L 988 4581 
L 988 3934 
L 425 3934 
z
M 425 0 
L 425 3319 
L 988 3319 
L 988 0 
L 425 0 
z
" transform="scale(0.015625)"/>
       <path id="ArialMT-74" d="M 1650 503 
L 1731 6 
Q 1494 -44 1306 -44 
Q 1000 -44 831 53 
Q 663 150 594 308 
Q 525 466 525 972 
L 525 2881 
L 113 2881 
L 113 3319 
L 525 3319 
L 525 4141 
L 1084 4478 
L 1084 3319 
L 1650 3319 
L 1650 2881 
L 1084 2881 
L 1084 941 
Q 1084 700 1114 631 
Q 1144 563 1211 522 
Q 1278 481 1403 481 
Q 1497 481 1650 503 
z
" transform="scale(0.015625)"/>
       <path id="ArialMT-79" d="M 397 -1278 
L 334 -750 
Q 519 -800 656 -800 
Q 844 -800 956 -737 
Q 1069 -675 1141 -563 
Q 1194 -478 1313 -144 
Q 1328 -97 1363 -6 
L 103 3319 
L 709 3319 
L 1400 1397 
Q 1534 1031 1641 628 
Q 1738 1016 1872 1384 
L 2581 3319 
L 3144 3319 
L 1881 -56 
Q 1678 -603 1566 -809 
Q 1416 -1088 1222 -1217 
Q 1028 -1347 759 -1347 
Q 597 -1347 397 -1278 
z
" transform="scale(0.015625)"/>
      </defs>
      <use xlink:href="#ArialMT-44"/>
      <use xlink:href="#ArialMT-65" x="72.216797"/>
      <use xlink:href="#ArialMT-6e" x="127.832031"/>
      <use xlink:href="#ArialMT-73" x="183.447266"/>
      <use xlink:href="#ArialMT-69" x="233.447266"/>
      <use xlink:href="#ArialMT-74" x="255.664062"/>
      <use xlink:href="#ArialMT-79" x="283.447266"/>
     </g>
    </g>
   </g>
   <g id="line2d_79">
    <path d="M 66.173097 197.7525 
L 471.991278 197.7525 
" clip-path="url(#p5bdbafddb7)" style="fill: none; stroke-dasharray: 2,3.3; stroke-dashoffset: 0; stroke: #808080; stroke-width: 2"/>
   </g>
   <g id="line2d_80">
    <path d="M 66.173097 233.866958 
L 69.019517 231.73848 
L 71.865937 229.357593 
L 75.118988 226.334411 
L 78.37204 222.999199 
L 81.625091 219.366 
L 85.284774 214.945102 
L 89.351089 209.657568 
L 93.824035 203.451132 
L 99.110244 195.717016 
L 117.002027 169.155705 
L 120.66171 164.28717 
L 123.914762 160.304689 
L 126.761182 157.141636 
L 129.607602 154.323312 
L 132.047391 152.211664 
L 134.487179 150.404044 
L 136.520337 149.143901 
L 138.553494 148.117746 
L 140.586651 147.333356 
L 142.619808 146.796731 
L 144.652965 146.511997 
L 146.686123 146.481354 
L 148.71928 146.705038 
L 150.752437 147.181322 
L 152.785594 147.906536 
L 154.818752 148.875128 
L 156.851909 150.079737 
L 158.885066 151.511304 
L 161.324855 153.513701 
L 163.764643 155.806489 
L 166.611063 158.816846 
L 169.457484 162.149279 
L 172.710535 166.29579 
L 176.370218 171.309751 
L 181.249795 178.404745 
L 190.602319 192.539679 
L 197.108422 202.166228 
L 201.987999 208.996843 
L 206.054314 214.328577 
L 209.713997 218.794546 
L 213.37368 222.910258 
L 216.626731 226.253254 
L 219.879783 229.284531 
L 223.132834 231.993375 
L 225.979254 234.092871 
L 228.825674 235.935631 
L 231.672095 237.518926 
L 234.518515 238.840871 
L 237.364935 239.90022 
L 240.211355 240.696191 
L 243.057775 241.228321 
L 245.497564 241.474246 
L 247.937352 241.526072 
L 250.377141 241.383786 
L 252.81693 241.047427 
L 255.256718 240.517099 
L 258.103138 239.653492 
L 260.949559 238.526672 
L 263.795979 237.137525 
L 266.642399 235.487443 
L 269.082187 233.866958 
L 269.082187 233.866958 
" clip-path="url(#p5bdbafddb7)" style="fill: none; stroke-dasharray: 7.4,3.2; stroke-dashoffset: 0; stroke: #ff7f50; stroke-width: 2"/>
   </g>
   <g id="line2d_81">
    <path d="M 269.082187 233.866958 
L 271.928608 231.73848 
L 274.775028 229.357593 
L 278.028079 226.334411 
L 281.281131 222.999199 
L 284.534182 219.366 
L 288.193865 214.945102 
L 292.26018 209.657568 
L 296.733126 203.451132 
L 302.019335 195.717016 
L 319.911118 169.155705 
L 323.570801 164.28717 
L 326.823853 160.304689 
L 329.670273 157.141636 
L 332.516693 154.323312 
L 334.956482 152.211664 
L 337.39627 150.404044 
L 339.429427 149.143901 
L 341.462585 148.117746 
L 343.495742 147.333356 
L 345.528899 146.796731 
L 347.562056 146.511997 
L 349.595214 146.481354 
L 351.628371 146.705038 
L 353.661528 147.181322 
L 355.694685 147.906536 
L 357.727842 148.875128 
L 359.761 150.079737 
L 361.794157 151.511304 
L 364.233946 153.513701 
L 366.673734 155.806489 
L 369.520154 158.816846 
L 372.366574 162.149279 
L 375.619626 166.29579 
L 379.279309 171.309751 
L 384.158886 178.404745 
L 393.51141 192.539679 
L 400.017513 202.166228 
L 404.89709 208.996843 
L 408.963404 214.328577 
L 412.623087 218.794546 
L 416.28277 222.910258 
L 419.535822 226.253254 
L 422.788874 229.284531 
L 426.041925 231.993375 
L 428.888345 234.092871 
L 431.734765 235.935631 
L 434.581185 237.518926 
L 437.427606 238.840871 
L 440.274026 239.90022 
L 443.120446 240.696191 
L 445.966866 241.228321 
L 448.406655 241.474246 
L 450.846443 241.526072 
L 453.286232 241.383786 
L 455.726021 241.047427 
L 458.165809 240.517099 
L 461.012229 239.653492 
L 463.85865 238.526672 
L 466.70507 237.137525 
L 469.55149 235.487443 
L 471.991278 233.866958 
L 471.991278 233.866958 
" clip-path="url(#p5bdbafddb7)" style="fill: none; stroke-dasharray: 7.4,3.2; stroke-dashoffset: 0; stroke: #ff7f50; stroke-width: 2"/>
   </g>
   <g id="line2d_82">
    <path d="M 66.173097 233.770812 
L 68.206254 235.00516 
L 70.239411 235.975358 
L 71.865937 236.535017 
L 73.492463 236.882175 
L 75.118988 236.999893 
L 76.745514 236.872805 
L 78.37204 236.487204 
L 79.998566 235.831115 
L 81.625091 234.894375 
L 83.251617 233.668707 
L 84.878143 232.1478 
L 86.504669 230.327402 
L 88.131195 228.205407 
L 90.164352 225.129245 
L 92.197509 221.587753 
L 94.230666 217.592545 
L 96.670455 212.225304 
L 99.110244 206.275239 
L 101.956664 198.676244 
L 105.209715 189.273781 
L 109.27603 176.776961 
L 118.221922 149.021538 
L 121.068342 140.970199 
L 123.50813 134.677563 
L 125.541288 129.970243 
L 127.574445 125.831198 
L 129.200971 122.974968 
L 130.827496 120.556534 
L 132.454022 118.602121 
L 133.673916 117.453912 
L 134.893811 116.586024 
L 136.113705 116.003887 
L 137.333599 115.711153 
L 138.553494 115.709667 
L 139.773388 115.999436 
L 140.993282 116.578637 
L 142.213177 117.443635 
L 143.433071 118.589019 
L 144.652965 120.007659 
L 146.279491 122.308862 
L 147.906017 125.055051 
L 149.532543 128.216749 
L 151.5657 132.701973 
L 153.598857 137.71159 
L 156.038646 144.30423 
L 159.291697 153.843297 
L 163.764643 167.761481 
L 170.677378 189.236607 
L 173.930429 198.641631 
L 176.77685 206.243498 
L 179.216638 212.196397 
L 181.656427 217.566735 
L 183.689584 221.56467 
L 185.722741 225.108981 
L 187.755899 228.188013 
L 189.789056 230.796223 
L 191.415582 232.543763 
L 193.042107 233.992648 
L 194.668633 235.147639 
L 196.295159 236.01553 
L 197.921685 236.605062 
L 199.54821 236.926846 
L 201.174736 236.993282 
L 202.801262 236.818487 
L 204.427788 236.418216 
L 206.054314 235.809777 
L 208.087471 234.785219 
L 210.120628 233.504431 
L 212.560417 231.689311 
L 215.406837 229.287218 
L 220.286414 224.818971 
L 224.75936 220.822827 
L 227.60578 218.56224 
L 230.045569 216.902427 
L 232.078726 215.761488 
L 234.111883 214.871556 
L 236.14504 214.254945 
L 237.771566 213.969088 
L 239.398092 213.872799 
L 241.024618 213.967628 
L 242.651144 214.252049 
L 244.684301 214.866932 
L 246.717458 215.755253 
L 248.750615 216.894737 
L 251.190404 218.553061 
L 254.036824 220.812332 
L 257.696507 224.057854 
L 265.422504 231.019001 
L 268.268925 233.212425 
L 269.082187 233.770812 
L 269.082187 233.770812 
" clip-path="url(#p5bdbafddb7)" style="fill: none; stroke-dasharray: 12.8,3.2,2,3.2; stroke-dashoffset: 0; stroke: #008000; stroke-width: 2"/>
   </g>
   <g id="line2d_83">
    <path d="M 269.082187 233.770812 
L 271.115345 235.00516 
L 273.148502 235.975358 
L 274.775028 236.535017 
L 276.401554 236.882175 
L 278.028079 236.999893 
L 279.654605 236.872805 
L 281.281131 236.487204 
L 282.907657 235.831115 
L 284.534182 234.894375 
L 286.160708 233.668707 
L 287.787234 232.1478 
L 289.41376 230.327402 
L 291.040286 228.205407 
L 293.073443 225.129245 
L 295.1066 221.587753 
L 297.139757 217.592545 
L 299.579546 212.225304 
L 302.019335 206.275239 
L 304.865755 198.676244 
L 308.118806 189.273781 
L 312.185121 176.776961 
L 321.131012 149.021538 
L 323.977433 140.970199 
L 326.417221 134.677563 
L 328.450378 129.970243 
L 330.483536 125.831198 
L 332.110061 122.974968 
L 333.736587 120.556534 
L 335.363113 118.602121 
L 336.583007 117.453912 
L 337.802902 116.586024 
L 339.022796 116.003887 
L 340.24269 115.711153 
L 341.462585 115.709667 
L 342.682479 115.999436 
L 343.902373 116.578637 
L 345.122268 117.443635 
L 346.342162 118.589019 
L 347.562056 120.007659 
L 349.188582 122.308862 
L 350.815108 125.055051 
L 352.441634 128.216749 
L 354.474791 132.701973 
L 356.507948 137.71159 
L 358.947737 144.30423 
L 362.200788 153.843297 
L 366.673734 167.761481 
L 373.586469 189.236607 
L 376.83952 198.641631 
L 379.68594 206.243498 
L 382.125729 212.196397 
L 384.565518 217.566735 
L 386.598675 221.56467 
L 388.631832 225.108981 
L 390.664989 228.188013 
L 392.698147 230.796223 
L 394.324672 232.543763 
L 395.951198 233.992648 
L 397.577724 235.147639 
L 399.20425 236.01553 
L 400.830776 236.605062 
L 402.457301 236.926846 
L 404.083827 236.993282 
L 405.710353 236.818487 
L 407.336879 236.418216 
L 408.963404 235.809777 
L 410.996562 234.785219 
L 413.029719 233.504431 
L 415.469508 231.689311 
L 418.315928 229.287218 
L 423.195505 224.818971 
L 427.668451 220.822827 
L 430.514871 218.56224 
L 432.95466 216.902427 
L 434.987817 215.761488 
L 437.020974 214.871556 
L 439.054131 214.254945 
L 440.680657 213.969088 
L 442.307183 213.872799 
L 443.933709 213.967628 
L 445.560235 214.252049 
L 447.593392 214.866932 
L 449.626549 215.755253 
L 451.659706 216.894737 
L 454.099495 218.553061 
L 456.945915 220.812332 
L 460.605598 224.057854 
L 468.331595 231.019001 
L 471.178016 233.212425 
L 471.991278 233.770812 
L 471.991278 233.770812 
" clip-path="url(#p5bdbafddb7)" style="fill: none; stroke-dasharray: 12.8,3.2,2,3.2; stroke-dashoffset: 0; stroke: #008000; stroke-width: 2"/>
   </g>
   <g id="patch_43">
    <path d="M 45.882188 348.48 
L 45.882188 15.84 
" style="fill: none; stroke: #000000; stroke-width: 2; stroke-linejoin: miter; stroke-linecap: square"/>
   </g>
   <g id="patch_44">
    <path d="M 492.282187 348.48 
L 492.282187 15.84 
" style="fill: none; stroke: #000000; stroke-width: 2; stroke-linejoin: miter; stroke-linecap: square"/>
   </g>
   <g id="patch_45">
    <path d="M 45.882188 348.48 
L 492.282187 348.48 
" style="fill: none; stroke: #000000; stroke-width: 2; stroke-linejoin: miter; stroke-linecap: square"/>
   </g>
   <g id="patch_46">
    <path d="M 45.882188 15.84 
L 492.282187 15.84 
" style="fill: none; stroke: #000000; stroke-width: 2; stroke-linejoin: miter; stroke-linecap: square"/>
   </g>
   <g id="text_11">
    <!-- FAST #2 -->
    <g transform="translate(59.274187 39.217039) scale(0.15 -0.15)">
     <defs>
      <path id="ArialMT-46" d="M 525 0 
L 525 4581 
L 3616 4581 
L 3616 4041 
L 1131 4041 
L 1131 2622 
L 3281 2622 
L 3281 2081 
L 1131 2081 
L 1131 0 
L 525 0 
z
" transform="scale(0.015625)"/>
      <path id="ArialMT-41" d="M -9 0 
L 1750 4581 
L 2403 4581 
L 4278 0 
L 3588 0 
L 3053 1388 
L 1138 1388 
L 634 0 
L -9 0 
z
M 1313 1881 
L 2866 1881 
L 2388 3150 
Q 2169 3728 2063 4100 
Q 1975 3659 1816 3225 
L 1313 1881 
z
" transform="scale(0.015625)"/>
      <path id="ArialMT-53" d="M 288 1472 
L 859 1522 
Q 900 1178 1048 958 
Q 1197 738 1509 602 
Q 1822 466 2213 466 
Q 2559 466 2825 569 
Q 3091 672 3220 851 
Q 3350 1031 3350 1244 
Q 3350 1459 3225 1620 
Q 3100 1781 2813 1891 
Q 2628 1963 1997 2114 
Q 1366 2266 1113 2400 
Q 784 2572 623 2826 
Q 463 3081 463 3397 
Q 463 3744 659 4045 
Q 856 4347 1234 4503 
Q 1613 4659 2075 4659 
Q 2584 4659 2973 4495 
Q 3363 4331 3572 4012 
Q 3781 3694 3797 3291 
L 3216 3247 
Q 3169 3681 2898 3903 
Q 2628 4125 2100 4125 
Q 1550 4125 1298 3923 
Q 1047 3722 1047 3438 
Q 1047 3191 1225 3031 
Q 1400 2872 2139 2705 
Q 2878 2538 3153 2413 
Q 3553 2228 3743 1945 
Q 3934 1663 3934 1294 
Q 3934 928 3725 604 
Q 3516 281 3123 101 
Q 2731 -78 2241 -78 
Q 1619 -78 1198 103 
Q 778 284 539 648 
Q 300 1013 288 1472 
z
" transform="scale(0.015625)"/>
      <path id="ArialMT-54" d="M 1659 0 
L 1659 4041 
L 150 4041 
L 150 4581 
L 3781 4581 
L 3781 4041 
L 2266 4041 
L 2266 0 
L 1659 0 
z
" transform="scale(0.015625)"/>
      <path id="ArialMT-20" transform="scale(0.015625)"/>
      <path id="ArialMT-23" d="M 322 -78 
L 594 1253 
L 66 1253 
L 66 1719 
L 688 1719 
L 919 2853 
L 66 2853 
L 66 3319 
L 1013 3319 
L 1284 4659 
L 1753 4659 
L 1481 3319 
L 2466 3319 
L 2738 4659 
L 3209 4659 
L 2938 3319 
L 3478 3319 
L 3478 2853 
L 2844 2853 
L 2609 1719 
L 3478 1719 
L 3478 1253 
L 2516 1253 
L 2244 -78 
L 1775 -78 
L 2044 1253 
L 1063 1253 
L 791 -78 
L 322 -78 
z
M 1156 1719 
L 2138 1719 
L 2372 2853 
L 1388 2853 
L 1156 1719 
z
" transform="scale(0.015625)"/>
     </defs>
     <use xlink:href="#ArialMT-46"/>
     <use xlink:href="#ArialMT-41" x="55.583984"/>
     <use xlink:href="#ArialMT-53" x="122.283203"/>
     <use xlink:href="#ArialMT-54" x="188.982422"/>
     <use xlink:href="#ArialMT-20" x="248.316406"/>
     <use xlink:href="#ArialMT-23" x="276.099609"/>
     <use xlink:href="#ArialMT-32" x="331.714844"/>
    </g>
   </g>
   <g id="text_12">
    <!-- MJD 59484 -->
    <g transform="translate(59.274187 60.838639) scale(0.15 -0.15)">
     <defs>
      <path id="ArialMT-4d" d="M 475 0 
L 475 4581 
L 1388 4581 
L 2472 1338 
Q 2622 884 2691 659 
Q 2769 909 2934 1394 
L 4031 4581 
L 4847 4581 
L 4847 0 
L 4263 0 
L 4263 3834 
L 2931 0 
L 2384 0 
L 1059 3900 
L 1059 0 
L 475 0 
z
" transform="scale(0.015625)"/>
      <path id="ArialMT-4a" d="M 184 1300 
L 731 1375 
Q 753 850 928 656 
Q 1103 463 1413 463 
Q 1641 463 1806 567 
Q 1972 672 2034 851 
Q 2097 1031 2097 1425 
L 2097 4581 
L 2703 4581 
L 2703 1459 
Q 2703 884 2564 568 
Q 2425 253 2123 87 
Q 1822 -78 1416 -78 
Q 813 -78 492 269 
Q 172 616 184 1300 
z
" transform="scale(0.015625)"/>
      <path id="ArialMT-39" d="M 350 1059 
L 891 1109 
Q 959 728 1153 556 
Q 1347 384 1650 384 
Q 1909 384 2104 503 
Q 2300 622 2425 820 
Q 2550 1019 2634 1356 
Q 2719 1694 2719 2044 
Q 2719 2081 2716 2156 
Q 2547 1888 2255 1720 
Q 1963 1553 1622 1553 
Q 1053 1553 659 1965 
Q 266 2378 266 3053 
Q 266 3750 677 4175 
Q 1088 4600 1706 4600 
Q 2153 4600 2523 4359 
Q 2894 4119 3086 3673 
Q 3278 3228 3278 2384 
Q 3278 1506 3087 986 
Q 2897 466 2520 194 
Q 2144 -78 1638 -78 
Q 1100 -78 759 220 
Q 419 519 350 1059 
z
M 2653 3081 
Q 2653 3566 2395 3850 
Q 2138 4134 1775 4134 
Q 1400 4134 1122 3828 
Q 844 3522 844 3034 
Q 844 2597 1108 2323 
Q 1372 2050 1759 2050 
Q 2150 2050 2401 2323 
Q 2653 2597 2653 3081 
z
" transform="scale(0.015625)"/>
      <path id="ArialMT-34" d="M 2069 0 
L 2069 1097 
L 81 1097 
L 81 1613 
L 2172 4581 
L 2631 4581 
L 2631 1613 
L 3250 1613 
L 3250 1097 
L 2631 1097 
L 2631 0 
L 2069 0 
z
M 2069 1613 
L 2069 3678 
L 634 1613 
L 2069 1613 
z
" transform="scale(0.015625)"/>
      <path id="ArialMT-38" d="M 1131 2484 
Q 781 2613 612 2850 
Q 444 3088 444 3419 
Q 444 3919 803 4259 
Q 1163 4600 1759 4600 
Q 2359 4600 2725 4251 
Q 3091 3903 3091 3403 
Q 3091 3084 2923 2848 
Q 2756 2613 2416 2484 
Q 2838 2347 3058 2040 
Q 3278 1734 3278 1309 
Q 3278 722 2862 322 
Q 2447 -78 1769 -78 
Q 1091 -78 675 323 
Q 259 725 259 1325 
Q 259 1772 486 2073 
Q 713 2375 1131 2484 
z
M 1019 3438 
Q 1019 3113 1228 2906 
Q 1438 2700 1772 2700 
Q 2097 2700 2305 2904 
Q 2513 3109 2513 3406 
Q 2513 3716 2298 3927 
Q 2084 4138 1766 4138 
Q 1444 4138 1231 3931 
Q 1019 3725 1019 3438 
z
M 838 1322 
Q 838 1081 952 856 
Q 1066 631 1291 507 
Q 1516 384 1775 384 
Q 2178 384 2440 643 
Q 2703 903 2703 1303 
Q 2703 1709 2433 1975 
Q 2163 2241 1756 2241 
Q 1359 2241 1098 1978 
Q 838 1716 838 1322 
z
" transform="scale(0.015625)"/>
     </defs>
     <use xlink:href="#ArialMT-4d"/>
     <use xlink:href="#ArialMT-4a" x="83.300781"/>
     <use xlink:href="#ArialMT-44" x="133.300781"/>
     <use xlink:href="#ArialMT-20" x="205.517578"/>
     <use xlink:href="#ArialMT-35" x="233.300781"/>
     <use xlink:href="#ArialMT-39" x="288.916016"/>
     <use xlink:href="#ArialMT-34" x="344.53125"/>
     <use xlink:href="#ArialMT-38" x="400.146484"/>
     <use xlink:href="#ArialMT-34" x="455.761719"/>
    </g>
   </g>
   <g id="text_13">
    <!-- 232 bursts -->
    <g transform="translate(59.274187 82.460239) scale(0.15 -0.15)">
     <defs>
      <path id="ArialMT-33" d="M 269 1209 
L 831 1284 
Q 928 806 1161 595 
Q 1394 384 1728 384 
Q 2125 384 2398 659 
Q 2672 934 2672 1341 
Q 2672 1728 2419 1979 
Q 2166 2231 1775 2231 
Q 1616 2231 1378 2169 
L 1441 2663 
Q 1497 2656 1531 2656 
Q 1891 2656 2178 2843 
Q 2466 3031 2466 3422 
Q 2466 3731 2256 3934 
Q 2047 4138 1716 4138 
Q 1388 4138 1169 3931 
Q 950 3725 888 3313 
L 325 3413 
Q 428 3978 793 4289 
Q 1159 4600 1703 4600 
Q 2078 4600 2393 4439 
Q 2709 4278 2876 4000 
Q 3044 3722 3044 3409 
Q 3044 3113 2884 2869 
Q 2725 2625 2413 2481 
Q 2819 2388 3044 2092 
Q 3269 1797 3269 1353 
Q 3269 753 2831 336 
Q 2394 -81 1725 -81 
Q 1122 -81 723 278 
Q 325 638 269 1209 
z
" transform="scale(0.015625)"/>
      <path id="ArialMT-62" d="M 941 0 
L 419 0 
L 419 4581 
L 981 4581 
L 981 2947 
Q 1338 3394 1891 3394 
Q 2197 3394 2470 3270 
Q 2744 3147 2920 2923 
Q 3097 2700 3197 2384 
Q 3297 2069 3297 1709 
Q 3297 856 2875 390 
Q 2453 -75 1863 -75 
Q 1275 -75 941 416 
L 941 0 
z
M 934 1684 
Q 934 1088 1097 822 
Q 1363 388 1816 388 
Q 2184 388 2453 708 
Q 2722 1028 2722 1663 
Q 2722 2313 2464 2622 
Q 2206 2931 1841 2931 
Q 1472 2931 1203 2611 
Q 934 2291 934 1684 
z
" transform="scale(0.015625)"/>
      <path id="ArialMT-75" d="M 2597 0 
L 2597 488 
Q 2209 -75 1544 -75 
Q 1250 -75 995 37 
Q 741 150 617 320 
Q 494 491 444 738 
Q 409 903 409 1263 
L 409 3319 
L 972 3319 
L 972 1478 
Q 972 1038 1006 884 
Q 1059 663 1231 536 
Q 1403 409 1656 409 
Q 1909 409 2131 539 
Q 2353 669 2445 892 
Q 2538 1116 2538 1541 
L 2538 3319 
L 3100 3319 
L 3100 0 
L 2597 0 
z
" transform="scale(0.015625)"/>
      <path id="ArialMT-72" d="M 416 0 
L 416 3319 
L 922 3319 
L 922 2816 
Q 1116 3169 1280 3281 
Q 1444 3394 1641 3394 
Q 1925 3394 2219 3213 
L 2025 2691 
Q 1819 2813 1613 2813 
Q 1428 2813 1281 2702 
Q 1134 2591 1072 2394 
Q 978 2094 978 1738 
L 978 0 
L 416 0 
z
" transform="scale(0.015625)"/>
     </defs>
     <use xlink:href="#ArialMT-32"/>
     <use xlink:href="#ArialMT-33" x="55.615234"/>
     <use xlink:href="#ArialMT-32" x="111.230469"/>
     <use xlink:href="#ArialMT-20" x="166.845703"/>
     <use xlink:href="#ArialMT-62" x="194.628906"/>
     <use xlink:href="#ArialMT-75" x="250.244141"/>
     <use xlink:href="#ArialMT-72" x="305.859375"/>
     <use xlink:href="#ArialMT-73" x="339.160156"/>
     <use xlink:href="#ArialMT-74" x="389.160156"/>
     <use xlink:href="#ArialMT-73" x="416.943359"/>
    </g>
   </g>
   <g id="legend_1">
    <g id="line2d_84">
     <path d="M 196.657969 35.009531 
L 211.657969 35.009531 
L 226.657969 35.009531 
" style="fill: none; stroke-dasharray: 2,3.3; stroke-dashoffset: 0; stroke: #808080; stroke-width: 2"/>
    </g>
    <g id="text_14">
     <!-- Uniform  (AIC=852.8, BIC=852.8) -->
     <g transform="translate(238.657969 40.259531) scale(0.15 -0.15)">
      <defs>
       <path id="ArialMT-55" d="M 3500 4581 
L 4106 4581 
L 4106 1934 
Q 4106 1244 3950 837 
Q 3794 431 3386 176 
Q 2978 -78 2316 -78 
Q 1672 -78 1262 144 
Q 853 366 678 786 
Q 503 1206 503 1934 
L 503 4581 
L 1109 4581 
L 1109 1938 
Q 1109 1341 1220 1058 
Q 1331 775 1601 622 
Q 1872 469 2263 469 
Q 2931 469 3215 772 
Q 3500 1075 3500 1938 
L 3500 4581 
z
" transform="scale(0.015625)"/>
       <path id="ArialMT-66" d="M 556 0 
L 556 2881 
L 59 2881 
L 59 3319 
L 556 3319 
L 556 3672 
Q 556 4006 616 4169 
Q 697 4388 901 4523 
Q 1106 4659 1475 4659 
Q 1713 4659 2000 4603 
L 1916 4113 
Q 1741 4144 1584 4144 
Q 1328 4144 1222 4034 
Q 1116 3925 1116 3625 
L 1116 3319 
L 1763 3319 
L 1763 2881 
L 1116 2881 
L 1116 0 
L 556 0 
z
" transform="scale(0.015625)"/>
       <path id="ArialMT-6f" d="M 213 1659 
Q 213 2581 725 3025 
Q 1153 3394 1769 3394 
Q 2453 3394 2887 2945 
Q 3322 2497 3322 1706 
Q 3322 1066 3130 698 
Q 2938 331 2570 128 
Q 2203 -75 1769 -75 
Q 1072 -75 642 372 
Q 213 819 213 1659 
z
M 791 1659 
Q 791 1022 1069 705 
Q 1347 388 1769 388 
Q 2188 388 2466 706 
Q 2744 1025 2744 1678 
Q 2744 2294 2464 2611 
Q 2184 2928 1769 2928 
Q 1347 2928 1069 2612 
Q 791 2297 791 1659 
z
" transform="scale(0.015625)"/>
       <path id="ArialMT-6d" d="M 422 0 
L 422 3319 
L 925 3319 
L 925 2853 
Q 1081 3097 1340 3245 
Q 1600 3394 1931 3394 
Q 2300 3394 2536 3241 
Q 2772 3088 2869 2813 
Q 3263 3394 3894 3394 
Q 4388 3394 4653 3120 
Q 4919 2847 4919 2278 
L 4919 0 
L 4359 0 
L 4359 2091 
Q 4359 2428 4304 2576 
Q 4250 2725 4106 2815 
Q 3963 2906 3769 2906 
Q 3419 2906 3187 2673 
Q 2956 2441 2956 1928 
L 2956 0 
L 2394 0 
L 2394 2156 
Q 2394 2531 2256 2718 
Q 2119 2906 1806 2906 
Q 1569 2906 1367 2781 
Q 1166 2656 1075 2415 
Q 984 2175 984 1722 
L 984 0 
L 422 0 
z
" transform="scale(0.015625)"/>
       <path id="ArialMT-28" d="M 1497 -1347 
Q 1031 -759 709 28 
Q 388 816 388 1659 
Q 388 2403 628 3084 
Q 909 3875 1497 4659 
L 1900 4659 
Q 1522 4009 1400 3731 
Q 1209 3300 1100 2831 
Q 966 2247 966 1656 
Q 966 153 1900 -1347 
L 1497 -1347 
z
" transform="scale(0.015625)"/>
       <path id="ArialMT-49" d="M 597 0 
L 597 4581 
L 1203 4581 
L 1203 0 
L 597 0 
z
" transform="scale(0.015625)"/>
       <path id="ArialMT-43" d="M 3763 1606 
L 4369 1453 
Q 4178 706 3683 314 
Q 3188 -78 2472 -78 
Q 1731 -78 1267 223 
Q 803 525 561 1097 
Q 319 1669 319 2325 
Q 319 3041 592 3573 
Q 866 4106 1370 4382 
Q 1875 4659 2481 4659 
Q 3169 4659 3637 4309 
Q 4106 3959 4291 3325 
L 3694 3184 
Q 3534 3684 3231 3912 
Q 2928 4141 2469 4141 
Q 1941 4141 1586 3887 
Q 1231 3634 1087 3207 
Q 944 2781 944 2328 
Q 944 1744 1114 1308 
Q 1284 872 1643 656 
Q 2003 441 2422 441 
Q 2931 441 3284 734 
Q 3638 1028 3763 1606 
z
" transform="scale(0.015625)"/>
       <path id="ArialMT-3d" d="M 3381 2694 
L 356 2694 
L 356 3219 
L 3381 3219 
L 3381 2694 
z
M 3381 1303 
L 356 1303 
L 356 1828 
L 3381 1828 
L 3381 1303 
z
" transform="scale(0.015625)"/>
       <path id="ArialMT-2c" d="M 569 0 
L 569 641 
L 1209 641 
L 1209 0 
Q 1209 -353 1084 -570 
Q 959 -788 688 -906 
L 531 -666 
Q 709 -588 793 -436 
Q 878 -284 888 0 
L 569 0 
z
" transform="scale(0.015625)"/>
       <path id="ArialMT-42" d="M 469 0 
L 469 4581 
L 2188 4581 
Q 2713 4581 3030 4442 
Q 3347 4303 3526 4014 
Q 3706 3725 3706 3409 
Q 3706 3116 3547 2856 
Q 3388 2597 3066 2438 
Q 3481 2316 3704 2022 
Q 3928 1728 3928 1328 
Q 3928 1006 3792 729 
Q 3656 453 3456 303 
Q 3256 153 2954 76 
Q 2653 0 2216 0 
L 469 0 
z
M 1075 2656 
L 2066 2656 
Q 2469 2656 2644 2709 
Q 2875 2778 2992 2937 
Q 3109 3097 3109 3338 
Q 3109 3566 3000 3739 
Q 2891 3913 2687 3977 
Q 2484 4041 1991 4041 
L 1075 4041 
L 1075 2656 
z
M 1075 541 
L 2216 541 
Q 2509 541 2628 563 
Q 2838 600 2978 687 
Q 3119 775 3209 942 
Q 3300 1109 3300 1328 
Q 3300 1584 3169 1773 
Q 3038 1963 2805 2039 
Q 2572 2116 2134 2116 
L 1075 2116 
L 1075 541 
z
" transform="scale(0.015625)"/>
       <path id="ArialMT-29" d="M 791 -1347 
L 388 -1347 
Q 1322 153 1322 1656 
Q 1322 2244 1188 2822 
Q 1081 3291 891 3722 
Q 769 4003 388 4659 
L 791 4659 
Q 1378 3875 1659 3084 
Q 1900 2403 1900 1659 
Q 1900 816 1576 28 
Q 1253 -759 791 -1347 
z
" transform="scale(0.015625)"/>
      </defs>
      <use xlink:href="#ArialMT-55"/>
      <use xlink:href="#ArialMT-6e" x="72.216797"/>
      <use xlink:href="#ArialMT-69" x="127.832031"/>
      <use xlink:href="#ArialMT-66" x="150.048828"/>
      <use xlink:href="#ArialMT-6f" x="177.832031"/>
      <use xlink:href="#ArialMT-72" x="233.447266"/>
      <use xlink:href="#ArialMT-6d" x="266.748047"/>
      <use xlink:href="#ArialMT-20" x="350.048828"/>
      <use xlink:href="#ArialMT-20" x="377.832031"/>
      <use xlink:href="#ArialMT-28" x="405.615234"/>
      <use xlink:href="#ArialMT-41" x="438.916016"/>
      <use xlink:href="#ArialMT-49" x="505.615234"/>
      <use xlink:href="#ArialMT-43" x="533.398438"/>
      <use xlink:href="#ArialMT-3d" x="605.615234"/>
      <use xlink:href="#ArialMT-38" x="664.013672"/>
      <use xlink:href="#ArialMT-35" x="719.628906"/>
      <use xlink:href="#ArialMT-32" x="775.244141"/>
      <use xlink:href="#ArialMT-2e" x="830.859375"/>
      <use xlink:href="#ArialMT-38" x="858.642578"/>
      <use xlink:href="#ArialMT-2c" x="914.257812"/>
      <use xlink:href="#ArialMT-20" x="942.041016"/>
      <use xlink:href="#ArialMT-42" x="969.824219"/>
      <use xlink:href="#ArialMT-49" x="1036.523438"/>
      <use xlink:href="#ArialMT-43" x="1064.306641"/>
      <use xlink:href="#ArialMT-3d" x="1136.523438"/>
      <use xlink:href="#ArialMT-38" x="1194.921875"/>
      <use xlink:href="#ArialMT-35" x="1250.537109"/>
      <use xlink:href="#ArialMT-32" x="1306.152344"/>
      <use xlink:href="#ArialMT-2e" x="1361.767578"/>
      <use xlink:href="#ArialMT-38" x="1389.550781"/>
      <use xlink:href="#ArialMT-29" x="1445.166016"/>
     </g>
    </g>
    <g id="line2d_85">
     <path d="M 196.657969 56.586094 
L 211.657969 56.586094 
L 226.657969 56.586094 
" style="fill: none; stroke-dasharray: 7.4,3.2; stroke-dashoffset: 0; stroke: #ff7f50; stroke-width: 2"/>
    </g>
    <g id="text_15">
     <!-- Unimodal (*AIC=845.3, *BIC=852.1) -->
     <g transform="translate(238.657969 61.836094) scale(0.15 -0.15)">
      <defs>
       <path id="ArialMT-64" d="M 2575 0 
L 2575 419 
Q 2259 -75 1647 -75 
Q 1250 -75 917 144 
Q 584 363 401 755 
Q 219 1147 219 1656 
Q 219 2153 384 2558 
Q 550 2963 881 3178 
Q 1213 3394 1622 3394 
Q 1922 3394 2156 3267 
Q 2391 3141 2538 2938 
L 2538 4581 
L 3097 4581 
L 3097 0 
L 2575 0 
z
M 797 1656 
Q 797 1019 1065 703 
Q 1334 388 1700 388 
Q 2069 388 2326 689 
Q 2584 991 2584 1609 
Q 2584 2291 2321 2609 
Q 2059 2928 1675 2928 
Q 1300 2928 1048 2622 
Q 797 2316 797 1656 
z
" transform="scale(0.015625)"/>
       <path id="ArialMT-6c" d="M 409 0 
L 409 4581 
L 972 4581 
L 972 0 
L 409 0 
z
" transform="scale(0.015625)"/>
       <path id="ArialMT-2a" d="M 200 3741 
L 344 4184 
Q 841 4009 1066 3881 
Q 1006 4447 1003 4659 
L 1456 4659 
Q 1447 4350 1384 3884 
Q 1706 4047 2122 4184 
L 2266 3741 
Q 1869 3609 1488 3566 
Q 1678 3400 2025 2975 
L 1650 2709 
Q 1469 2956 1222 3381 
Q 991 2941 816 2709 
L 447 2975 
Q 809 3422 966 3566 
Q 563 3644 200 3741 
z
" transform="scale(0.015625)"/>
      </defs>
      <use xlink:href="#ArialMT-55"/>
      <use xlink:href="#ArialMT-6e" x="72.216797"/>
      <use xlink:href="#ArialMT-69" x="127.832031"/>
      <use xlink:href="#ArialMT-6d" x="150.048828"/>
      <use xlink:href="#ArialMT-6f" x="233.349609"/>
      <use xlink:href="#ArialMT-64" x="288.964844"/>
      <use xlink:href="#ArialMT-61" x="344.580078"/>
      <use xlink:href="#ArialMT-6c" x="400.195312"/>
      <use xlink:href="#ArialMT-20" x="422.412109"/>
      <use xlink:href="#ArialMT-28" x="450.195312"/>
      <use xlink:href="#ArialMT-2a" x="483.496094"/>
      <use xlink:href="#ArialMT-41" x="522.412109"/>
      <use xlink:href="#ArialMT-49" x="589.111328"/>
      <use xlink:href="#ArialMT-43" x="616.894531"/>
      <use xlink:href="#ArialMT-3d" x="689.111328"/>
      <use xlink:href="#ArialMT-38" x="747.509766"/>
      <use xlink:href="#ArialMT-34" x="803.125"/>
      <use xlink:href="#ArialMT-35" x="858.740234"/>
      <use xlink:href="#ArialMT-2e" x="914.355469"/>
      <use xlink:href="#ArialMT-33" x="942.138672"/>
      <use xlink:href="#ArialMT-2c" x="997.753906"/>
      <use xlink:href="#ArialMT-20" x="1025.537109"/>
      <use xlink:href="#ArialMT-2a" x="1053.320312"/>
      <use xlink:href="#ArialMT-42" x="1092.236328"/>
      <use xlink:href="#ArialMT-49" x="1158.935547"/>
      <use xlink:href="#ArialMT-43" x="1186.71875"/>
      <use xlink:href="#ArialMT-3d" x="1258.935547"/>
      <use xlink:href="#ArialMT-38" x="1317.333984"/>
      <use xlink:href="#ArialMT-35" x="1372.949219"/>
      <use xlink:href="#ArialMT-32" x="1428.564453"/>
      <use xlink:href="#ArialMT-2e" x="1484.179688"/>
      <use xlink:href="#ArialMT-31" x="1511.962891"/>
      <use xlink:href="#ArialMT-29" x="1567.578125"/>
     </g>
    </g>
    <g id="line2d_86">
     <path d="M 196.657969 78.162656 
L 211.657969 78.162656 
L 226.657969 78.162656 
" style="fill: none; stroke-dasharray: 12.8,3.2,2,3.2; stroke-dashoffset: 0; stroke: #008000; stroke-width: 2"/>
    </g>
    <g id="text_16">
     <!-- Bimodal  (AIC=851.4, BIC=865.2) -->
     <g transform="translate(238.657969 83.412656) scale(0.15 -0.15)">
      <defs>
       <path id="ArialMT-36" d="M 3184 3459 
L 2625 3416 
Q 2550 3747 2413 3897 
Q 2184 4138 1850 4138 
Q 1581 4138 1378 3988 
Q 1113 3794 959 3422 
Q 806 3050 800 2363 
Q 1003 2672 1297 2822 
Q 1591 2972 1913 2972 
Q 2475 2972 2870 2558 
Q 3266 2144 3266 1488 
Q 3266 1056 3080 686 
Q 2894 316 2569 119 
Q 2244 -78 1831 -78 
Q 1128 -78 684 439 
Q 241 956 241 2144 
Q 241 3472 731 4075 
Q 1159 4600 1884 4600 
Q 2425 4600 2770 4297 
Q 3116 3994 3184 3459 
z
M 888 1484 
Q 888 1194 1011 928 
Q 1134 663 1356 523 
Q 1578 384 1822 384 
Q 2178 384 2434 671 
Q 2691 959 2691 1453 
Q 2691 1928 2437 2201 
Q 2184 2475 1800 2475 
Q 1419 2475 1153 2201 
Q 888 1928 888 1484 
z
" transform="scale(0.015625)"/>
      </defs>
      <use xlink:href="#ArialMT-42"/>
      <use xlink:href="#ArialMT-69" x="66.699219"/>
      <use xlink:href="#ArialMT-6d" x="88.916016"/>
      <use xlink:href="#ArialMT-6f" x="172.216797"/>
      <use xlink:href="#ArialMT-64" x="227.832031"/>
      <use xlink:href="#ArialMT-61" x="283.447266"/>
      <use xlink:href="#ArialMT-6c" x="339.0625"/>
      <use xlink:href="#ArialMT-20" x="361.279297"/>
      <use xlink:href="#ArialMT-20" x="389.0625"/>
      <use xlink:href="#ArialMT-28" x="416.845703"/>
      <use xlink:href="#ArialMT-41" x="450.146484"/>
      <use xlink:href="#ArialMT-49" x="516.845703"/>
      <use xlink:href="#ArialMT-43" x="544.628906"/>
      <use xlink:href="#ArialMT-3d" x="616.845703"/>
      <use xlink:href="#ArialMT-38" x="675.244141"/>
      <use xlink:href="#ArialMT-35" x="730.859375"/>
      <use xlink:href="#ArialMT-31" x="786.474609"/>
      <use xlink:href="#ArialMT-2e" x="842.089844"/>
      <use xlink:href="#ArialMT-34" x="869.873047"/>
      <use xlink:href="#ArialMT-2c" x="925.488281"/>
      <use xlink:href="#ArialMT-20" x="953.271484"/>
      <use xlink:href="#ArialMT-42" x="981.054688"/>
      <use xlink:href="#ArialMT-49" x="1047.753906"/>
      <use xlink:href="#ArialMT-43" x="1075.537109"/>
      <use xlink:href="#ArialMT-3d" x="1147.753906"/>
      <use xlink:href="#ArialMT-38" x="1206.152344"/>
      <use xlink:href="#ArialMT-36" x="1261.767578"/>
      <use xlink:href="#ArialMT-35" x="1317.382812"/>
      <use xlink:href="#ArialMT-2e" x="1372.998047"/>
      <use xlink:href="#ArialMT-32" x="1400.78125"/>
      <use xlink:href="#ArialMT-29" x="1456.396484"/>
     </g>
    </g>
   </g>
  </g>
  <g id="line2d_87">
   <path d="M 45.882188 7.2 
L 492.282187 7.2 
" style="fill: none; stroke: #0000ff; stroke-opacity: 0.6; stroke-width: 10; stroke-linecap: square"/>
  </g>
 </g>
 <defs>
  <clipPath id="p5bdbafddb7">
   <rect x="45.882188" y="15.84" width="446.4" height="332.64"/>
  </clipPath>
 </defs>
</svg>
