<?xml version="1.0" encoding="utf-8" standalone="no"?>
<!DOCTYPE svg PUBLIC "-//W3C//DTD SVG 1.1//EN"
  "http://www.w3.org/Graphics/SVG/1.1/DTD/svg11.dtd">
<svg xmlns:xlink="http://www.w3.org/1999/xlink" width="499.482187pt" height="391.963125pt" viewBox="0 0 499.482187 391.963125" xmlns="http://www.w3.org/2000/svg" version="1.1">
 <metadata>
  <rdf:RDF xmlns:dc="http://purl.org/dc/elements/1.1/" xmlns:cc="http://creativecommons.org/ns#" xmlns:rdf="http://www.w3.org/1999/02/22-rdf-syntax-ns#">
   <cc:Work>
    <dc:type rdf:resource="http://purl.org/dc/dcmitype/StillImage"/>
    <dc:date>2025-08-20T02:17:11.297893</dc:date>
    <dc:format>image/svg+xml</dc:format>
    <dc:creator>
     <cc:Agent>
      <dc:title>Matplotlib v3.8.4, https://matplotlib.org/</dc:title>
     </cc:Agent>
    </dc:creator>
   </cc:Work>
  </rdf:RDF>
 </metadata>
 <defs>
  <style type="text/css">*{stroke-linejoin: round; stroke-linecap: butt}</style>
 </defs>
 <g id="figure_1">
  <g id="patch_1">
   <path d="M 0 391.963125 
L 499.482187 391.963125 
L 499.482187 0 
L 0 0 
z
" style="fill: #ffffff"/>
  </g>
  <g id="axes_1">
   <g id="patch_2">
    <path d="M 45.882188 339.84 
L 492.282187 339.84 
L 492.282187 7.2 
L 45.882188 7.2 
z
" style="fill: #ffffff"/>
   </g>
   <g id="patch_3">
    <path d="M 66.173097 339.84 
L 76.318551 339.84 
L 76.318551 165.096466 
L 66.173097 165.096466 
z
" clip-path="url(#p6e6345349d)" style="fill: #4169e1; opacity: 0.6"/>
   </g>
   <g id="patch_4">
    <path d="M 76.318551 339.84 
L 86.464006 339.84 
L 86.464006 187.499483 
L 76.318551 187.499483 
z
" clip-path="url(#p6e6345349d)" style="fill: #4169e1; opacity: 0.6"/>
   </g>
   <g id="patch_5">
    <path d="M 86.464006 339.84 
L 96.60946 339.84 
L 96.60946 187.499483 
L 86.464006 187.499483 
z
" clip-path="url(#p6e6345349d)" style="fill: #4169e1; opacity: 0.6"/>
   </g>
   <g id="patch_6">
    <path d="M 96.60946 339.84 
L 106.754915 339.84 
L 106.754915 169.577069 
L 96.60946 169.577069 
z
" clip-path="url(#p6e6345349d)" style="fill: #4169e1; opacity: 0.6"/>
   </g>
   <g id="patch_7">
    <path d="M 106.754915 339.84 
L 116.900369 339.84 
L 116.900369 115.809828 
L 106.754915 115.809828 
z
" clip-path="url(#p6e6345349d)" style="fill: #4169e1; opacity: 0.6"/>
   </g>
   <g id="patch_8">
    <path d="M 116.900369 339.84 
L 127.045824 339.84 
L 127.045824 106.848621 
L 116.900369 106.848621 
z
" clip-path="url(#p6e6345349d)" style="fill: #4169e1; opacity: 0.6"/>
   </g>
   <g id="patch_9">
    <path d="M 127.045824 339.84 
L 137.191278 339.84 
L 137.191278 79.965 
L 127.045824 79.965 
z
" clip-path="url(#p6e6345349d)" style="fill: #4169e1; opacity: 0.6"/>
   </g>
   <g id="patch_10">
    <path d="M 137.191278 339.84 
L 147.336733 339.84 
L 147.336733 138.212845 
L 137.191278 138.212845 
z
" clip-path="url(#p6e6345349d)" style="fill: #4169e1; opacity: 0.6"/>
   </g>
   <g id="patch_11">
    <path d="M 147.336733 339.84 
L 157.482188 339.84 
L 157.482188 156.135259 
L 147.336733 156.135259 
z
" clip-path="url(#p6e6345349d)" style="fill: #4169e1; opacity: 0.6"/>
   </g>
   <g id="patch_12">
    <path d="M 157.482188 339.84 
L 167.627642 339.84 
L 167.627642 183.018879 
L 157.482188 183.018879 
z
" clip-path="url(#p6e6345349d)" style="fill: #4169e1; opacity: 0.6"/>
   </g>
   <g id="patch_13">
    <path d="M 167.627642 339.84 
L 177.773097 339.84 
L 177.773097 183.018879 
L 167.627642 183.018879 
z
" clip-path="url(#p6e6345349d)" style="fill: #4169e1; opacity: 0.6"/>
   </g>
   <g id="patch_14">
    <path d="M 177.773097 339.84 
L 187.918551 339.84 
L 187.918551 129.251638 
L 177.773097 129.251638 
z
" clip-path="url(#p6e6345349d)" style="fill: #4169e1; opacity: 0.6"/>
   </g>
   <g id="patch_15">
    <path d="M 187.918551 339.84 
L 198.064006 339.84 
L 198.064006 102.368017 
L 187.918551 102.368017 
z
" clip-path="url(#p6e6345349d)" style="fill: #4169e1; opacity: 0.6"/>
   </g>
   <g id="patch_16">
    <path d="M 198.064006 339.84 
L 208.20946 339.84 
L 208.20946 88.926207 
L 198.064006 88.926207 
z
" clip-path="url(#p6e6345349d)" style="fill: #4169e1; opacity: 0.6"/>
   </g>
   <g id="patch_17">
    <path d="M 208.20946 339.84 
L 218.354915 339.84 
L 218.354915 120.290431 
L 208.20946 120.290431 
z
" clip-path="url(#p6e6345349d)" style="fill: #4169e1; opacity: 0.6"/>
   </g>
   <g id="patch_18">
    <path d="M 218.354915 339.84 
L 228.500369 339.84 
L 228.500369 129.251638 
L 218.354915 129.251638 
z
" clip-path="url(#p6e6345349d)" style="fill: #4169e1; opacity: 0.6"/>
   </g>
   <g id="patch_19">
    <path d="M 228.500369 339.84 
L 238.645824 339.84 
L 238.645824 165.096466 
L 228.500369 165.096466 
z
" clip-path="url(#p6e6345349d)" style="fill: #4169e1; opacity: 0.6"/>
   </g>
   <g id="patch_20">
    <path d="M 238.645824 339.84 
L 248.791278 339.84 
L 248.791278 214.383103 
L 238.645824 214.383103 
z
" clip-path="url(#p6e6345349d)" style="fill: #4169e1; opacity: 0.6"/>
   </g>
   <g id="patch_21">
    <path d="M 248.791278 339.84 
L 258.936733 339.84 
L 258.936733 200.941293 
L 248.791278 200.941293 
z
" clip-path="url(#p6e6345349d)" style="fill: #4169e1; opacity: 0.6"/>
   </g>
   <g id="patch_22">
    <path d="M 258.936733 339.84 
L 269.082188 339.84 
L 269.082188 183.018879 
L 258.936733 183.018879 
z
" clip-path="url(#p6e6345349d)" style="fill: #4169e1; opacity: 0.6"/>
   </g>
   <g id="patch_23">
    <path d="M 269.082187 339.84 
L 279.227642 339.84 
L 279.227642 165.096466 
L 269.082187 165.096466 
z
" clip-path="url(#p6e6345349d)" style="fill: #4169e1; opacity: 0.6"/>
   </g>
   <g id="patch_24">
    <path d="M 279.227642 339.84 
L 289.373097 339.84 
L 289.373097 187.499483 
L 279.227642 187.499483 
z
" clip-path="url(#p6e6345349d)" style="fill: #4169e1; opacity: 0.6"/>
   </g>
   <g id="patch_25">
    <path d="M 289.373097 339.84 
L 299.518551 339.84 
L 299.518551 187.499483 
L 289.373097 187.499483 
z
" clip-path="url(#p6e6345349d)" style="fill: #4169e1; opacity: 0.6"/>
   </g>
   <g id="patch_26">
    <path d="M 299.518551 339.84 
L 309.664006 339.84 
L 309.664006 169.577069 
L 299.518551 169.577069 
z
" clip-path="url(#p6e6345349d)" style="fill: #4169e1; opacity: 0.6"/>
   </g>
   <g id="patch_27">
    <path d="M 309.664006 339.84 
L 319.80946 339.84 
L 319.80946 115.809828 
L 309.664006 115.809828 
z
" clip-path="url(#p6e6345349d)" style="fill: #4169e1; opacity: 0.6"/>
   </g>
   <g id="patch_28">
    <path d="M 319.80946 339.84 
L 329.954915 339.84 
L 329.954915 106.848621 
L 319.80946 106.848621 
z
" clip-path="url(#p6e6345349d)" style="fill: #4169e1; opacity: 0.6"/>
   </g>
   <g id="patch_29">
    <path d="M 329.954915 339.84 
L 340.100369 339.84 
L 340.100369 79.965 
L 329.954915 79.965 
z
" clip-path="url(#p6e6345349d)" style="fill: #4169e1; opacity: 0.6"/>
   </g>
   <g id="patch_30">
    <path d="M 340.100369 339.84 
L 350.245824 339.84 
L 350.245824 138.212845 
L 340.100369 138.212845 
z
" clip-path="url(#p6e6345349d)" style="fill: #4169e1; opacity: 0.6"/>
   </g>
   <g id="patch_31">
    <path d="M 350.245824 339.84 
L 360.391278 339.84 
L 360.391278 156.135259 
L 350.245824 156.135259 
z
" clip-path="url(#p6e6345349d)" style="fill: #4169e1; opacity: 0.6"/>
   </g>
   <g id="patch_32">
    <path d="M 360.391278 339.84 
L 370.536733 339.84 
L 370.536733 183.018879 
L 360.391278 183.018879 
z
" clip-path="url(#p6e6345349d)" style="fill: #4169e1; opacity: 0.6"/>
   </g>
   <g id="patch_33">
    <path d="M 370.536733 339.84 
L 380.682187 339.84 
L 380.682187 183.018879 
L 370.536733 183.018879 
z
" clip-path="url(#p6e6345349d)" style="fill: #4169e1; opacity: 0.6"/>
   </g>
   <g id="patch_34">
    <path d="M 380.682187 339.84 
L 390.827642 339.84 
L 390.827642 129.251638 
L 380.682187 129.251638 
z
" clip-path="url(#p6e6345349d)" style="fill: #4169e1; opacity: 0.6"/>
   </g>
   <g id="patch_35">
    <path d="M 390.827642 339.84 
L 400.973097 339.84 
L 400.973097 102.368017 
L 390.827642 102.368017 
z
" clip-path="url(#p6e6345349d)" style="fill: #4169e1; opacity: 0.6"/>
   </g>
   <g id="patch_36">
    <path d="M 400.973097 339.84 
L 411.118551 339.84 
L 411.118551 88.926207 
L 400.973097 88.926207 
z
" clip-path="url(#p6e6345349d)" style="fill: #4169e1; opacity: 0.6"/>
   </g>
   <g id="patch_37">
    <path d="M 411.118551 339.84 
L 421.264006 339.84 
L 421.264006 120.290431 
L 411.118551 120.290431 
z
" clip-path="url(#p6e6345349d)" style="fill: #4169e1; opacity: 0.6"/>
   </g>
   <g id="patch_38">
    <path d="M 421.264006 339.84 
L 431.40946 339.84 
L 431.40946 129.251638 
L 421.264006 129.251638 
z
" clip-path="url(#p6e6345349d)" style="fill: #4169e1; opacity: 0.6"/>
   </g>
   <g id="patch_39">
    <path d="M 431.40946 339.84 
L 441.554915 339.84 
L 441.554915 165.096466 
L 431.40946 165.096466 
z
" clip-path="url(#p6e6345349d)" style="fill: #4169e1; opacity: 0.6"/>
   </g>
   <g id="patch_40">
    <path d="M 441.554915 339.84 
L 451.700369 339.84 
L 451.700369 214.383103 
L 441.554915 214.383103 
z
" clip-path="url(#p6e6345349d)" style="fill: #4169e1; opacity: 0.6"/>
   </g>
   <g id="patch_41">
    <path d="M 451.700369 339.84 
L 461.845824 339.84 
L 461.845824 200.941293 
L 451.700369 200.941293 
z
" clip-path="url(#p6e6345349d)" style="fill: #4169e1; opacity: 0.6"/>
   </g>
   <g id="patch_42">
    <path d="M 461.845824 339.84 
L 471.991278 339.84 
L 471.991278 183.018879 
L 461.845824 183.018879 
z
" clip-path="url(#p6e6345349d)" style="fill: #4169e1; opacity: 0.6"/>
   </g>
   <g id="matplotlib.axis_1">
    <g id="xtick_1">
     <g id="line2d_1">
      <path d="M 66.173097 339.84 
L 66.173097 7.2 
" clip-path="url(#p6e6345349d)" style="fill: none; stroke-dasharray: 7.4,3.2; stroke-dashoffset: 0; stroke: #d3d3d3; stroke-opacity: 0.3; stroke-width: 2"/>
     </g>
     <g id="line2d_2">
      <defs>
       <path id="m735fd2e3c8" d="M 0 0 
L 0 -10 
" style="stroke: #000000; stroke-width: 2"/>
      </defs>
      <g>
       <use xlink:href="#m735fd2e3c8" x="66.173097" y="339.84" style="stroke: #000000; stroke-width: 2"/>
      </g>
     </g>
     <g id="line2d_3">
      <defs>
       <path id="m1546bd0131" d="M 0 0 
L 0 10 
" style="stroke: #000000; stroke-width: 2"/>
      </defs>
      <g>
       <use xlink:href="#m1546bd0131" x="66.173097" y="7.2" style="stroke: #000000; stroke-width: 2"/>
      </g>
     </g>
     <g id="text_1">
      <!-- 0.0 -->
      <g transform="translate(53.663097 360.724063) scale(0.18 -0.18)">
       <defs>
        <path id="ArialMT-30" d="M 266 2259 
Q 266 3072 433 3567 
Q 600 4063 929 4331 
Q 1259 4600 1759 4600 
Q 2128 4600 2406 4451 
Q 2684 4303 2865 4023 
Q 3047 3744 3150 3342 
Q 3253 2941 3253 2259 
Q 3253 1453 3087 958 
Q 2922 463 2592 192 
Q 2263 -78 1759 -78 
Q 1097 -78 719 397 
Q 266 969 266 2259 
z
M 844 2259 
Q 844 1131 1108 757 
Q 1372 384 1759 384 
Q 2147 384 2411 759 
Q 2675 1134 2675 2259 
Q 2675 3391 2411 3762 
Q 2147 4134 1753 4134 
Q 1366 4134 1134 3806 
Q 844 3388 844 2259 
z
" transform="scale(0.015625)"/>
        <path id="ArialMT-2e" d="M 581 0 
L 581 641 
L 1222 641 
L 1222 0 
L 581 0 
z
" transform="scale(0.015625)"/>
       </defs>
       <use xlink:href="#ArialMT-30"/>
       <use xlink:href="#ArialMT-2e" x="55.615234"/>
       <use xlink:href="#ArialMT-30" x="83.398438"/>
      </g>
     </g>
    </g>
    <g id="xtick_2">
     <g id="line2d_4">
      <path d="M 167.627642 339.84 
L 167.627642 7.2 
" clip-path="url(#p6e6345349d)" style="fill: none; stroke-dasharray: 7.4,3.2; stroke-dashoffset: 0; stroke: #d3d3d3; stroke-opacity: 0.3; stroke-width: 2"/>
     </g>
     <g id="line2d_5">
      <g>
       <use xlink:href="#m735fd2e3c8" x="167.627642" y="339.84" style="stroke: #000000; stroke-width: 2"/>
      </g>
     </g>
     <g id="line2d_6">
      <g>
       <use xlink:href="#m1546bd0131" x="167.627642" y="7.2" style="stroke: #000000; stroke-width: 2"/>
      </g>
     </g>
     <g id="text_2">
      <!-- 0.5 -->
      <g transform="translate(155.117642 360.724063) scale(0.18 -0.18)">
       <defs>
        <path id="ArialMT-35" d="M 266 1200 
L 856 1250 
Q 922 819 1161 601 
Q 1400 384 1738 384 
Q 2144 384 2425 690 
Q 2706 997 2706 1503 
Q 2706 1984 2436 2262 
Q 2166 2541 1728 2541 
Q 1456 2541 1237 2417 
Q 1019 2294 894 2097 
L 366 2166 
L 809 4519 
L 3088 4519 
L 3088 3981 
L 1259 3981 
L 1013 2750 
Q 1425 3038 1878 3038 
Q 2478 3038 2890 2622 
Q 3303 2206 3303 1553 
Q 3303 931 2941 478 
Q 2500 -78 1738 -78 
Q 1113 -78 717 272 
Q 322 622 266 1200 
z
" transform="scale(0.015625)"/>
       </defs>
       <use xlink:href="#ArialMT-30"/>
       <use xlink:href="#ArialMT-2e" x="55.615234"/>
       <use xlink:href="#ArialMT-35" x="83.398438"/>
      </g>
     </g>
    </g>
    <g id="xtick_3">
     <g id="line2d_7">
      <path d="M 269.082187 339.84 
L 269.082187 7.2 
" clip-path="url(#p6e6345349d)" style="fill: none; stroke-dasharray: 7.4,3.2; stroke-dashoffset: 0; stroke: #d3d3d3; stroke-opacity: 0.3; stroke-width: 2"/>
     </g>
     <g id="line2d_8">
      <g>
       <use xlink:href="#m735fd2e3c8" x="269.082187" y="339.84" style="stroke: #000000; stroke-width: 2"/>
      </g>
     </g>
     <g id="line2d_9">
      <g>
       <use xlink:href="#m1546bd0131" x="269.082187" y="7.2" style="stroke: #000000; stroke-width: 2"/>
      </g>
     </g>
     <g id="text_3">
      <!-- 1.0 -->
      <g transform="translate(256.572187 360.724063) scale(0.18 -0.18)">
       <defs>
        <path id="ArialMT-31" d="M 2384 0 
L 1822 0 
L 1822 3584 
Q 1619 3391 1289 3197 
Q 959 3003 697 2906 
L 697 3450 
Q 1169 3672 1522 3987 
Q 1875 4303 2022 4600 
L 2384 4600 
L 2384 0 
z
" transform="scale(0.015625)"/>
       </defs>
       <use xlink:href="#ArialMT-31"/>
       <use xlink:href="#ArialMT-2e" x="55.615234"/>
       <use xlink:href="#ArialMT-30" x="83.398438"/>
      </g>
     </g>
    </g>
    <g id="xtick_4">
     <g id="line2d_10">
      <path d="M 370.536733 339.84 
L 370.536733 7.2 
" clip-path="url(#p6e6345349d)" style="fill: none; stroke-dasharray: 7.4,3.2; stroke-dashoffset: 0; stroke: #d3d3d3; stroke-opacity: 0.3; stroke-width: 2"/>
     </g>
     <g id="line2d_11">
      <g>
       <use xlink:href="#m735fd2e3c8" x="370.536733" y="339.84" style="stroke: #000000; stroke-width: 2"/>
      </g>
     </g>
     <g id="line2d_12">
      <g>
       <use xlink:href="#m1546bd0131" x="370.536733" y="7.2" style="stroke: #000000; stroke-width: 2"/>
      </g>
     </g>
     <g id="text_4">
      <!-- 1.5 -->
      <g transform="translate(358.026733 360.724063) scale(0.18 -0.18)">
       <use xlink:href="#ArialMT-31"/>
       <use xlink:href="#ArialMT-2e" x="55.615234"/>
       <use xlink:href="#ArialMT-35" x="83.398438"/>
      </g>
     </g>
    </g>
    <g id="xtick_5">
     <g id="line2d_13">
      <path d="M 471.991278 339.84 
L 471.991278 7.2 
" clip-path="url(#p6e6345349d)" style="fill: none; stroke-dasharray: 7.4,3.2; stroke-dashoffset: 0; stroke: #d3d3d3; stroke-opacity: 0.3; stroke-width: 2"/>
     </g>
     <g id="line2d_14">
      <g>
       <use xlink:href="#m735fd2e3c8" x="471.991278" y="339.84" style="stroke: #000000; stroke-width: 2"/>
      </g>
     </g>
     <g id="line2d_15">
      <g>
       <use xlink:href="#m1546bd0131" x="471.991278" y="7.2" style="stroke: #000000; stroke-width: 2"/>
      </g>
     </g>
     <g id="text_5">
      <!-- 2.0 -->
      <g transform="translate(459.481278 360.724063) scale(0.18 -0.18)">
       <defs>
        <path id="ArialMT-32" d="M 3222 541 
L 3222 0 
L 194 0 
Q 188 203 259 391 
Q 375 700 629 1000 
Q 884 1300 1366 1694 
Q 2113 2306 2375 2664 
Q 2638 3022 2638 3341 
Q 2638 3675 2398 3904 
Q 2159 4134 1775 4134 
Q 1369 4134 1125 3890 
Q 881 3647 878 3216 
L 300 3275 
Q 359 3922 746 4261 
Q 1134 4600 1788 4600 
Q 2447 4600 2831 4234 
Q 3216 3869 3216 3328 
Q 3216 3053 3103 2787 
Q 2991 2522 2730 2228 
Q 2469 1934 1863 1422 
Q 1356 997 1212 845 
Q 1069 694 975 541 
L 3222 541 
z
" transform="scale(0.015625)"/>
       </defs>
       <use xlink:href="#ArialMT-32"/>
       <use xlink:href="#ArialMT-2e" x="55.615234"/>
       <use xlink:href="#ArialMT-30" x="83.398438"/>
      </g>
     </g>
    </g>
    <g id="xtick_6">
     <g id="line2d_16">
      <defs>
       <path id="m2be56306b7" d="M 0 0 
L 0 -5 
" style="stroke: #000000"/>
      </defs>
      <g>
       <use xlink:href="#m2be56306b7" x="45.882188" y="339.84" style="stroke: #000000"/>
      </g>
     </g>
     <g id="line2d_17">
      <defs>
       <path id="m513d8b6ad0" d="M 0 0 
L 0 5 
" style="stroke: #000000"/>
      </defs>
      <g>
       <use xlink:href="#m513d8b6ad0" x="45.882188" y="7.2" style="stroke: #000000"/>
      </g>
     </g>
    </g>
    <g id="xtick_7">
     <g id="line2d_18">
      <g>
       <use xlink:href="#m2be56306b7" x="86.464006" y="339.84" style="stroke: #000000"/>
      </g>
     </g>
     <g id="line2d_19">
      <g>
       <use xlink:href="#m513d8b6ad0" x="86.464006" y="7.2" style="stroke: #000000"/>
      </g>
     </g>
    </g>
    <g id="xtick_8">
     <g id="line2d_20">
      <g>
       <use xlink:href="#m2be56306b7" x="106.754915" y="339.84" style="stroke: #000000"/>
      </g>
     </g>
     <g id="line2d_21">
      <g>
       <use xlink:href="#m513d8b6ad0" x="106.754915" y="7.2" style="stroke: #000000"/>
      </g>
     </g>
    </g>
    <g id="xtick_9">
     <g id="line2d_22">
      <g>
       <use xlink:href="#m2be56306b7" x="127.045824" y="339.84" style="stroke: #000000"/>
      </g>
     </g>
     <g id="line2d_23">
      <g>
       <use xlink:href="#m513d8b6ad0" x="127.045824" y="7.2" style="stroke: #000000"/>
      </g>
     </g>
    </g>
    <g id="xtick_10">
     <g id="line2d_24">
      <g>
       <use xlink:href="#m2be56306b7" x="147.336733" y="339.84" style="stroke: #000000"/>
      </g>
     </g>
     <g id="line2d_25">
      <g>
       <use xlink:href="#m513d8b6ad0" x="147.336733" y="7.2" style="stroke: #000000"/>
      </g>
     </g>
    </g>
    <g id="xtick_11">
     <g id="line2d_26">
      <g>
       <use xlink:href="#m2be56306b7" x="187.918551" y="339.84" style="stroke: #000000"/>
      </g>
     </g>
     <g id="line2d_27">
      <g>
       <use xlink:href="#m513d8b6ad0" x="187.918551" y="7.2" style="stroke: #000000"/>
      </g>
     </g>
    </g>
    <g id="xtick_12">
     <g id="line2d_28">
      <g>
       <use xlink:href="#m2be56306b7" x="208.20946" y="339.84" style="stroke: #000000"/>
      </g>
     </g>
     <g id="line2d_29">
      <g>
       <use xlink:href="#m513d8b6ad0" x="208.20946" y="7.2" style="stroke: #000000"/>
      </g>
     </g>
    </g>
    <g id="xtick_13">
     <g id="line2d_30">
      <g>
       <use xlink:href="#m2be56306b7" x="228.500369" y="339.84" style="stroke: #000000"/>
      </g>
     </g>
     <g id="line2d_31">
      <g>
       <use xlink:href="#m513d8b6ad0" x="228.500369" y="7.2" style="stroke: #000000"/>
      </g>
     </g>
    </g>
    <g id="xtick_14">
     <g id="line2d_32">
      <g>
       <use xlink:href="#m2be56306b7" x="248.791278" y="339.84" style="stroke: #000000"/>
      </g>
     </g>
     <g id="line2d_33">
      <g>
       <use xlink:href="#m513d8b6ad0" x="248.791278" y="7.2" style="stroke: #000000"/>
      </g>
     </g>
    </g>
    <g id="xtick_15">
     <g id="line2d_34">
      <g>
       <use xlink:href="#m2be56306b7" x="289.373097" y="339.84" style="stroke: #000000"/>
      </g>
     </g>
     <g id="line2d_35">
      <g>
       <use xlink:href="#m513d8b6ad0" x="289.373097" y="7.2" style="stroke: #000000"/>
      </g>
     </g>
    </g>
    <g id="xtick_16">
     <g id="line2d_36">
      <g>
       <use xlink:href="#m2be56306b7" x="309.664006" y="339.84" style="stroke: #000000"/>
      </g>
     </g>
     <g id="line2d_37">
      <g>
       <use xlink:href="#m513d8b6ad0" x="309.664006" y="7.2" style="stroke: #000000"/>
      </g>
     </g>
    </g>
    <g id="xtick_17">
     <g id="line2d_38">
      <g>
       <use xlink:href="#m2be56306b7" x="329.954915" y="339.84" style="stroke: #000000"/>
      </g>
     </g>
     <g id="line2d_39">
      <g>
       <use xlink:href="#m513d8b6ad0" x="329.954915" y="7.2" style="stroke: #000000"/>
      </g>
     </g>
    </g>
    <g id="xtick_18">
     <g id="line2d_40">
      <g>
       <use xlink:href="#m2be56306b7" x="350.245824" y="339.84" style="stroke: #000000"/>
      </g>
     </g>
     <g id="line2d_41">
      <g>
       <use xlink:href="#m513d8b6ad0" x="350.245824" y="7.2" style="stroke: #000000"/>
      </g>
     </g>
    </g>
    <g id="xtick_19">
     <g id="line2d_42">
      <g>
       <use xlink:href="#m2be56306b7" x="390.827642" y="339.84" style="stroke: #000000"/>
      </g>
     </g>
     <g id="line2d_43">
      <g>
       <use xlink:href="#m513d8b6ad0" x="390.827642" y="7.2" style="stroke: #000000"/>
      </g>
     </g>
    </g>
    <g id="xtick_20">
     <g id="line2d_44">
      <g>
       <use xlink:href="#m2be56306b7" x="411.118551" y="339.84" style="stroke: #000000"/>
      </g>
     </g>
     <g id="line2d_45">
      <g>
       <use xlink:href="#m513d8b6ad0" x="411.118551" y="7.2" style="stroke: #000000"/>
      </g>
     </g>
    </g>
    <g id="xtick_21">
     <g id="line2d_46">
      <g>
       <use xlink:href="#m2be56306b7" x="431.40946" y="339.84" style="stroke: #000000"/>
      </g>
     </g>
     <g id="line2d_47">
      <g>
       <use xlink:href="#m513d8b6ad0" x="431.40946" y="7.2" style="stroke: #000000"/>
      </g>
     </g>
    </g>
    <g id="xtick_22">
     <g id="line2d_48">
      <g>
       <use xlink:href="#m2be56306b7" x="451.700369" y="339.84" style="stroke: #000000"/>
      </g>
     </g>
     <g id="line2d_49">
      <g>
       <use xlink:href="#m513d8b6ad0" x="451.700369" y="7.2" style="stroke: #000000"/>
      </g>
     </g>
    </g>
    <g id="xtick_23">
     <g id="line2d_50">
      <g>
       <use xlink:href="#m2be56306b7" x="492.282187" y="339.84" style="stroke: #000000"/>
      </g>
     </g>
     <g id="line2d_51">
      <g>
       <use xlink:href="#m513d8b6ad0" x="492.282187" y="7.2" style="stroke: #000000"/>
      </g>
     </g>
    </g>
    <g id="text_6">
     <!-- Phase -->
     <g transform="translate(243.564375 381.185625) scale(0.18 -0.18)">
      <defs>
       <path id="ArialMT-50" d="M 494 0 
L 494 4581 
L 2222 4581 
Q 2678 4581 2919 4538 
Q 3256 4481 3484 4323 
Q 3713 4166 3852 3881 
Q 3991 3597 3991 3256 
Q 3991 2672 3619 2267 
Q 3247 1863 2275 1863 
L 1100 1863 
L 1100 0 
L 494 0 
z
M 1100 2403 
L 2284 2403 
Q 2872 2403 3119 2622 
Q 3366 2841 3366 3238 
Q 3366 3525 3220 3729 
Q 3075 3934 2838 4000 
Q 2684 4041 2272 4041 
L 1100 4041 
L 1100 2403 
z
" transform="scale(0.015625)"/>
       <path id="ArialMT-68" d="M 422 0 
L 422 4581 
L 984 4581 
L 984 2938 
Q 1378 3394 1978 3394 
Q 2347 3394 2619 3248 
Q 2891 3103 3008 2847 
Q 3125 2591 3125 2103 
L 3125 0 
L 2563 0 
L 2563 2103 
Q 2563 2525 2380 2717 
Q 2197 2909 1863 2909 
Q 1613 2909 1392 2779 
Q 1172 2650 1078 2428 
Q 984 2206 984 1816 
L 984 0 
L 422 0 
z
" transform="scale(0.015625)"/>
       <path id="ArialMT-61" d="M 2588 409 
Q 2275 144 1986 34 
Q 1697 -75 1366 -75 
Q 819 -75 525 192 
Q 231 459 231 875 
Q 231 1119 342 1320 
Q 453 1522 633 1644 
Q 813 1766 1038 1828 
Q 1203 1872 1538 1913 
Q 2219 1994 2541 2106 
Q 2544 2222 2544 2253 
Q 2544 2597 2384 2738 
Q 2169 2928 1744 2928 
Q 1347 2928 1158 2789 
Q 969 2650 878 2297 
L 328 2372 
Q 403 2725 575 2942 
Q 747 3159 1072 3276 
Q 1397 3394 1825 3394 
Q 2250 3394 2515 3294 
Q 2781 3194 2906 3042 
Q 3031 2891 3081 2659 
Q 3109 2516 3109 2141 
L 3109 1391 
Q 3109 606 3145 398 
Q 3181 191 3288 0 
L 2700 0 
Q 2613 175 2588 409 
z
M 2541 1666 
Q 2234 1541 1622 1453 
Q 1275 1403 1131 1340 
Q 988 1278 909 1158 
Q 831 1038 831 891 
Q 831 666 1001 516 
Q 1172 366 1500 366 
Q 1825 366 2078 508 
Q 2331 650 2450 897 
Q 2541 1088 2541 1459 
L 2541 1666 
z
" transform="scale(0.015625)"/>
       <path id="ArialMT-73" d="M 197 991 
L 753 1078 
Q 800 744 1014 566 
Q 1228 388 1613 388 
Q 2000 388 2187 545 
Q 2375 703 2375 916 
Q 2375 1106 2209 1216 
Q 2094 1291 1634 1406 
Q 1016 1563 777 1677 
Q 538 1791 414 1992 
Q 291 2194 291 2438 
Q 291 2659 392 2848 
Q 494 3038 669 3163 
Q 800 3259 1026 3326 
Q 1253 3394 1513 3394 
Q 1903 3394 2198 3281 
Q 2494 3169 2634 2976 
Q 2775 2784 2828 2463 
L 2278 2388 
Q 2241 2644 2061 2787 
Q 1881 2931 1553 2931 
Q 1166 2931 1000 2803 
Q 834 2675 834 2503 
Q 834 2394 903 2306 
Q 972 2216 1119 2156 
Q 1203 2125 1616 2013 
Q 2213 1853 2448 1751 
Q 2684 1650 2818 1456 
Q 2953 1263 2953 975 
Q 2953 694 2789 445 
Q 2625 197 2315 61 
Q 2006 -75 1616 -75 
Q 969 -75 630 194 
Q 291 463 197 991 
z
" transform="scale(0.015625)"/>
       <path id="ArialMT-65" d="M 2694 1069 
L 3275 997 
Q 3138 488 2766 206 
Q 2394 -75 1816 -75 
Q 1088 -75 661 373 
Q 234 822 234 1631 
Q 234 2469 665 2931 
Q 1097 3394 1784 3394 
Q 2450 3394 2872 2941 
Q 3294 2488 3294 1666 
Q 3294 1616 3291 1516 
L 816 1516 
Q 847 969 1125 678 
Q 1403 388 1819 388 
Q 2128 388 2347 550 
Q 2566 713 2694 1069 
z
M 847 1978 
L 2700 1978 
Q 2663 2397 2488 2606 
Q 2219 2931 1791 2931 
Q 1403 2931 1139 2672 
Q 875 2413 847 1978 
z
" transform="scale(0.015625)"/>
      </defs>
      <use xlink:href="#ArialMT-50"/>
      <use xlink:href="#ArialMT-68" x="66.699219"/>
      <use xlink:href="#ArialMT-61" x="122.314453"/>
      <use xlink:href="#ArialMT-73" x="177.929688"/>
      <use xlink:href="#ArialMT-65" x="227.929688"/>
     </g>
    </g>
   </g>
   <g id="matplotlib.axis_2">
    <g id="ytick_1">
     <g id="line2d_52">
      <path d="M 45.882188 339.84 
L 492.282187 339.84 
" clip-path="url(#p6e6345349d)" style="fill: none; stroke-dasharray: 7.4,3.2; stroke-dashoffset: 0; stroke: #d3d3d3; stroke-opacity: 0.3; stroke-width: 2"/>
     </g>
     <g id="line2d_53">
      <defs>
       <path id="m757fb1f67c" d="M 0 0 
L 10 0 
" style="stroke: #000000; stroke-width: 2"/>
      </defs>
      <g>
       <use xlink:href="#m757fb1f67c" x="45.882188" y="339.84" style="stroke: #000000; stroke-width: 2"/>
      </g>
     </g>
     <g id="line2d_54">
      <defs>
       <path id="m9f3e54e236" d="M 0 0 
L -10 0 
" style="stroke: #000000; stroke-width: 2"/>
      </defs>
      <g>
       <use xlink:href="#m9f3e54e236" x="492.282187" y="339.84" style="stroke: #000000; stroke-width: 2"/>
      </g>
     </g>
     <g id="text_7">
      <!-- 0 -->
      <g transform="translate(27.8725 346.282031) scale(0.18 -0.18)">
       <use xlink:href="#ArialMT-30"/>
      </g>
     </g>
    </g>
    <g id="ytick_2">
     <g id="line2d_55">
      <path d="M 45.882188 150.310474 
L 492.282187 150.310474 
" clip-path="url(#p6e6345349d)" style="fill: none; stroke-dasharray: 7.4,3.2; stroke-dashoffset: 0; stroke: #d3d3d3; stroke-opacity: 0.3; stroke-width: 2"/>
     </g>
     <g id="line2d_56">
      <g>
       <use xlink:href="#m757fb1f67c" x="45.882188" y="150.310474" style="stroke: #000000; stroke-width: 2"/>
      </g>
     </g>
     <g id="line2d_57">
      <g>
       <use xlink:href="#m9f3e54e236" x="492.282187" y="150.310474" style="stroke: #000000; stroke-width: 2"/>
      </g>
     </g>
     <g id="text_8">
      <!-- 1 -->
      <g transform="translate(27.8725 156.752505) scale(0.18 -0.18)">
       <use xlink:href="#ArialMT-31"/>
      </g>
     </g>
    </g>
    <g id="ytick_3">
     <g id="line2d_58">
      <defs>
       <path id="m72769fe45f" d="M 0 0 
L 5 0 
" style="stroke: #000000"/>
      </defs>
      <g>
       <use xlink:href="#m72769fe45f" x="45.882188" y="301.934095" style="stroke: #000000"/>
      </g>
     </g>
     <g id="line2d_59">
      <defs>
       <path id="mfce5ca416a" d="M 0 0 
L -5 0 
" style="stroke: #000000"/>
      </defs>
      <g>
       <use xlink:href="#mfce5ca416a" x="492.282187" y="301.934095" style="stroke: #000000"/>
      </g>
     </g>
    </g>
    <g id="ytick_4">
     <g id="line2d_60">
      <g>
       <use xlink:href="#m72769fe45f" x="45.882188" y="264.02819" style="stroke: #000000"/>
      </g>
     </g>
     <g id="line2d_61">
      <g>
       <use xlink:href="#mfce5ca416a" x="492.282187" y="264.02819" style="stroke: #000000"/>
      </g>
     </g>
    </g>
    <g id="ytick_5">
     <g id="line2d_62">
      <g>
       <use xlink:href="#m72769fe45f" x="45.882188" y="226.122284" style="stroke: #000000"/>
      </g>
     </g>
     <g id="line2d_63">
      <g>
       <use xlink:href="#mfce5ca416a" x="492.282187" y="226.122284" style="stroke: #000000"/>
      </g>
     </g>
    </g>
    <g id="ytick_6">
     <g id="line2d_64">
      <g>
       <use xlink:href="#m72769fe45f" x="45.882188" y="188.216379" style="stroke: #000000"/>
      </g>
     </g>
     <g id="line2d_65">
      <g>
       <use xlink:href="#mfce5ca416a" x="492.282187" y="188.216379" style="stroke: #000000"/>
      </g>
     </g>
    </g>
    <g id="ytick_7">
     <g id="line2d_66">
      <g>
       <use xlink:href="#m72769fe45f" x="45.882188" y="112.404569" style="stroke: #000000"/>
      </g>
     </g>
     <g id="line2d_67">
      <g>
       <use xlink:href="#mfce5ca416a" x="492.282187" y="112.404569" style="stroke: #000000"/>
      </g>
     </g>
    </g>
    <g id="ytick_8">
     <g id="line2d_68">
      <g>
       <use xlink:href="#m72769fe45f" x="45.882188" y="74.498664" style="stroke: #000000"/>
      </g>
     </g>
     <g id="line2d_69">
      <g>
       <use xlink:href="#mfce5ca416a" x="492.282187" y="74.498664" style="stroke: #000000"/>
      </g>
     </g>
    </g>
    <g id="ytick_9">
     <g id="line2d_70">
      <g>
       <use xlink:href="#m72769fe45f" x="45.882188" y="36.592759" style="stroke: #000000"/>
      </g>
     </g>
     <g id="line2d_71">
      <g>
       <use xlink:href="#mfce5ca416a" x="492.282187" y="36.592759" style="stroke: #000000"/>
      </g>
     </g>
    </g>
    <g id="text_9">
     <!-- Density -->
     <g transform="translate(20.084062 203.529375) rotate(-90) scale(0.18 -0.18)">
      <defs>
       <path id="ArialMT-44" d="M 494 0 
L 494 4581 
L 2072 4581 
Q 2606 4581 2888 4516 
Q 3281 4425 3559 4188 
Q 3922 3881 4101 3404 
Q 4281 2928 4281 2316 
Q 4281 1794 4159 1391 
Q 4038 988 3847 723 
Q 3656 459 3429 307 
Q 3203 156 2883 78 
Q 2563 0 2147 0 
L 494 0 
z
M 1100 541 
L 2078 541 
Q 2531 541 2789 625 
Q 3047 709 3200 863 
Q 3416 1078 3536 1442 
Q 3656 1806 3656 2325 
Q 3656 3044 3420 3430 
Q 3184 3816 2847 3947 
Q 2603 4041 2063 4041 
L 1100 4041 
L 1100 541 
z
" transform="scale(0.015625)"/>
       <path id="ArialMT-6e" d="M 422 0 
L 422 3319 
L 928 3319 
L 928 2847 
Q 1294 3394 1984 3394 
Q 2284 3394 2536 3286 
Q 2788 3178 2913 3003 
Q 3038 2828 3088 2588 
Q 3119 2431 3119 2041 
L 3119 0 
L 2556 0 
L 2556 2019 
Q 2556 2363 2490 2533 
Q 2425 2703 2258 2804 
Q 2091 2906 1866 2906 
Q 1506 2906 1245 2678 
Q 984 2450 984 1813 
L 984 0 
L 422 0 
z
" transform="scale(0.015625)"/>
       <path id="ArialMT-69" d="M 425 3934 
L 425 4581 
L 988 4581 
L 988 3934 
L 425 3934 
z
M 425 0 
L 425 3319 
L 988 3319 
L 988 0 
L 425 0 
z
" transform="scale(0.015625)"/>
       <path id="ArialMT-74" d="M 1650 503 
L 1731 6 
Q 1494 -44 1306 -44 
Q 1000 -44 831 53 
Q 663 150 594 308 
Q 525 466 525 972 
L 525 2881 
L 113 2881 
L 113 3319 
L 525 3319 
L 525 4141 
L 1084 4478 
L 1084 3319 
L 1650 3319 
L 1650 2881 
L 1084 2881 
L 1084 941 
Q 1084 700 1114 631 
Q 1144 563 1211 522 
Q 1278 481 1403 481 
Q 1497 481 1650 503 
z
" transform="scale(0.015625)"/>
       <path id="ArialMT-79" d="M 397 -1278 
L 334 -750 
Q 519 -800 656 -800 
Q 844 -800 956 -737 
Q 1069 -675 1141 -563 
Q 1194 -478 1313 -144 
Q 1328 -97 1363 -6 
L 103 3319 
L 709 3319 
L 1400 1397 
Q 1534 1031 1641 628 
Q 1738 1016 1872 1384 
L 2581 3319 
L 3144 3319 
L 1881 -56 
Q 1678 -603 1566 -809 
Q 1416 -1088 1222 -1217 
Q 1028 -1347 759 -1347 
Q 597 -1347 397 -1278 
z
" transform="scale(0.015625)"/>
      </defs>
      <use xlink:href="#ArialMT-44"/>
      <use xlink:href="#ArialMT-65" x="72.216797"/>
      <use xlink:href="#ArialMT-6e" x="127.832031"/>
      <use xlink:href="#ArialMT-73" x="183.447266"/>
      <use xlink:href="#ArialMT-69" x="233.447266"/>
      <use xlink:href="#ArialMT-74" x="255.664062"/>
      <use xlink:href="#ArialMT-79" x="283.447266"/>
     </g>
    </g>
   </g>
   <g id="line2d_72">
    <path d="M 66.173097 150.310474 
L 471.991278 150.310474 
" clip-path="url(#p6e6345349d)" style="fill: none; stroke-dasharray: 2,3.3; stroke-dashoffset: 0; stroke: #808080; stroke-width: 2"/>
   </g>
   <g id="line2d_73">
    <path d="M 66.173097 175.410274 
L 69.426148 175.106809 
L 72.6792 174.575947 
L 75.932251 173.820907 
L 79.185303 172.846353 
L 82.438354 171.658444 
L 86.098037 170.076698 
L 89.75772 168.248221 
L 93.824035 165.947047 
L 97.890349 163.387836 
L 102.363295 160.311837 
L 107.649504 156.388342 
L 114.155607 151.260707 
L 130.420865 138.285839 
L 135.300442 134.741651 
L 139.366757 132.040279 
L 143.02644 129.852777 
L 146.686123 127.933984 
L 149.939174 126.480484 
L 153.192226 125.285118 
L 156.038646 124.464096 
L 158.885066 123.86236 
L 161.731486 123.486448 
L 164.577906 123.340467 
L 167.424326 123.426017 
L 170.270746 123.742159 
L 173.117167 124.285437 
L 175.963587 125.049937 
L 178.810007 126.027397 
L 182.063058 127.391745 
L 185.31611 129.001686 
L 188.975793 131.07913 
L 193.042107 133.676874 
L 197.515053 136.825577 
L 202.801262 140.841271 
L 210.527259 147.034151 
L 221.506308 155.81612 
L 227.199149 160.070299 
L 232.078726 163.433703 
L 236.551672 166.230495 
L 240.617986 168.499626 
L 244.277669 170.296849 
L 247.937352 171.845434 
L 251.597035 173.132251 
L 254.850087 174.047769 
L 258.103138 174.742361 
L 261.35619 175.211762 
L 264.609242 175.453134 
L 267.862293 175.465032 
L 269.082187 175.410274 
L 269.082187 175.410274 
" clip-path="url(#p6e6345349d)" style="fill: none; stroke-dasharray: 7.4,3.2; stroke-dashoffset: 0; stroke: #ff7f50; stroke-width: 2"/>
   </g>
   <g id="line2d_74">
    <path d="M 269.082187 175.410274 
L 272.335239 175.106809 
L 275.588291 174.575947 
L 278.841342 173.820907 
L 282.094394 172.846353 
L 285.347445 171.658444 
L 289.007128 170.076698 
L 292.666811 168.248221 
L 296.733126 165.947047 
L 300.79944 163.387836 
L 305.272386 160.311837 
L 310.558595 156.388342 
L 317.064698 151.260707 
L 333.329956 138.285839 
L 338.209533 134.741651 
L 342.275848 132.040279 
L 345.935531 129.852777 
L 349.595214 127.933984 
L 352.848265 126.480484 
L 356.101317 125.285118 
L 358.947737 124.464096 
L 361.794157 123.86236 
L 364.640577 123.486448 
L 367.486997 123.340467 
L 370.333417 123.426017 
L 373.179837 123.742159 
L 376.026257 124.285437 
L 378.872678 125.049937 
L 381.719098 126.027397 
L 384.972149 127.391745 
L 388.225201 129.001686 
L 391.884884 131.07913 
L 395.951198 133.676874 
L 400.424144 136.825577 
L 405.710353 140.841271 
L 413.43635 147.034151 
L 424.415399 155.81612 
L 430.10824 160.070299 
L 434.987817 163.433703 
L 439.460763 166.230495 
L 443.527077 168.499626 
L 447.18676 170.296849 
L 450.846443 171.845434 
L 454.506126 173.132251 
L 457.759178 174.047769 
L 461.012229 174.742361 
L 464.265281 175.211762 
L 467.518333 175.453134 
L 470.771384 175.465032 
L 471.991278 175.410274 
L 471.991278 175.410274 
" clip-path="url(#p6e6345349d)" style="fill: none; stroke-dasharray: 7.4,3.2; stroke-dashoffset: 0; stroke: #ff7f50; stroke-width: 2"/>
   </g>
   <g id="line2d_75">
    <path d="M 66.173097 189.043275 
L 67.392991 188.258615 
L 69.019517 186.894395 
L 70.646042 185.176896 
L 72.272568 183.119944 
L 73.899094 180.740309 
L 75.932251 177.342288 
L 77.965408 173.515976 
L 80.405197 168.4326 
L 83.251617 161.954775 
L 87.317932 152.035095 
L 94.637298 134.036773 
L 97.483718 127.664132 
L 99.923507 122.745006 
L 101.956664 119.128057 
L 103.58319 116.599211 
L 105.209715 114.427917 
L 106.836241 112.640705 
L 108.056135 111.565782 
L 109.27603 110.726901 
L 110.495924 110.129946 
L 111.715818 109.779115 
L 112.935713 109.67688 
L 114.155607 109.823963 
L 115.375501 110.219326 
L 116.595396 110.860183 
L 117.81529 111.742029 
L 119.035184 112.858685 
L 120.66171 114.699134 
L 122.288236 116.920336 
L 123.914762 119.495189 
L 125.947919 123.163394 
L 128.387708 128.133788 
L 131.234128 134.550817 
L 134.893811 143.435823 
L 143.02644 163.422046 
L 145.87286 169.78352 
L 148.312648 174.737102 
L 150.345806 178.436713 
L 152.378963 181.693451 
L 154.005489 183.951029 
L 155.632014 185.879119 
L 157.25854 187.462087 
L 158.885066 188.687234 
L 160.10496 189.365285 
L 161.324855 189.833458 
L 162.544749 190.089623 
L 163.764643 190.132566 
L 164.984538 189.96199 
L 166.204432 189.578509 
L 167.424326 188.983656 
L 168.644221 188.179881 
L 170.270746 186.789155 
L 171.897272 185.043671 
L 173.523798 182.956929 
L 175.150324 180.545384 
L 177.183481 177.104056 
L 179.216638 173.230163 
L 181.656427 168.083445 
L 184.502847 161.522415 
L 188.16253 152.493307 
L 196.295159 132.20778 
L 199.141579 125.791256 
L 201.581368 120.855955 
L 203.614525 117.240677 
L 205.241051 114.722923 
L 206.867576 112.571145 
L 208.494102 110.811549 
L 209.713997 109.762408 
L 210.933891 108.953429 
L 212.153785 108.390264 
L 213.37368 108.076859 
L 214.593574 108.015414 
L 215.813468 108.20636 
L 217.033363 108.648357 
L 218.253257 109.338304 
L 219.473151 110.271374 
L 220.693046 111.441061 
L 222.319571 113.354461 
L 223.946097 115.650474 
L 225.572623 118.301247 
L 227.60578 122.064823 
L 230.045569 127.148646 
L 232.891989 133.694111 
L 236.551672 142.734176 
L 244.684301 163.008879 
L 247.530721 169.451304 
L 249.97051 174.466426 
L 252.003667 178.212252 
L 254.036824 181.51108 
L 255.66335 183.799717 
L 257.289876 185.756865 
L 258.916401 187.367208 
L 260.542927 188.618382 
L 261.762821 189.315277 
L 262.982716 189.801877 
L 264.20261 190.076204 
L 265.422504 190.137196 
L 266.642399 189.984708 
L 267.862293 189.619506 
L 269.082187 189.043275 
L 269.082187 189.043275 
" clip-path="url(#p6e6345349d)" style="fill: none; stroke-dasharray: 12.8,3.2,2,3.2; stroke-dashoffset: 0; stroke: #008000; stroke-width: 2"/>
   </g>
   <g id="line2d_76">
    <path d="M 269.082187 189.043275 
L 270.302082 188.258615 
L 271.928608 186.894395 
L 273.555133 185.176896 
L 275.181659 183.119944 
L 276.808185 180.740309 
L 278.841342 177.342288 
L 280.874499 173.515976 
L 283.314288 168.4326 
L 286.160708 161.954775 
L 290.227023 152.035095 
L 297.546389 134.036773 
L 300.392809 127.664132 
L 302.832597 122.745006 
L 304.865755 119.128057 
L 306.49228 116.599211 
L 308.118806 114.427917 
L 309.745332 112.640705 
L 310.965226 111.565782 
L 312.185121 110.726901 
L 313.405015 110.129946 
L 314.624909 109.779115 
L 315.844804 109.67688 
L 317.064698 109.823963 
L 318.284592 110.219326 
L 319.504487 110.860183 
L 320.724381 111.742029 
L 321.944275 112.858685 
L 323.570801 114.699134 
L 325.197327 116.920336 
L 326.823853 119.495189 
L 328.85701 123.163394 
L 331.296799 128.133788 
L 334.143219 134.550817 
L 337.802902 143.435823 
L 345.935531 163.422046 
L 348.781951 169.78352 
L 351.221739 174.737102 
L 353.254897 178.436713 
L 355.288054 181.693451 
L 356.91458 183.951029 
L 358.541105 185.879119 
L 360.167631 187.462087 
L 361.794157 188.687234 
L 363.014051 189.365285 
L 364.233946 189.833458 
L 365.45384 190.089623 
L 366.673734 190.132566 
L 367.893629 189.96199 
L 369.113523 189.578509 
L 370.333417 188.983656 
L 371.553312 188.179881 
L 373.179837 186.789155 
L 374.806363 185.043671 
L 376.432889 182.956929 
L 378.059415 180.545384 
L 380.092572 177.104056 
L 382.125729 173.230163 
L 384.565518 168.083445 
L 387.411938 161.522415 
L 391.071621 152.493307 
L 399.20425 132.20778 
L 402.05067 125.791256 
L 404.490459 120.855955 
L 406.523616 117.240677 
L 408.150142 114.722923 
L 409.776667 112.571145 
L 411.403193 110.811549 
L 412.623087 109.762408 
L 413.842982 108.953429 
L 415.062876 108.390264 
L 416.28277 108.076859 
L 417.502665 108.015414 
L 418.722559 108.20636 
L 419.942453 108.648357 
L 421.162348 109.338304 
L 422.382242 110.271374 
L 423.602136 111.441061 
L 425.228662 113.354461 
L 426.855188 115.650474 
L 428.481714 118.301247 
L 430.514871 122.064823 
L 432.95466 127.148646 
L 435.80108 133.694111 
L 439.460763 142.734176 
L 447.593392 163.008879 
L 450.439812 169.451304 
L 452.879601 174.466426 
L 454.912758 178.212252 
L 456.945915 181.51108 
L 458.572441 183.799717 
L 460.198967 185.756865 
L 461.825492 187.367208 
L 463.452018 188.618382 
L 464.671912 189.315277 
L 465.891807 189.801877 
L 467.111701 190.076204 
L 468.331595 190.137196 
L 469.55149 189.984708 
L 470.771384 189.619506 
L 471.991278 189.043275 
L 471.991278 189.043275 
" clip-path="url(#p6e6345349d)" style="fill: none; stroke-dasharray: 12.8,3.2,2,3.2; stroke-dashoffset: 0; stroke: #008000; stroke-width: 2"/>
   </g>
   <g id="patch_43">
    <path d="M 45.882188 339.84 
L 45.882188 7.2 
" style="fill: none; stroke: #000000; stroke-width: 2; stroke-linejoin: miter; stroke-linecap: square"/>
   </g>
   <g id="patch_44">
    <path d="M 492.282187 339.84 
L 492.282187 7.2 
" style="fill: none; stroke: #000000; stroke-width: 2; stroke-linejoin: miter; stroke-linecap: square"/>
   </g>
   <g id="patch_45">
    <path d="M 45.882188 339.84 
L 492.282187 339.84 
" style="fill: none; stroke: #000000; stroke-width: 2; stroke-linejoin: miter; stroke-linecap: square"/>
   </g>
   <g id="patch_46">
    <path d="M 45.882188 7.2 
L 492.282187 7.2 
" style="fill: none; stroke: #000000; stroke-width: 2; stroke-linejoin: miter; stroke-linecap: square"/>
   </g>
   <g id="text_10">
    <!-- FAST #2 -->
    <g transform="translate(59.274187 30.577039) scale(0.15 -0.15)">
     <defs>
      <path id="ArialMT-46" d="M 525 0 
L 525 4581 
L 3616 4581 
L 3616 4041 
L 1131 4041 
L 1131 2622 
L 3281 2622 
L 3281 2081 
L 1131 2081 
L 1131 0 
L 525 0 
z
" transform="scale(0.015625)"/>
      <path id="ArialMT-41" d="M -9 0 
L 1750 4581 
L 2403 4581 
L 4278 0 
L 3588 0 
L 3053 1388 
L 1138 1388 
L 634 0 
L -9 0 
z
M 1313 1881 
L 2866 1881 
L 2388 3150 
Q 2169 3728 2063 4100 
Q 1975 3659 1816 3225 
L 1313 1881 
z
" transform="scale(0.015625)"/>
      <path id="ArialMT-53" d="M 288 1472 
L 859 1522 
Q 900 1178 1048 958 
Q 1197 738 1509 602 
Q 1822 466 2213 466 
Q 2559 466 2825 569 
Q 3091 672 3220 851 
Q 3350 1031 3350 1244 
Q 3350 1459 3225 1620 
Q 3100 1781 2813 1891 
Q 2628 1963 1997 2114 
Q 1366 2266 1113 2400 
Q 784 2572 623 2826 
Q 463 3081 463 3397 
Q 463 3744 659 4045 
Q 856 4347 1234 4503 
Q 1613 4659 2075 4659 
Q 2584 4659 2973 4495 
Q 3363 4331 3572 4012 
Q 3781 3694 3797 3291 
L 3216 3247 
Q 3169 3681 2898 3903 
Q 2628 4125 2100 4125 
Q 1550 4125 1298 3923 
Q 1047 3722 1047 3438 
Q 1047 3191 1225 3031 
Q 1400 2872 2139 2705 
Q 2878 2538 3153 2413 
Q 3553 2228 3743 1945 
Q 3934 1663 3934 1294 
Q 3934 928 3725 604 
Q 3516 281 3123 101 
Q 2731 -78 2241 -78 
Q 1619 -78 1198 103 
Q 778 284 539 648 
Q 300 1013 288 1472 
z
" transform="scale(0.015625)"/>
      <path id="ArialMT-54" d="M 1659 0 
L 1659 4041 
L 150 4041 
L 150 4581 
L 3781 4581 
L 3781 4041 
L 2266 4041 
L 2266 0 
L 1659 0 
z
" transform="scale(0.015625)"/>
      <path id="ArialMT-20" transform="scale(0.015625)"/>
      <path id="ArialMT-23" d="M 322 -78 
L 594 1253 
L 66 1253 
L 66 1719 
L 688 1719 
L 919 2853 
L 66 2853 
L 66 3319 
L 1013 3319 
L 1284 4659 
L 1753 4659 
L 1481 3319 
L 2466 3319 
L 2738 4659 
L 3209 4659 
L 2938 3319 
L 3478 3319 
L 3478 2853 
L 2844 2853 
L 2609 1719 
L 3478 1719 
L 3478 1253 
L 2516 1253 
L 2244 -78 
L 1775 -78 
L 2044 1253 
L 1063 1253 
L 791 -78 
L 322 -78 
z
M 1156 1719 
L 2138 1719 
L 2372 2853 
L 1388 2853 
L 1156 1719 
z
" transform="scale(0.015625)"/>
     </defs>
     <use xlink:href="#ArialMT-46"/>
     <use xlink:href="#ArialMT-41" x="55.583984"/>
     <use xlink:href="#ArialMT-53" x="122.283203"/>
     <use xlink:href="#ArialMT-54" x="188.982422"/>
     <use xlink:href="#ArialMT-20" x="248.316406"/>
     <use xlink:href="#ArialMT-23" x="276.099609"/>
     <use xlink:href="#ArialMT-32" x="331.714844"/>
    </g>
   </g>
   <g id="text_11">
    <!-- MJD 59483-59485 -->
    <g transform="translate(59.274187 52.198639) scale(0.15 -0.15)">
     <defs>
      <path id="ArialMT-4d" d="M 475 0 
L 475 4581 
L 1388 4581 
L 2472 1338 
Q 2622 884 2691 659 
Q 2769 909 2934 1394 
L 4031 4581 
L 4847 4581 
L 4847 0 
L 4263 0 
L 4263 3834 
L 2931 0 
L 2384 0 
L 1059 3900 
L 1059 0 
L 475 0 
z
" transform="scale(0.015625)"/>
      <path id="ArialMT-4a" d="M 184 1300 
L 731 1375 
Q 753 850 928 656 
Q 1103 463 1413 463 
Q 1641 463 1806 567 
Q 1972 672 2034 851 
Q 2097 1031 2097 1425 
L 2097 4581 
L 2703 4581 
L 2703 1459 
Q 2703 884 2564 568 
Q 2425 253 2123 87 
Q 1822 -78 1416 -78 
Q 813 -78 492 269 
Q 172 616 184 1300 
z
" transform="scale(0.015625)"/>
      <path id="ArialMT-39" d="M 350 1059 
L 891 1109 
Q 959 728 1153 556 
Q 1347 384 1650 384 
Q 1909 384 2104 503 
Q 2300 622 2425 820 
Q 2550 1019 2634 1356 
Q 2719 1694 2719 2044 
Q 2719 2081 2716 2156 
Q 2547 1888 2255 1720 
Q 1963 1553 1622 1553 
Q 1053 1553 659 1965 
Q 266 2378 266 3053 
Q 266 3750 677 4175 
Q 1088 4600 1706 4600 
Q 2153 4600 2523 4359 
Q 2894 4119 3086 3673 
Q 3278 3228 3278 2384 
Q 3278 1506 3087 986 
Q 2897 466 2520 194 
Q 2144 -78 1638 -78 
Q 1100 -78 759 220 
Q 419 519 350 1059 
z
M 2653 3081 
Q 2653 3566 2395 3850 
Q 2138 4134 1775 4134 
Q 1400 4134 1122 3828 
Q 844 3522 844 3034 
Q 844 2597 1108 2323 
Q 1372 2050 1759 2050 
Q 2150 2050 2401 2323 
Q 2653 2597 2653 3081 
z
" transform="scale(0.015625)"/>
      <path id="ArialMT-34" d="M 2069 0 
L 2069 1097 
L 81 1097 
L 81 1613 
L 2172 4581 
L 2631 4581 
L 2631 1613 
L 3250 1613 
L 3250 1097 
L 2631 1097 
L 2631 0 
L 2069 0 
z
M 2069 1613 
L 2069 3678 
L 634 1613 
L 2069 1613 
z
" transform="scale(0.015625)"/>
      <path id="ArialMT-38" d="M 1131 2484 
Q 781 2613 612 2850 
Q 444 3088 444 3419 
Q 444 3919 803 4259 
Q 1163 4600 1759 4600 
Q 2359 4600 2725 4251 
Q 3091 3903 3091 3403 
Q 3091 3084 2923 2848 
Q 2756 2613 2416 2484 
Q 2838 2347 3058 2040 
Q 3278 1734 3278 1309 
Q 3278 722 2862 322 
Q 2447 -78 1769 -78 
Q 1091 -78 675 323 
Q 259 725 259 1325 
Q 259 1772 486 2073 
Q 713 2375 1131 2484 
z
M 1019 3438 
Q 1019 3113 1228 2906 
Q 1438 2700 1772 2700 
Q 2097 2700 2305 2904 
Q 2513 3109 2513 3406 
Q 2513 3716 2298 3927 
Q 2084 4138 1766 4138 
Q 1444 4138 1231 3931 
Q 1019 3725 1019 3438 
z
M 838 1322 
Q 838 1081 952 856 
Q 1066 631 1291 507 
Q 1516 384 1775 384 
Q 2178 384 2440 643 
Q 2703 903 2703 1303 
Q 2703 1709 2433 1975 
Q 2163 2241 1756 2241 
Q 1359 2241 1098 1978 
Q 838 1716 838 1322 
z
" transform="scale(0.015625)"/>
      <path id="ArialMT-33" d="M 269 1209 
L 831 1284 
Q 928 806 1161 595 
Q 1394 384 1728 384 
Q 2125 384 2398 659 
Q 2672 934 2672 1341 
Q 2672 1728 2419 1979 
Q 2166 2231 1775 2231 
Q 1616 2231 1378 2169 
L 1441 2663 
Q 1497 2656 1531 2656 
Q 1891 2656 2178 2843 
Q 2466 3031 2466 3422 
Q 2466 3731 2256 3934 
Q 2047 4138 1716 4138 
Q 1388 4138 1169 3931 
Q 950 3725 888 3313 
L 325 3413 
Q 428 3978 793 4289 
Q 1159 4600 1703 4600 
Q 2078 4600 2393 4439 
Q 2709 4278 2876 4000 
Q 3044 3722 3044 3409 
Q 3044 3113 2884 2869 
Q 2725 2625 2413 2481 
Q 2819 2388 3044 2092 
Q 3269 1797 3269 1353 
Q 3269 753 2831 336 
Q 2394 -81 1725 -81 
Q 1122 -81 723 278 
Q 325 638 269 1209 
z
" transform="scale(0.015625)"/>
      <path id="ArialMT-2d" d="M 203 1375 
L 203 1941 
L 1931 1941 
L 1931 1375 
L 203 1375 
z
" transform="scale(0.015625)"/>
     </defs>
     <use xlink:href="#ArialMT-4d"/>
     <use xlink:href="#ArialMT-4a" x="83.300781"/>
     <use xlink:href="#ArialMT-44" x="133.300781"/>
     <use xlink:href="#ArialMT-20" x="205.517578"/>
     <use xlink:href="#ArialMT-35" x="233.300781"/>
     <use xlink:href="#ArialMT-39" x="288.916016"/>
     <use xlink:href="#ArialMT-34" x="344.53125"/>
     <use xlink:href="#ArialMT-38" x="400.146484"/>
     <use xlink:href="#ArialMT-33" x="455.761719"/>
     <use xlink:href="#ArialMT-2d" x="511.376953"/>
     <use xlink:href="#ArialMT-35" x="544.677734"/>
     <use xlink:href="#ArialMT-39" x="600.292969"/>
     <use xlink:href="#ArialMT-34" x="655.908203"/>
     <use xlink:href="#ArialMT-38" x="711.523438"/>
     <use xlink:href="#ArialMT-35" x="767.138672"/>
    </g>
   </g>
   <g id="text_12">
    <!-- 846 bursts -->
    <g transform="translate(59.274187 73.820239) scale(0.15 -0.15)">
     <defs>
      <path id="ArialMT-36" d="M 3184 3459 
L 2625 3416 
Q 2550 3747 2413 3897 
Q 2184 4138 1850 4138 
Q 1581 4138 1378 3988 
Q 1113 3794 959 3422 
Q 806 3050 800 2363 
Q 1003 2672 1297 2822 
Q 1591 2972 1913 2972 
Q 2475 2972 2870 2558 
Q 3266 2144 3266 1488 
Q 3266 1056 3080 686 
Q 2894 316 2569 119 
Q 2244 -78 1831 -78 
Q 1128 -78 684 439 
Q 241 956 241 2144 
Q 241 3472 731 4075 
Q 1159 4600 1884 4600 
Q 2425 4600 2770 4297 
Q 3116 3994 3184 3459 
z
M 888 1484 
Q 888 1194 1011 928 
Q 1134 663 1356 523 
Q 1578 384 1822 384 
Q 2178 384 2434 671 
Q 2691 959 2691 1453 
Q 2691 1928 2437 2201 
Q 2184 2475 1800 2475 
Q 1419 2475 1153 2201 
Q 888 1928 888 1484 
z
" transform="scale(0.015625)"/>
      <path id="ArialMT-62" d="M 941 0 
L 419 0 
L 419 4581 
L 981 4581 
L 981 2947 
Q 1338 3394 1891 3394 
Q 2197 3394 2470 3270 
Q 2744 3147 2920 2923 
Q 3097 2700 3197 2384 
Q 3297 2069 3297 1709 
Q 3297 856 2875 390 
Q 2453 -75 1863 -75 
Q 1275 -75 941 416 
L 941 0 
z
M 934 1684 
Q 934 1088 1097 822 
Q 1363 388 1816 388 
Q 2184 388 2453 708 
Q 2722 1028 2722 1663 
Q 2722 2313 2464 2622 
Q 2206 2931 1841 2931 
Q 1472 2931 1203 2611 
Q 934 2291 934 1684 
z
" transform="scale(0.015625)"/>
      <path id="ArialMT-75" d="M 2597 0 
L 2597 488 
Q 2209 -75 1544 -75 
Q 1250 -75 995 37 
Q 741 150 617 320 
Q 494 491 444 738 
Q 409 903 409 1263 
L 409 3319 
L 972 3319 
L 972 1478 
Q 972 1038 1006 884 
Q 1059 663 1231 536 
Q 1403 409 1656 409 
Q 1909 409 2131 539 
Q 2353 669 2445 892 
Q 2538 1116 2538 1541 
L 2538 3319 
L 3100 3319 
L 3100 0 
L 2597 0 
z
" transform="scale(0.015625)"/>
      <path id="ArialMT-72" d="M 416 0 
L 416 3319 
L 922 3319 
L 922 2816 
Q 1116 3169 1280 3281 
Q 1444 3394 1641 3394 
Q 1925 3394 2219 3213 
L 2025 2691 
Q 1819 2813 1613 2813 
Q 1428 2813 1281 2702 
Q 1134 2591 1072 2394 
Q 978 2094 978 1738 
L 978 0 
L 416 0 
z
" transform="scale(0.015625)"/>
     </defs>
     <use xlink:href="#ArialMT-38"/>
     <use xlink:href="#ArialMT-34" x="55.615234"/>
     <use xlink:href="#ArialMT-36" x="111.230469"/>
     <use xlink:href="#ArialMT-20" x="166.845703"/>
     <use xlink:href="#ArialMT-62" x="194.628906"/>
     <use xlink:href="#ArialMT-75" x="250.244141"/>
     <use xlink:href="#ArialMT-72" x="305.859375"/>
     <use xlink:href="#ArialMT-73" x="339.160156"/>
     <use xlink:href="#ArialMT-74" x="389.160156"/>
     <use xlink:href="#ArialMT-73" x="416.943359"/>
    </g>
   </g>
   <g id="legend_1">
    <g id="line2d_77">
     <path d="M 190.815 26.369531 
L 205.815 26.369531 
L 220.815 26.369531 
" style="fill: none; stroke-dasharray: 2,3.3; stroke-dashoffset: 0; stroke: #808080; stroke-width: 2"/>
    </g>
    <g id="text_13">
     <!-- Uniform  (AIC=3109.7, *BIC=3109.7) -->
     <g transform="translate(232.815 31.619531) scale(0.15 -0.15)">
      <defs>
       <path id="ArialMT-55" d="M 3500 4581 
L 4106 4581 
L 4106 1934 
Q 4106 1244 3950 837 
Q 3794 431 3386 176 
Q 2978 -78 2316 -78 
Q 1672 -78 1262 144 
Q 853 366 678 786 
Q 503 1206 503 1934 
L 503 4581 
L 1109 4581 
L 1109 1938 
Q 1109 1341 1220 1058 
Q 1331 775 1601 622 
Q 1872 469 2263 469 
Q 2931 469 3215 772 
Q 3500 1075 3500 1938 
L 3500 4581 
z
" transform="scale(0.015625)"/>
       <path id="ArialMT-66" d="M 556 0 
L 556 2881 
L 59 2881 
L 59 3319 
L 556 3319 
L 556 3672 
Q 556 4006 616 4169 
Q 697 4388 901 4523 
Q 1106 4659 1475 4659 
Q 1713 4659 2000 4603 
L 1916 4113 
Q 1741 4144 1584 4144 
Q 1328 4144 1222 4034 
Q 1116 3925 1116 3625 
L 1116 3319 
L 1763 3319 
L 1763 2881 
L 1116 2881 
L 1116 0 
L 556 0 
z
" transform="scale(0.015625)"/>
       <path id="ArialMT-6f" d="M 213 1659 
Q 213 2581 725 3025 
Q 1153 3394 1769 3394 
Q 2453 3394 2887 2945 
Q 3322 2497 3322 1706 
Q 3322 1066 3130 698 
Q 2938 331 2570 128 
Q 2203 -75 1769 -75 
Q 1072 -75 642 372 
Q 213 819 213 1659 
z
M 791 1659 
Q 791 1022 1069 705 
Q 1347 388 1769 388 
Q 2188 388 2466 706 
Q 2744 1025 2744 1678 
Q 2744 2294 2464 2611 
Q 2184 2928 1769 2928 
Q 1347 2928 1069 2612 
Q 791 2297 791 1659 
z
" transform="scale(0.015625)"/>
       <path id="ArialMT-6d" d="M 422 0 
L 422 3319 
L 925 3319 
L 925 2853 
Q 1081 3097 1340 3245 
Q 1600 3394 1931 3394 
Q 2300 3394 2536 3241 
Q 2772 3088 2869 2813 
Q 3263 3394 3894 3394 
Q 4388 3394 4653 3120 
Q 4919 2847 4919 2278 
L 4919 0 
L 4359 0 
L 4359 2091 
Q 4359 2428 4304 2576 
Q 4250 2725 4106 2815 
Q 3963 2906 3769 2906 
Q 3419 2906 3187 2673 
Q 2956 2441 2956 1928 
L 2956 0 
L 2394 0 
L 2394 2156 
Q 2394 2531 2256 2718 
Q 2119 2906 1806 2906 
Q 1569 2906 1367 2781 
Q 1166 2656 1075 2415 
Q 984 2175 984 1722 
L 984 0 
L 422 0 
z
" transform="scale(0.015625)"/>
       <path id="ArialMT-28" d="M 1497 -1347 
Q 1031 -759 709 28 
Q 388 816 388 1659 
Q 388 2403 628 3084 
Q 909 3875 1497 4659 
L 1900 4659 
Q 1522 4009 1400 3731 
Q 1209 3300 1100 2831 
Q 966 2247 966 1656 
Q 966 153 1900 -1347 
L 1497 -1347 
z
" transform="scale(0.015625)"/>
       <path id="ArialMT-49" d="M 597 0 
L 597 4581 
L 1203 4581 
L 1203 0 
L 597 0 
z
" transform="scale(0.015625)"/>
       <path id="ArialMT-43" d="M 3763 1606 
L 4369 1453 
Q 4178 706 3683 314 
Q 3188 -78 2472 -78 
Q 1731 -78 1267 223 
Q 803 525 561 1097 
Q 319 1669 319 2325 
Q 319 3041 592 3573 
Q 866 4106 1370 4382 
Q 1875 4659 2481 4659 
Q 3169 4659 3637 4309 
Q 4106 3959 4291 3325 
L 3694 3184 
Q 3534 3684 3231 3912 
Q 2928 4141 2469 4141 
Q 1941 4141 1586 3887 
Q 1231 3634 1087 3207 
Q 944 2781 944 2328 
Q 944 1744 1114 1308 
Q 1284 872 1643 656 
Q 2003 441 2422 441 
Q 2931 441 3284 734 
Q 3638 1028 3763 1606 
z
" transform="scale(0.015625)"/>
       <path id="ArialMT-3d" d="M 3381 2694 
L 356 2694 
L 356 3219 
L 3381 3219 
L 3381 2694 
z
M 3381 1303 
L 356 1303 
L 356 1828 
L 3381 1828 
L 3381 1303 
z
" transform="scale(0.015625)"/>
       <path id="ArialMT-37" d="M 303 3981 
L 303 4522 
L 3269 4522 
L 3269 4084 
Q 2831 3619 2401 2847 
Q 1972 2075 1738 1259 
Q 1569 684 1522 0 
L 944 0 
Q 953 541 1156 1306 
Q 1359 2072 1739 2783 
Q 2119 3494 2547 3981 
L 303 3981 
z
" transform="scale(0.015625)"/>
       <path id="ArialMT-2c" d="M 569 0 
L 569 641 
L 1209 641 
L 1209 0 
Q 1209 -353 1084 -570 
Q 959 -788 688 -906 
L 531 -666 
Q 709 -588 793 -436 
Q 878 -284 888 0 
L 569 0 
z
" transform="scale(0.015625)"/>
       <path id="ArialMT-2a" d="M 200 3741 
L 344 4184 
Q 841 4009 1066 3881 
Q 1006 4447 1003 4659 
L 1456 4659 
Q 1447 4350 1384 3884 
Q 1706 4047 2122 4184 
L 2266 3741 
Q 1869 3609 1488 3566 
Q 1678 3400 2025 2975 
L 1650 2709 
Q 1469 2956 1222 3381 
Q 991 2941 816 2709 
L 447 2975 
Q 809 3422 966 3566 
Q 563 3644 200 3741 
z
" transform="scale(0.015625)"/>
       <path id="ArialMT-42" d="M 469 0 
L 469 4581 
L 2188 4581 
Q 2713 4581 3030 4442 
Q 3347 4303 3526 4014 
Q 3706 3725 3706 3409 
Q 3706 3116 3547 2856 
Q 3388 2597 3066 2438 
Q 3481 2316 3704 2022 
Q 3928 1728 3928 1328 
Q 3928 1006 3792 729 
Q 3656 453 3456 303 
Q 3256 153 2954 76 
Q 2653 0 2216 0 
L 469 0 
z
M 1075 2656 
L 2066 2656 
Q 2469 2656 2644 2709 
Q 2875 2778 2992 2937 
Q 3109 3097 3109 3338 
Q 3109 3566 3000 3739 
Q 2891 3913 2687 3977 
Q 2484 4041 1991 4041 
L 1075 4041 
L 1075 2656 
z
M 1075 541 
L 2216 541 
Q 2509 541 2628 563 
Q 2838 600 2978 687 
Q 3119 775 3209 942 
Q 3300 1109 3300 1328 
Q 3300 1584 3169 1773 
Q 3038 1963 2805 2039 
Q 2572 2116 2134 2116 
L 1075 2116 
L 1075 541 
z
" transform="scale(0.015625)"/>
       <path id="ArialMT-29" d="M 791 -1347 
L 388 -1347 
Q 1322 153 1322 1656 
Q 1322 2244 1188 2822 
Q 1081 3291 891 3722 
Q 769 4003 388 4659 
L 791 4659 
Q 1378 3875 1659 3084 
Q 1900 2403 1900 1659 
Q 1900 816 1576 28 
Q 1253 -759 791 -1347 
z
" transform="scale(0.015625)"/>
      </defs>
      <use xlink:href="#ArialMT-55"/>
      <use xlink:href="#ArialMT-6e" x="72.216797"/>
      <use xlink:href="#ArialMT-69" x="127.832031"/>
      <use xlink:href="#ArialMT-66" x="150.048828"/>
      <use xlink:href="#ArialMT-6f" x="177.832031"/>
      <use xlink:href="#ArialMT-72" x="233.447266"/>
      <use xlink:href="#ArialMT-6d" x="266.748047"/>
      <use xlink:href="#ArialMT-20" x="350.048828"/>
      <use xlink:href="#ArialMT-20" x="377.832031"/>
      <use xlink:href="#ArialMT-28" x="405.615234"/>
      <use xlink:href="#ArialMT-41" x="438.916016"/>
      <use xlink:href="#ArialMT-49" x="505.615234"/>
      <use xlink:href="#ArialMT-43" x="533.398438"/>
      <use xlink:href="#ArialMT-3d" x="605.615234"/>
      <use xlink:href="#ArialMT-33" x="664.013672"/>
      <use xlink:href="#ArialMT-31" x="719.628906"/>
      <use xlink:href="#ArialMT-30" x="775.244141"/>
      <use xlink:href="#ArialMT-39" x="830.859375"/>
      <use xlink:href="#ArialMT-2e" x="886.474609"/>
      <use xlink:href="#ArialMT-37" x="914.257812"/>
      <use xlink:href="#ArialMT-2c" x="969.873047"/>
      <use xlink:href="#ArialMT-20" x="997.65625"/>
      <use xlink:href="#ArialMT-2a" x="1025.439453"/>
      <use xlink:href="#ArialMT-42" x="1064.355469"/>
      <use xlink:href="#ArialMT-49" x="1131.054688"/>
      <use xlink:href="#ArialMT-43" x="1158.837891"/>
      <use xlink:href="#ArialMT-3d" x="1231.054688"/>
      <use xlink:href="#ArialMT-33" x="1289.453125"/>
      <use xlink:href="#ArialMT-31" x="1345.068359"/>
      <use xlink:href="#ArialMT-30" x="1400.683594"/>
      <use xlink:href="#ArialMT-39" x="1456.298828"/>
      <use xlink:href="#ArialMT-2e" x="1511.914062"/>
      <use xlink:href="#ArialMT-37" x="1539.697266"/>
      <use xlink:href="#ArialMT-29" x="1595.3125"/>
     </g>
    </g>
    <g id="line2d_78">
     <path d="M 190.815 47.946094 
L 205.815 47.946094 
L 220.815 47.946094 
" style="fill: none; stroke-dasharray: 7.4,3.2; stroke-dashoffset: 0; stroke: #ff7f50; stroke-width: 2"/>
    </g>
    <g id="text_14">
     <!-- Unimodal (AIC=3105.7, BIC=3115.2) -->
     <g transform="translate(232.815 53.196094) scale(0.15 -0.15)">
      <defs>
       <path id="ArialMT-64" d="M 2575 0 
L 2575 419 
Q 2259 -75 1647 -75 
Q 1250 -75 917 144 
Q 584 363 401 755 
Q 219 1147 219 1656 
Q 219 2153 384 2558 
Q 550 2963 881 3178 
Q 1213 3394 1622 3394 
Q 1922 3394 2156 3267 
Q 2391 3141 2538 2938 
L 2538 4581 
L 3097 4581 
L 3097 0 
L 2575 0 
z
M 797 1656 
Q 797 1019 1065 703 
Q 1334 388 1700 388 
Q 2069 388 2326 689 
Q 2584 991 2584 1609 
Q 2584 2291 2321 2609 
Q 2059 2928 1675 2928 
Q 1300 2928 1048 2622 
Q 797 2316 797 1656 
z
" transform="scale(0.015625)"/>
       <path id="ArialMT-6c" d="M 409 0 
L 409 4581 
L 972 4581 
L 972 0 
L 409 0 
z
" transform="scale(0.015625)"/>
      </defs>
      <use xlink:href="#ArialMT-55"/>
      <use xlink:href="#ArialMT-6e" x="72.216797"/>
      <use xlink:href="#ArialMT-69" x="127.832031"/>
      <use xlink:href="#ArialMT-6d" x="150.048828"/>
      <use xlink:href="#ArialMT-6f" x="233.349609"/>
      <use xlink:href="#ArialMT-64" x="288.964844"/>
      <use xlink:href="#ArialMT-61" x="344.580078"/>
      <use xlink:href="#ArialMT-6c" x="400.195312"/>
      <use xlink:href="#ArialMT-20" x="422.412109"/>
      <use xlink:href="#ArialMT-28" x="450.195312"/>
      <use xlink:href="#ArialMT-41" x="483.496094"/>
      <use xlink:href="#ArialMT-49" x="550.195312"/>
      <use xlink:href="#ArialMT-43" x="577.978516"/>
      <use xlink:href="#ArialMT-3d" x="650.195312"/>
      <use xlink:href="#ArialMT-33" x="708.59375"/>
      <use xlink:href="#ArialMT-31" x="764.208984"/>
      <use xlink:href="#ArialMT-30" x="819.824219"/>
      <use xlink:href="#ArialMT-35" x="875.439453"/>
      <use xlink:href="#ArialMT-2e" x="931.054688"/>
      <use xlink:href="#ArialMT-37" x="958.837891"/>
      <use xlink:href="#ArialMT-2c" x="1014.453125"/>
      <use xlink:href="#ArialMT-20" x="1042.236328"/>
      <use xlink:href="#ArialMT-42" x="1070.019531"/>
      <use xlink:href="#ArialMT-49" x="1136.71875"/>
      <use xlink:href="#ArialMT-43" x="1164.501953"/>
      <use xlink:href="#ArialMT-3d" x="1236.71875"/>
      <use xlink:href="#ArialMT-33" x="1295.117188"/>
      <use xlink:href="#ArialMT-31" x="1350.732422"/>
      <use xlink:href="#ArialMT-31" x="1398.972656"/>
      <use xlink:href="#ArialMT-35" x="1454.587891"/>
      <use xlink:href="#ArialMT-2e" x="1510.203125"/>
      <use xlink:href="#ArialMT-32" x="1537.986328"/>
      <use xlink:href="#ArialMT-29" x="1593.601562"/>
     </g>
    </g>
    <g id="line2d_79">
     <path d="M 190.815 69.522656 
L 205.815 69.522656 
L 220.815 69.522656 
" style="fill: none; stroke-dasharray: 12.8,3.2,2,3.2; stroke-dashoffset: 0; stroke: #008000; stroke-width: 2"/>
    </g>
    <g id="text_15">
     <!-- Bimodal  (*AIC=3103.9, BIC=3122.9) -->
     <g transform="translate(232.815 74.772656) scale(0.15 -0.15)">
      <use xlink:href="#ArialMT-42"/>
      <use xlink:href="#ArialMT-69" x="66.699219"/>
      <use xlink:href="#ArialMT-6d" x="88.916016"/>
      <use xlink:href="#ArialMT-6f" x="172.216797"/>
      <use xlink:href="#ArialMT-64" x="227.832031"/>
      <use xlink:href="#ArialMT-61" x="283.447266"/>
      <use xlink:href="#ArialMT-6c" x="339.0625"/>
      <use xlink:href="#ArialMT-20" x="361.279297"/>
      <use xlink:href="#ArialMT-20" x="389.0625"/>
      <use xlink:href="#ArialMT-28" x="416.845703"/>
      <use xlink:href="#ArialMT-2a" x="450.146484"/>
      <use xlink:href="#ArialMT-41" x="489.0625"/>
      <use xlink:href="#ArialMT-49" x="555.761719"/>
      <use xlink:href="#ArialMT-43" x="583.544922"/>
      <use xlink:href="#ArialMT-3d" x="655.761719"/>
      <use xlink:href="#ArialMT-33" x="714.160156"/>
      <use xlink:href="#ArialMT-31" x="769.775391"/>
      <use xlink:href="#ArialMT-30" x="825.390625"/>
      <use xlink:href="#ArialMT-33" x="881.005859"/>
      <use xlink:href="#ArialMT-2e" x="936.621094"/>
      <use xlink:href="#ArialMT-39" x="964.404297"/>
      <use xlink:href="#ArialMT-2c" x="1020.019531"/>
      <use xlink:href="#ArialMT-20" x="1047.802734"/>
      <use xlink:href="#ArialMT-42" x="1075.585938"/>
      <use xlink:href="#ArialMT-49" x="1142.285156"/>
      <use xlink:href="#ArialMT-43" x="1170.068359"/>
      <use xlink:href="#ArialMT-3d" x="1242.285156"/>
      <use xlink:href="#ArialMT-33" x="1300.683594"/>
      <use xlink:href="#ArialMT-31" x="1356.298828"/>
      <use xlink:href="#ArialMT-32" x="1411.914062"/>
      <use xlink:href="#ArialMT-32" x="1467.529297"/>
      <use xlink:href="#ArialMT-2e" x="1523.144531"/>
      <use xlink:href="#ArialMT-39" x="1550.927734"/>
      <use xlink:href="#ArialMT-29" x="1606.542969"/>
     </g>
    </g>
   </g>
  </g>
 </g>
 <defs>
  <clipPath id="p6e6345349d">
   <rect x="45.882188" y="7.2" width="446.4" height="332.64"/>
  </clipPath>
 </defs>
</svg>
